<svg id="svg" version="1.1" xmlns="http://www.w3.org/2000/svg" xmlns:xlink="http://www.w3.org/1999/xlink" width="400" height="400" viewBox="0, 0, 400,400"><g id="svgg"><path id="path0" d="M384.925 26.252 C 384.829 26.500,383.870 26.820,382.792 26.963 C 381.715 27.106,380.725 27.398,380.593 27.612 C 380.461 27.825,380.003 28.000,379.576 28.000 C 379.149 28.000,378.800 28.180,378.800 28.400 C 378.800 28.620,378.361 28.800,377.824 28.800 C 377.287 28.800,376.736 28.980,376.600 29.200 C 376.464 29.420,375.823 29.600,375.176 29.600 C 374.529 29.600,374.000 29.780,374.000 30.000 C 374.000 30.220,373.629 30.400,373.176 30.400 C 372.723 30.400,372.464 30.580,372.600 30.800 C 372.738 31.024,372.431 31.200,371.903 31.200 C 370.864 31.200,368.808 32.043,368.803 32.471 C 368.801 32.620,367.822 32.865,366.626 33.014 C 365.360 33.172,364.365 33.515,364.242 33.836 C 364.125 34.139,363.754 34.280,363.415 34.150 C 363.077 34.021,362.800 34.114,362.800 34.357 C 362.800 34.601,362.378 34.800,361.861 34.800 C 361.345 34.800,360.310 35.112,359.561 35.493 C 357.731 36.426,355.555 37.187,354.700 37.194 C 354.315 37.197,354.000 37.380,354.000 37.600 C 354.000 37.820,353.743 38.000,353.429 38.000 C 353.114 38.000,352.568 38.289,352.214 38.643 C 351.861 38.997,351.229 39.196,350.812 39.087 C 350.378 38.974,349.960 39.127,349.838 39.444 C 349.721 39.750,349.180 40.000,348.636 40.000 C 348.092 40.000,347.528 40.192,347.383 40.427 C 347.238 40.662,346.867 40.758,346.560 40.640 C 346.247 40.520,346.000 40.668,346.000 40.975 C 346.000 41.341,345.712 41.450,345.140 41.300 C 344.581 41.154,344.098 41.324,343.759 41.788 C 343.464 42.191,342.972 42.398,342.624 42.265 C 342.274 42.130,342.051 42.226,342.105 42.486 C 342.158 42.741,341.405 43.083,340.400 43.259 C 339.410 43.434,337.700 43.965,336.600 44.440 C 335.500 44.916,334.195 45.461,333.700 45.652 C 331.885 46.353,330.975 46.710,329.881 47.150 C 329.266 47.398,328.411 47.600,327.981 47.600 C 327.552 47.600,327.199 47.735,327.197 47.900 C 327.193 48.301,325.219 49.200,324.344 49.200 C 323.961 49.200,323.536 49.380,323.400 49.600 C 323.264 49.820,322.623 50.000,321.976 50.000 C 321.329 50.000,320.485 50.315,320.100 50.700 C 319.715 51.085,318.994 51.342,318.498 51.272 C 317.970 51.197,317.501 51.394,317.365 51.747 C 317.238 52.078,316.897 52.259,316.607 52.147 C 316.318 52.036,315.962 52.138,315.817 52.373 C 315.672 52.608,315.124 52.800,314.600 52.800 C 314.076 52.800,313.536 52.980,313.400 53.200 C 313.264 53.420,312.713 53.600,312.176 53.600 C 311.639 53.600,311.200 53.780,311.200 54.000 C 311.200 54.220,310.834 54.400,310.387 54.400 C 309.941 54.400,309.482 54.643,309.367 54.941 C 309.241 55.271,308.779 55.409,308.180 55.294 C 307.613 55.186,307.200 55.295,307.200 55.553 C 307.200 55.799,306.654 56.000,305.987 56.000 C 305.296 56.000,304.679 56.250,304.552 56.581 C 304.429 56.901,303.536 57.281,302.559 57.427 C 301.585 57.573,300.656 57.897,300.494 58.147 C 300.017 58.885,298.102 59.725,297.460 59.478 C 297.127 59.351,296.762 59.523,296.628 59.871 C 296.470 60.283,296.056 60.427,295.395 60.301 C 294.848 60.197,294.399 60.221,294.397 60.355 C 294.392 60.762,292.304 61.600,291.297 61.600 C 290.769 61.600,290.462 61.776,290.600 62.000 C 290.741 62.228,290.396 62.400,289.800 62.400 C 289.204 62.400,288.859 62.572,289.000 62.800 C 289.140 63.027,288.802 63.200,288.218 63.200 C 287.652 63.200,286.877 63.357,286.495 63.548 C 284.204 64.696,281.876 65.600,281.213 65.600 C 280.792 65.600,280.351 65.756,280.232 65.947 C 280.114 66.139,279.294 66.411,278.409 66.552 C 277.524 66.694,276.800 66.987,276.800 67.205 C 276.800 67.422,276.322 67.600,275.738 67.600 C 275.154 67.600,274.062 68.068,273.312 68.640 C 272.522 69.242,271.634 69.598,271.200 69.484 C 270.760 69.369,270.357 69.536,270.221 69.890 C 270.070 70.283,269.646 70.425,268.995 70.301 C 268.448 70.197,268.000 70.266,268.000 70.455 C 268.000 70.645,267.640 70.800,267.200 70.800 C 266.756 70.800,266.400 71.067,266.400 71.400 C 266.400 71.800,266.000 72.000,265.200 72.000 C 264.540 72.000,264.000 72.149,264.000 72.331 C 264.000 72.513,263.460 72.582,262.800 72.485 C 261.923 72.357,261.600 72.470,261.600 72.908 C 261.600 73.576,260.275 74.117,258.899 74.011 C 258.386 73.972,257.889 74.223,257.747 74.594 C 257.609 74.953,257.265 75.157,256.981 75.048 C 256.698 74.939,256.359 75.130,256.228 75.471 C 256.069 75.885,255.656 76.027,254.985 75.899 C 254.343 75.777,253.857 75.926,253.641 76.313 C 253.429 76.691,252.981 76.836,252.451 76.697 C 251.983 76.575,251.600 76.609,251.600 76.773 C 251.600 76.938,250.835 77.298,249.900 77.575 C 248.965 77.852,247.887 78.240,247.505 78.439 C 247.123 78.638,246.448 78.800,246.005 78.800 C 245.562 78.800,245.199 78.935,245.197 79.100 C 245.192 79.547,243.174 80.400,242.120 80.400 C 241.614 80.400,241.200 80.580,241.200 80.800 C 241.200 81.020,240.840 81.200,240.400 81.200 C 239.960 81.200,239.600 81.380,239.600 81.600 C 239.600 81.820,239.049 82.000,238.376 82.000 C 237.703 82.000,237.250 82.157,237.368 82.348 C 237.487 82.540,236.829 82.798,235.906 82.922 C 234.983 83.046,234.042 83.385,233.814 83.677 C 233.586 83.968,232.994 84.147,232.498 84.075 C 231.968 83.998,231.501 84.192,231.365 84.547 C 231.238 84.878,230.879 85.052,230.567 84.932 C 230.255 84.812,230.000 84.914,230.000 85.157 C 230.000 85.401,229.460 85.600,228.800 85.600 C 228.140 85.600,227.600 85.780,227.600 86.000 C 227.600 86.220,227.060 86.400,226.400 86.400 C 225.740 86.400,225.200 86.580,225.200 86.800 C 225.200 87.020,224.851 87.200,224.424 87.200 C 223.997 87.200,223.536 87.380,223.400 87.600 C 223.264 87.820,222.816 88.000,222.405 88.000 C 221.994 88.000,221.368 88.289,221.014 88.643 C 220.649 89.008,220.022 89.194,219.561 89.074 C 219.061 88.943,218.664 89.089,218.524 89.454 C 218.399 89.780,218.065 89.957,217.781 89.848 C 217.498 89.739,217.159 89.930,217.028 90.271 C 216.870 90.683,216.456 90.827,215.795 90.701 C 215.248 90.597,214.800 90.666,214.800 90.855 C 214.800 91.045,214.552 91.200,214.249 91.200 C 213.946 91.200,213.474 91.470,213.200 91.800 C 212.926 92.130,212.285 92.400,211.775 92.400 C 211.265 92.400,210.742 92.570,210.614 92.777 C 210.486 92.984,209.577 93.274,208.595 93.422 C 207.612 93.569,206.907 93.849,207.028 94.045 C 207.148 94.240,206.797 94.400,206.247 94.400 C 205.697 94.400,205.136 94.580,205.000 94.800 C 204.864 95.020,204.437 95.200,204.052 95.200 C 203.666 95.200,202.605 95.560,201.694 96.000 C 200.784 96.440,199.670 96.800,199.219 96.800 C 198.769 96.800,198.400 96.980,198.400 97.200 C 198.400 97.420,198.040 97.600,197.600 97.600 C 197.160 97.600,196.800 97.780,196.800 98.000 C 196.800 98.220,196.271 98.400,195.624 98.400 C 194.977 98.400,194.336 98.580,194.200 98.800 C 194.064 99.020,193.513 99.200,192.976 99.200 C 192.439 99.200,192.000 99.360,192.000 99.555 C 192.000 99.751,191.333 100.036,190.519 100.189 C 189.704 100.342,188.361 100.812,187.535 101.233 C 186.708 101.655,185.749 102.000,185.403 102.000 C 185.058 102.000,184.682 102.243,184.567 102.541 C 184.441 102.870,183.979 103.009,183.385 102.895 C 182.745 102.773,182.328 102.922,182.172 103.329 C 182.041 103.670,181.697 103.859,181.407 103.747 C 181.118 103.636,180.762 103.738,180.617 103.973 C 180.472 104.208,179.913 104.400,179.376 104.400 C 178.839 104.400,178.400 104.580,178.400 104.800 C 178.400 105.020,177.854 105.200,177.187 105.200 C 176.502 105.200,175.879 105.450,175.754 105.775 C 175.633 106.091,175.302 106.261,175.019 106.152 C 174.735 106.043,174.391 106.247,174.253 106.606 C 174.107 106.986,173.628 107.220,173.101 107.168 C 171.940 107.053,170.000 107.846,170.000 108.437 C 170.000 108.712,169.590 108.815,168.968 108.696 C 168.313 108.571,167.860 108.700,167.726 109.049 C 167.609 109.352,167.094 109.600,166.581 109.600 C 166.067 109.600,165.528 109.792,165.383 110.027 C 165.238 110.262,164.867 110.358,164.560 110.240 C 164.252 110.122,164.000 110.199,164.000 110.413 C 164.000 110.626,163.561 110.800,163.024 110.800 C 162.487 110.800,161.936 110.980,161.800 111.200 C 161.664 111.420,161.023 111.600,160.376 111.600 C 159.729 111.600,159.199 111.735,159.197 111.900 C 159.192 112.352,157.169 113.200,156.097 113.200 C 155.569 113.200,155.262 113.376,155.400 113.600 C 155.536 113.820,155.277 114.000,154.824 114.000 C 154.371 114.000,154.000 114.180,154.000 114.400 C 154.000 114.620,153.548 114.800,152.995 114.800 C 152.442 114.800,151.677 114.958,151.295 115.151 C 149.503 116.057,147.507 116.800,146.866 116.800 C 145.983 116.800,144.007 117.697,144.003 118.100 C 144.001 118.265,143.479 118.400,142.843 118.400 C 142.147 118.400,141.587 118.657,141.438 119.046 C 141.268 119.489,140.869 119.630,140.163 119.495 C 139.498 119.368,139.059 119.501,138.917 119.872 C 138.796 120.188,138.456 120.353,138.161 120.240 C 137.867 120.127,137.519 120.207,137.389 120.417 C 137.259 120.628,136.722 120.800,136.196 120.800 C 135.670 120.800,135.074 121.097,134.870 121.460 C 134.632 121.886,134.200 122.041,133.651 121.897 C 133.088 121.750,132.800 121.861,132.800 122.225 C 132.800 122.557,132.555 122.681,132.181 122.537 C 131.827 122.402,131.338 122.605,131.041 123.012 C 130.702 123.476,130.219 123.646,129.660 123.500 C 129.103 123.354,128.800 123.460,128.800 123.800 C 128.800 124.128,128.500 124.247,128.000 124.116 C 127.444 123.970,127.200 124.104,127.200 124.553 C 127.200 124.972,126.856 125.200,126.224 125.200 C 125.687 125.200,125.125 125.397,124.977 125.638 C 124.828 125.878,124.263 125.991,123.722 125.887 C 123.129 125.774,122.657 125.908,122.535 126.225 C 122.424 126.514,121.763 126.867,121.067 127.008 C 119.158 127.396,117.181 128.031,115.400 128.829 C 114.520 129.223,113.125 129.774,112.300 130.053 C 111.475 130.332,110.800 130.705,110.800 130.880 C 110.800 131.056,110.260 131.200,109.600 131.200 C 108.940 131.200,108.400 131.380,108.400 131.600 C 108.400 131.820,107.849 132.000,107.176 132.000 C 106.503 132.000,106.052 132.160,106.172 132.355 C 106.293 132.551,105.573 132.833,104.573 132.983 C 103.572 133.133,102.659 133.502,102.544 133.803 C 102.428 134.103,102.080 134.252,101.770 134.133 C 101.460 134.014,101.106 134.179,100.983 134.499 C 100.841 134.869,100.405 135.013,99.785 134.895 C 99.145 134.773,98.728 134.922,98.572 135.329 C 98.441 135.670,98.084 135.854,97.778 135.736 C 97.162 135.500,94.800 136.421,94.800 136.898 C 94.800 137.064,94.271 137.200,93.624 137.200 C 92.977 137.200,92.336 137.380,92.200 137.600 C 92.064 137.820,91.533 138.000,91.019 138.000 C 90.506 138.000,89.975 138.289,89.839 138.642 C 89.701 139.002,89.336 139.184,89.007 139.058 C 88.685 138.934,88.259 139.123,88.061 139.476 C 87.827 139.896,87.396 140.040,86.826 139.891 C 86.259 139.743,85.871 139.871,85.724 140.254 C 85.599 140.580,85.250 140.751,84.948 140.636 C 84.647 140.520,84.400 140.599,84.400 140.813 C 84.400 141.026,83.879 141.200,83.243 141.200 C 82.583 141.200,81.987 141.458,81.855 141.800 C 81.729 142.130,81.180 142.400,80.636 142.400 C 80.092 142.400,79.528 142.592,79.383 142.827 C 79.238 143.062,78.867 143.158,78.560 143.040 C 78.252 142.922,78.000 142.999,78.000 143.213 C 78.000 143.426,77.460 143.600,76.800 143.600 C 76.140 143.600,75.600 143.780,75.600 144.000 C 75.600 144.220,75.030 144.400,74.333 144.400 C 73.637 144.400,73.184 144.517,73.327 144.661 C 73.662 144.995,71.740 146.000,70.764 146.000 C 70.354 146.000,69.430 146.359,68.710 146.799 C 67.989 147.238,66.995 147.598,66.500 147.599 C 66.005 147.599,65.600 147.780,65.600 148.000 C 65.600 148.220,65.233 148.400,64.784 148.400 C 64.335 148.400,63.292 148.745,62.465 149.167 C 61.639 149.588,60.251 150.052,59.381 150.196 C 58.512 150.341,57.080 150.781,56.200 151.173 C 55.320 151.566,53.925 152.180,53.100 152.537 C 52.275 152.895,51.600 153.339,51.600 153.524 C 51.600 153.710,51.060 153.782,50.400 153.685 C 49.541 153.559,49.200 153.673,49.200 154.085 C 49.200 154.498,48.859 154.611,48.000 154.485 C 47.098 154.353,46.800 154.466,46.800 154.942 C 46.800 155.314,46.574 155.488,46.252 155.364 C 45.950 155.249,45.601 155.420,45.476 155.746 C 45.336 156.111,44.939 156.257,44.439 156.126 C 43.978 156.006,43.351 156.191,42.986 156.557 C 42.632 156.910,41.621 157.315,40.737 157.456 C 39.854 157.598,39.038 157.958,38.923 158.257 C 38.808 158.555,38.194 158.800,37.557 158.800 C 36.921 158.800,36.400 158.980,36.400 159.200 C 36.400 159.420,36.040 159.600,35.600 159.600 C 35.160 159.600,34.800 159.801,34.800 160.047 C 34.800 160.308,34.382 160.413,33.790 160.300 C 33.235 160.194,32.685 160.263,32.567 160.454 C 32.449 160.644,31.913 160.800,31.376 160.800 C 30.839 160.800,30.400 160.980,30.400 161.200 C 30.400 161.420,30.040 161.600,29.600 161.600 C 29.160 161.600,28.800 161.780,28.800 162.000 C 28.800 162.220,28.361 162.400,27.824 162.400 C 27.287 162.400,26.736 162.580,26.600 162.800 C 26.464 163.020,26.003 163.200,25.576 163.200 C 25.149 163.200,24.800 163.380,24.800 163.600 C 24.800 163.820,24.350 164.000,23.800 164.000 C 23.250 164.000,22.800 164.180,22.800 164.400 C 22.800 164.620,22.260 164.800,21.600 164.800 C 20.940 164.800,20.400 164.980,20.400 165.200 C 20.400 165.420,20.051 165.600,19.624 165.600 C 19.197 165.600,18.739 165.775,18.607 165.988 C 18.475 166.202,17.485 166.494,16.408 166.637 C 15.328 166.780,14.355 167.141,14.239 167.442 C 14.124 167.741,13.753 167.880,13.415 167.750 C 13.077 167.621,12.800 167.714,12.800 167.957 C 12.800 168.201,12.338 168.400,11.773 168.400 C 11.209 168.400,10.129 168.871,9.374 169.447 C 8.523 170.096,7.697 170.414,7.201 170.284 C 6.760 170.169,6.400 170.238,6.400 170.437 C 6.400 170.637,6.151 170.800,5.847 170.800 C 4.991 170.800,1.761 174.017,0.833 175.794 C -2.427 182.035,2.160 193.200,7.984 193.200 C 8.433 193.200,8.800 193.399,8.800 193.643 C 8.800 193.886,9.077 193.979,9.415 193.850 C 9.765 193.715,10.128 193.869,10.258 194.207 C 10.383 194.533,10.821 194.800,11.231 194.800 C 11.640 194.800,12.640 195.173,13.453 195.630 C 14.265 196.086,15.261 196.373,15.665 196.267 C 16.103 196.153,16.400 196.287,16.400 196.600 C 16.400 196.939,16.702 197.046,17.251 196.903 C 17.795 196.760,18.231 196.912,18.461 197.324 C 18.659 197.677,19.068 197.872,19.370 197.756 C 19.672 197.640,20.038 197.738,20.183 197.973 C 20.328 198.208,20.867 198.400,21.381 198.400 C 21.894 198.400,22.422 198.681,22.554 199.025 C 22.686 199.369,22.968 199.543,23.181 199.412 C 23.394 199.280,23.890 199.344,24.284 199.554 C 25.952 200.441,28.834 201.600,29.372 201.600 C 29.691 201.600,30.064 201.780,30.200 202.000 C 30.336 202.220,30.791 202.400,31.211 202.400 C 31.632 202.400,32.617 202.760,33.400 203.200 C 34.183 203.640,35.083 204.000,35.400 204.000 C 35.717 204.000,36.617 204.360,37.400 204.800 C 38.183 205.240,39.168 205.600,39.589 205.600 C 40.009 205.600,40.464 205.780,40.600 206.000 C 40.736 206.220,41.287 206.400,41.824 206.400 C 42.361 206.400,42.800 206.580,42.800 206.800 C 42.800 207.020,43.160 207.200,43.600 207.200 C 44.040 207.200,44.400 207.380,44.400 207.600 C 44.400 207.820,44.940 208.000,45.600 208.000 C 46.260 208.000,46.800 208.180,46.800 208.400 C 46.800 208.620,47.160 208.800,47.600 208.800 C 48.040 208.800,48.400 208.980,48.400 209.200 C 48.400 209.420,48.904 209.600,49.520 209.600 C 50.136 209.600,50.811 209.749,51.020 209.930 C 51.229 210.112,52.165 210.501,53.100 210.794 C 54.035 211.088,54.800 211.479,54.800 211.664 C 54.800 211.849,55.340 212.000,56.000 212.000 C 56.660 212.000,57.200 212.174,57.200 212.387 C 57.200 212.601,57.470 212.671,57.800 212.545 C 58.130 212.418,58.400 212.514,58.400 212.757 C 58.400 213.001,58.921 213.200,59.557 213.200 C 60.250 213.200,60.813 213.457,60.961 213.842 C 61.096 214.194,61.460 214.386,61.770 214.267 C 62.080 214.148,62.433 214.309,62.554 214.625 C 62.676 214.941,63.220 215.200,63.764 215.200 C 64.308 215.200,64.875 215.397,65.023 215.638 C 65.172 215.878,65.723 215.993,66.247 215.893 C 66.771 215.793,67.201 215.821,67.203 215.955 C 67.207 216.269,69.200 217.200,69.868 217.200 C 70.147 217.200,71.017 217.560,71.800 218.000 C 72.583 218.440,73.579 218.800,74.012 218.800 C 74.445 218.800,74.800 218.980,74.800 219.200 C 74.800 219.420,75.340 219.600,76.000 219.600 C 76.660 219.600,77.200 219.780,77.200 220.000 C 77.200 220.220,77.560 220.400,78.000 220.400 C 78.440 220.400,78.800 220.580,78.800 220.800 C 78.800 221.020,79.102 221.200,79.472 221.200 C 80.446 221.200,82.800 222.106,82.800 222.480 C 82.800 222.656,83.239 222.800,83.776 222.800 C 84.313 222.800,84.864 222.980,85.000 223.200 C 85.136 223.420,85.676 223.600,86.200 223.600 C 86.724 223.600,87.264 223.780,87.400 224.000 C 87.536 224.220,87.997 224.400,88.424 224.400 C 88.851 224.400,89.200 224.555,89.200 224.745 C 89.200 224.934,89.648 225.003,90.195 224.899 C 90.868 224.770,91.270 224.917,91.438 225.354 C 91.574 225.709,92.026 226.000,92.443 226.000 C 92.859 226.000,93.200 226.180,93.200 226.400 C 93.200 226.620,93.562 226.800,94.005 226.800 C 94.767 226.800,96.364 227.511,96.800 228.044 C 96.910 228.179,97.900 228.422,99.000 228.584 C 100.100 228.746,101.090 229.000,101.200 229.148 C 101.662 229.772,103.630 230.800,104.362 230.800 C 104.797 230.800,105.264 230.980,105.400 231.200 C 105.536 231.420,105.997 231.600,106.424 231.600 C 106.851 231.600,107.200 231.780,107.200 232.000 C 107.200 232.220,107.740 232.400,108.400 232.400 C 109.060 232.400,109.600 232.545,109.600 232.723 C 109.600 232.901,110.365 233.216,111.300 233.423 L 113.000 233.800 113.094 299.800 L 113.189 365.800 114.293 367.927 C 115.905 371.032,118.939 373.600,120.995 373.600 C 121.548 373.600,122.000 373.780,122.000 374.000 C 122.000 374.526,127.875 374.526,128.200 374.000 C 128.336 373.780,128.799 373.600,129.229 373.600 C 130.769 373.600,135.200 369.888,135.200 368.598 C 135.200 368.269,135.380 368.000,135.600 368.000 C 135.820 368.000,136.000 367.764,136.000 367.475 C 136.000 367.187,136.360 366.564,136.800 366.092 C 137.240 365.620,137.600 364.956,137.600 364.617 C 137.600 364.278,137.780 364.000,138.000 364.000 C 138.220 364.000,138.400 363.640,138.400 363.200 C 138.400 362.760,138.535 362.399,138.700 362.399 C 138.865 362.398,139.450 361.408,140.000 360.200 C 140.550 358.992,141.135 358.002,141.300 358.001 C 141.465 358.001,141.600 357.640,141.600 357.200 C 141.600 356.760,141.780 356.400,142.000 356.400 C 142.220 356.400,142.400 356.166,142.400 355.880 C 142.400 355.144,143.341 353.207,143.700 353.203 C 143.865 353.201,144.000 352.840,144.000 352.400 C 144.000 351.960,144.180 351.600,144.400 351.600 C 144.620 351.600,144.800 351.240,144.800 350.800 C 144.800 350.360,144.980 350.000,145.200 350.000 C 145.420 350.000,145.600 349.640,145.600 349.200 C 145.600 348.760,145.759 348.400,145.953 348.400 C 146.347 348.400,146.921 346.880,146.825 346.095 C 146.790 345.817,147.030 345.487,147.356 345.362 C 147.682 345.236,147.861 344.902,147.752 344.619 C 147.643 344.335,147.846 343.991,148.202 343.854 C 148.559 343.718,148.738 343.423,148.600 343.200 C 148.462 342.977,148.679 342.301,149.081 341.697 C 149.484 341.094,151.520 337.180,153.607 333.000 C 155.693 328.820,157.535 325.340,157.700 325.267 C 157.865 325.193,158.000 324.895,158.000 324.604 C 158.000 323.963,159.680 320.653,160.100 320.467 C 160.265 320.393,160.400 320.095,160.400 319.804 C 160.400 319.183,162.073 315.858,162.478 315.674 C 162.630 315.605,162.656 315.291,162.536 314.978 C 162.416 314.664,162.594 314.300,162.933 314.170 C 163.272 314.040,163.452 313.679,163.332 313.367 C 163.212 313.055,163.300 312.800,163.528 312.800 C 163.988 312.800,165.200 310.580,165.200 309.739 C 165.200 309.442,165.399 309.200,165.643 309.200 C 165.886 309.200,165.986 308.942,165.865 308.626 C 165.744 308.310,165.770 307.995,165.922 307.926 C 166.317 307.747,170.412 299.502,170.406 298.900 C 170.403 298.625,170.580 298.400,170.800 298.400 C 171.020 298.400,171.200 298.040,171.200 297.600 C 171.200 297.160,171.335 296.799,171.500 296.797 C 171.859 296.793,172.800 294.856,172.800 294.120 C 172.800 293.834,172.946 293.600,173.125 293.600 C 173.304 293.600,173.698 292.970,174.000 292.200 C 174.302 291.430,174.690 290.800,174.862 290.800 C 175.034 290.800,175.072 290.532,174.946 290.203 C 174.815 289.863,174.992 289.501,175.358 289.361 C 175.711 289.225,176.000 288.774,176.000 288.357 C 176.000 287.941,176.180 287.600,176.400 287.600 C 176.620 287.600,176.800 287.240,176.800 286.800 C 176.800 286.360,176.980 286.000,177.200 286.000 C 177.420 286.000,177.600 285.640,177.600 285.200 C 177.600 284.760,177.780 284.400,178.000 284.400 C 178.220 284.400,178.400 284.040,178.400 283.600 C 178.400 283.160,178.574 282.800,178.787 282.800 C 179.001 282.800,179.071 282.530,178.945 282.200 C 178.818 281.870,178.796 281.600,178.896 281.600 C 179.363 281.600,181.502 282.849,182.289 283.582 C 182.771 284.032,183.339 284.400,183.549 284.400 C 183.760 284.400,184.442 284.940,185.065 285.600 C 185.688 286.260,186.392 286.800,186.629 286.800 C 186.866 286.800,187.494 287.262,188.024 287.826 C 188.554 288.390,189.569 289.127,190.279 289.464 C 190.990 289.801,191.679 290.420,191.812 290.839 C 191.945 291.257,192.330 291.600,192.666 291.600 C 193.003 291.600,193.783 292.140,194.400 292.800 C 195.017 293.460,195.737 294.000,196.000 294.000 C 196.263 294.000,197.001 294.559,197.640 295.243 C 198.340 295.992,199.039 296.394,199.400 296.255 C 199.730 296.129,200.000 296.216,200.000 296.448 C 200.000 296.915,201.601 298.366,202.140 298.387 C 202.326 298.394,202.983 298.940,203.600 299.600 C 204.217 300.260,205.009 300.800,205.360 300.800 C 205.712 300.800,206.000 300.959,206.000 301.154 C 206.000 301.349,206.601 301.794,207.335 302.142 C 208.069 302.491,209.012 303.231,209.430 303.788 C 209.848 304.345,210.427 304.800,210.717 304.800 C 211.006 304.800,211.819 305.339,212.522 305.998 C 213.225 306.657,214.005 307.197,214.255 307.198 C 214.505 307.199,215.135 307.738,215.655 308.396 C 216.175 309.054,216.851 309.594,217.157 309.596 C 217.463 309.598,218.209 310.119,218.815 310.753 C 219.421 311.387,220.091 311.972,220.303 312.053 C 220.745 312.221,222.682 313.685,224.600 315.300 C 225.318 315.905,226.100 316.400,226.337 316.400 C 226.574 316.400,227.199 316.866,227.727 317.435 C 228.653 318.433,229.473 318.993,231.600 320.079 C 232.150 320.359,233.109 321.086,233.731 321.695 C 234.353 322.303,235.021 322.800,235.217 322.800 C 235.412 322.800,236.107 323.322,236.759 323.960 C 237.412 324.598,238.048 325.019,238.172 324.895 C 238.296 324.770,238.968 325.336,239.665 326.152 C 240.362 326.968,241.158 327.548,241.436 327.442 C 241.713 327.335,242.474 327.874,243.127 328.638 C 243.780 329.403,244.485 329.977,244.693 329.914 C 244.901 329.851,245.566 330.385,246.171 331.100 C 246.776 331.815,247.517 332.400,247.817 332.400 C 248.118 332.400,248.814 332.850,249.364 333.400 C 249.914 333.950,250.507 334.401,250.682 334.402 C 250.857 334.403,251.575 334.943,252.278 335.602 C 252.981 336.261,253.797 336.800,254.090 336.800 C 254.383 336.800,254.883 337.160,255.200 337.600 C 255.517 338.040,255.919 338.400,256.092 338.400 C 256.265 338.400,256.972 338.940,257.663 339.600 C 258.354 340.260,259.090 340.800,259.299 340.800 C 259.508 340.800,260.183 341.340,260.800 342.000 C 261.417 342.660,262.144 343.200,262.417 343.200 C 262.690 343.200,263.429 343.740,264.060 344.400 C 264.691 345.060,265.394 345.600,265.622 345.600 C 265.850 345.600,266.486 346.050,267.036 346.600 C 267.586 347.150,268.210 347.600,268.422 347.600 C 268.634 347.600,269.372 348.140,270.063 348.800 C 270.754 349.460,271.542 350.000,271.814 350.000 C 272.087 350.000,272.735 350.538,273.255 351.196 C 273.775 351.854,274.435 352.394,274.722 352.396 C 275.009 352.398,275.819 352.939,276.522 353.598 C 277.225 354.257,277.953 354.797,278.140 354.798 C 278.326 354.799,278.983 355.340,279.600 356.000 C 280.217 356.660,280.969 357.200,281.272 357.200 C 281.575 357.200,282.083 357.560,282.400 358.000 C 282.717 358.440,283.271 358.800,283.630 358.800 C 283.990 358.800,284.715 359.295,285.242 359.900 C 286.458 361.296,287.716 362.000,288.995 362.000 C 289.548 362.000,290.000 362.135,290.000 362.300 C 290.000 362.649,295.943 362.590,296.296 362.237 C 296.427 362.107,296.866 362.000,297.272 362.000 C 299.140 362.000,302.302 358.922,303.846 355.600 C 304.409 354.390,305.034 353.087,305.235 352.705 C 305.436 352.323,305.600 351.659,305.600 351.229 C 305.600 350.799,305.780 350.336,306.000 350.200 C 306.220 350.064,306.400 349.524,306.400 349.000 C 306.400 348.476,306.580 347.936,306.800 347.800 C 307.020 347.664,307.200 346.843,307.200 345.976 C 307.200 345.109,307.380 344.400,307.600 344.400 C 307.820 344.400,308.000 343.961,308.000 343.424 C 308.000 342.887,308.180 342.336,308.400 342.200 C 308.620 342.064,308.800 341.513,308.800 340.976 C 308.800 340.439,308.980 340.000,309.200 340.000 C 309.420 340.000,309.600 339.291,309.600 338.424 C 309.600 337.557,309.780 336.736,310.000 336.600 C 310.220 336.464,310.400 335.924,310.400 335.400 C 310.400 334.876,310.580 334.336,310.800 334.200 C 311.020 334.064,311.200 333.601,311.200 333.171 C 311.200 332.741,311.367 332.077,311.571 331.695 C 312.279 330.369,312.510 329.393,312.425 328.099 C 312.369 327.263,312.548 326.718,312.925 326.573 C 313.280 326.437,313.430 326.035,313.304 325.556 C 313.177 325.070,313.374 324.561,313.811 324.242 C 314.266 323.909,314.445 323.417,314.306 322.886 C 314.174 322.378,314.306 321.968,314.644 321.838 C 314.971 321.713,315.200 321.053,315.200 320.236 C 315.200 319.472,315.363 318.746,315.563 318.623 C 315.762 318.500,316.049 317.500,316.200 316.400 C 316.351 315.300,316.638 314.300,316.837 314.177 C 317.037 314.054,317.200 313.513,317.200 312.976 C 317.200 312.439,317.380 312.000,317.600 312.000 C 317.820 312.000,318.000 311.291,318.000 310.424 C 318.000 309.557,318.180 308.736,318.400 308.600 C 318.620 308.464,318.800 307.913,318.800 307.376 C 318.800 306.839,318.980 306.400,319.200 306.400 C 319.420 306.400,319.600 305.890,319.600 305.267 C 319.600 304.643,319.723 304.010,319.874 303.859 C 320.313 303.420,321.187 300.681,321.194 299.724 C 321.197 299.242,321.380 298.736,321.600 298.600 C 321.820 298.464,322.000 297.823,322.000 297.176 C 322.000 296.529,322.180 296.000,322.400 296.000 C 322.620 296.000,322.800 295.460,322.800 294.800 C 322.800 294.140,322.980 293.600,323.200 293.600 C 323.420 293.600,323.600 292.981,323.600 292.224 C 323.600 291.467,323.763 290.746,323.963 290.623 C 324.162 290.500,324.451 289.487,324.604 288.371 C 324.762 287.219,325.124 286.250,325.441 286.129 C 325.749 286.011,326.000 285.404,326.000 284.781 C 326.000 284.157,326.180 283.536,326.400 283.400 C 326.620 283.264,326.800 282.770,326.800 282.303 C 326.800 281.596,327.727 278.501,328.688 276.000 C 328.815 275.670,328.877 274.981,328.827 274.468 C 328.776 273.955,329.042 273.196,329.417 272.781 C 329.797 272.361,330.009 271.677,329.894 271.239 C 329.774 270.778,329.919 270.363,330.244 270.238 C 330.550 270.121,330.800 269.580,330.800 269.036 C 330.800 268.492,330.980 267.936,331.200 267.800 C 331.420 267.664,331.600 267.124,331.600 266.600 C 331.600 266.076,331.760 265.548,331.956 265.427 C 332.151 265.306,332.411 264.621,332.533 263.904 C 332.952 261.443,333.772 258.200,334.026 258.000 C 334.166 257.890,334.406 257.260,334.558 256.600 C 334.711 255.940,335.019 254.680,335.243 253.800 C 335.466 252.920,335.749 251.705,335.870 251.100 C 335.991 250.495,336.250 250.000,336.445 250.000 C 336.640 250.000,336.800 249.561,336.800 249.024 C 336.800 248.487,336.980 247.936,337.200 247.800 C 337.420 247.664,337.600 246.944,337.600 246.200 C 337.600 245.456,337.780 244.736,338.000 244.600 C 338.220 244.464,338.400 243.924,338.400 243.400 C 338.400 242.876,338.580 242.336,338.800 242.200 C 339.020 242.064,339.200 241.513,339.200 240.976 C 339.200 240.439,339.380 240.000,339.600 240.000 C 339.820 240.000,340.000 239.460,340.000 238.800 C 340.000 238.140,340.180 237.600,340.400 237.600 C 340.620 237.600,340.800 236.968,340.800 236.195 C 340.800 235.422,340.980 234.432,341.200 233.995 C 341.420 233.558,341.780 232.842,342.000 232.405 C 342.220 231.968,342.400 231.169,342.400 230.629 C 342.400 230.089,342.580 229.536,342.800 229.400 C 343.020 229.264,343.200 228.634,343.200 228.000 C 343.200 227.366,343.397 226.725,343.638 226.577 C 343.878 226.428,343.995 225.886,343.897 225.373 C 343.791 224.820,343.939 224.356,344.259 224.233 C 344.557 224.118,344.800 223.580,344.800 223.036 C 344.800 222.492,344.980 221.936,345.200 221.800 C 345.420 221.664,345.600 221.124,345.600 220.600 C 345.600 220.076,345.756 219.551,345.947 219.433 C 346.138 219.314,346.417 218.134,346.567 216.809 C 346.717 215.484,347.011 214.400,347.220 214.400 C 347.429 214.400,347.600 213.879,347.600 213.243 C 347.600 212.606,347.856 211.987,348.169 211.867 C 348.528 211.729,348.654 211.330,348.512 210.784 C 348.376 210.266,348.508 209.780,348.840 209.575 C 349.165 209.375,349.344 208.744,349.271 208.056 C 349.204 207.409,349.340 206.761,349.574 206.616 C 349.808 206.471,350.000 205.823,350.000 205.176 C 350.000 204.529,350.180 204.000,350.400 204.000 C 350.620 204.000,350.800 203.460,350.800 202.800 C 350.800 202.140,350.980 201.600,351.200 201.600 C 351.420 201.600,351.600 200.981,351.600 200.224 C 351.600 199.467,351.780 198.736,352.000 198.600 C 352.220 198.464,352.400 197.823,352.400 197.176 C 352.400 196.529,352.580 196.000,352.800 196.000 C 353.020 196.000,353.200 195.561,353.200 195.024 C 353.200 194.487,353.380 193.936,353.600 193.800 C 353.820 193.664,354.000 193.113,354.000 192.576 C 354.000 192.039,354.180 191.600,354.400 191.600 C 354.620 191.600,354.800 190.891,354.800 190.024 C 354.800 189.157,354.980 188.336,355.200 188.200 C 355.420 188.064,355.600 187.549,355.600 187.056 C 355.600 186.563,355.749 185.989,355.930 185.780 C 356.112 185.571,356.486 184.590,356.762 183.600 C 357.893 179.536,359.766 173.775,360.072 173.420 C 360.253 173.211,360.400 172.446,360.400 171.720 C 360.400 170.994,360.580 170.400,360.800 170.400 C 361.020 170.400,361.200 169.860,361.200 169.200 C 361.200 168.540,361.380 168.000,361.600 168.000 C 361.820 168.000,362.000 167.460,362.000 166.800 C 362.000 166.140,362.163 165.600,362.363 165.600 C 362.562 165.600,362.626 165.222,362.505 164.759 C 362.377 164.269,362.514 163.777,362.834 163.579 C 363.168 163.372,363.338 162.711,363.267 161.889 C 363.193 161.036,363.381 160.348,363.775 160.020 C 364.119 159.735,364.400 159.175,364.400 158.775 C 364.400 158.375,364.580 157.936,364.800 157.800 C 365.020 157.664,365.200 157.124,365.200 156.600 C 365.200 156.076,365.397 155.525,365.638 155.376 C 365.879 155.227,366.005 154.497,365.919 153.753 C 365.832 153.009,365.904 152.400,366.080 152.400 C 366.256 152.400,366.400 151.860,366.400 151.200 C 366.400 150.540,366.580 150.000,366.800 150.000 C 367.020 150.000,367.200 149.561,367.200 149.024 C 367.200 148.487,367.380 147.936,367.600 147.800 C 367.820 147.664,368.000 147.124,368.000 146.600 C 368.000 146.076,368.180 145.536,368.400 145.400 C 368.620 145.264,368.800 144.544,368.800 143.800 C 368.800 143.056,368.980 142.336,369.200 142.200 C 369.420 142.064,369.600 141.524,369.600 141.000 C 369.600 140.476,369.780 139.936,370.000 139.800 C 370.220 139.664,370.400 139.113,370.400 138.576 C 370.400 138.039,370.580 137.600,370.800 137.600 C 371.020 137.600,371.200 136.981,371.200 136.224 C 371.200 135.467,371.380 134.736,371.600 134.600 C 371.820 134.464,372.000 133.823,372.000 133.176 C 372.000 132.529,372.180 132.000,372.400 132.000 C 372.620 132.000,372.803 131.685,372.806 131.300 C 372.813 130.482,373.727 127.739,374.126 127.341 C 374.277 127.190,374.400 126.467,374.400 125.733 C 374.400 125.000,374.555 124.400,374.745 124.400 C 374.934 124.400,375.003 123.952,374.899 123.405 C 374.770 122.732,374.917 122.330,375.354 122.162 C 375.738 122.015,376.000 121.455,376.000 120.781 C 376.000 120.157,376.180 119.536,376.400 119.400 C 376.620 119.264,376.800 118.533,376.800 117.776 C 376.800 117.019,376.980 116.400,377.200 116.400 C 377.420 116.400,377.600 115.961,377.600 115.424 C 377.600 114.887,377.780 114.336,378.000 114.200 C 378.220 114.064,378.400 113.524,378.400 113.000 C 378.400 112.476,378.556 111.951,378.746 111.833 C 378.937 111.715,379.012 111.199,378.914 110.685 C 378.809 110.136,378.996 109.535,379.368 109.227 C 379.716 108.938,380.000 108.195,380.000 107.575 C 380.000 106.955,380.180 106.336,380.400 106.200 C 380.620 106.064,380.800 105.524,380.800 105.000 C 380.800 104.476,380.980 103.936,381.200 103.800 C 381.420 103.664,381.600 103.124,381.600 102.600 C 381.600 102.076,381.780 101.536,382.000 101.400 C 382.220 101.264,382.400 100.724,382.400 100.200 C 382.400 99.676,382.556 99.151,382.747 99.033 C 382.938 98.914,383.217 97.739,383.366 96.421 C 383.515 95.103,383.809 93.918,384.018 93.789 C 384.228 93.659,384.400 93.124,384.400 92.600 C 384.400 92.076,384.580 91.536,384.800 91.400 C 385.020 91.264,385.200 90.634,385.200 90.000 C 385.200 89.366,385.380 88.736,385.600 88.600 C 385.820 88.464,386.000 87.924,386.000 87.400 C 386.000 86.876,386.180 86.336,386.400 86.200 C 386.620 86.064,386.800 85.423,386.800 84.776 C 386.800 84.129,386.980 83.600,387.200 83.600 C 387.420 83.600,387.600 83.161,387.600 82.624 C 387.600 82.087,387.780 81.536,388.000 81.400 C 388.220 81.264,388.400 80.544,388.400 79.800 C 388.400 79.056,388.580 78.336,388.800 78.200 C 389.020 78.064,389.200 77.513,389.200 76.976 C 389.200 76.439,389.380 76.000,389.600 76.000 C 389.820 76.000,390.000 75.471,390.000 74.824 C 390.000 74.177,390.180 73.536,390.400 73.400 C 390.620 73.264,390.800 72.544,390.800 71.800 C 390.800 71.056,390.980 70.336,391.200 70.200 C 391.420 70.064,391.600 69.524,391.600 69.000 C 391.600 68.476,391.780 67.936,392.000 67.800 C 392.220 67.664,392.400 67.113,392.400 66.576 C 392.400 66.039,392.580 65.600,392.800 65.600 C 393.020 65.600,393.200 65.071,393.200 64.424 C 393.200 63.777,393.380 63.136,393.600 63.000 C 393.820 62.864,394.000 62.221,394.000 61.571 C 394.000 60.921,394.180 60.032,394.400 59.595 C 394.620 59.158,394.980 58.442,395.200 58.005 C 395.420 57.568,395.600 56.859,395.600 56.429 C 395.600 55.999,395.797 55.525,396.038 55.376 C 396.279 55.227,396.405 54.497,396.319 53.753 C 396.232 53.009,396.304 52.400,396.480 52.400 C 396.656 52.400,396.800 51.961,396.800 51.424 C 396.800 50.887,396.980 50.336,397.200 50.200 C 397.420 50.064,397.600 49.513,397.600 48.976 C 397.600 48.439,397.780 48.000,398.000 48.000 C 398.220 48.000,398.400 47.471,398.400 46.824 C 398.400 46.177,398.580 45.536,398.800 45.400 C 399.020 45.264,399.200 44.533,399.200 43.776 C 399.200 43.019,399.380 42.400,399.600 42.400 C 399.843 42.400,400.000 40.600,400.000 37.800 C 400.000 35.270,399.864 33.200,399.698 33.200 C 399.531 33.200,399.144 32.615,398.837 31.900 C 397.846 29.597,395.216 27.251,393.300 26.964 C 392.365 26.824,391.600 26.505,391.600 26.255 C 391.600 25.632,385.164 25.629,384.925 26.252 M299.549 85.898 C 298.529 87.197,298.096 87.563,297.861 87.328 C 297.631 87.098,295.525 88.681,293.656 90.488 C 293.137 90.989,292.546 91.353,292.342 91.295 C 292.138 91.237,291.552 91.642,291.040 92.195 C 290.527 92.748,289.935 93.200,289.724 93.200 C 289.512 93.200,288.917 93.650,288.400 94.200 C 287.883 94.750,287.249 95.200,286.991 95.200 C 286.733 95.200,286.107 95.560,285.600 96.000 C 285.093 96.440,284.568 96.800,284.435 96.800 C 284.301 96.800,283.737 97.205,283.181 97.700 C 281.599 99.109,279.678 100.400,279.162 100.400 C 278.903 100.400,278.285 100.839,277.788 101.375 C 277.291 101.912,276.783 102.250,276.659 102.126 C 276.536 102.002,275.572 102.662,274.517 103.591 C 273.463 104.520,272.060 105.558,271.400 105.898 C 270.740 106.237,269.761 106.984,269.225 107.557 C 268.689 108.131,268.027 108.602,267.754 108.605 C 267.481 108.608,266.895 109.029,266.450 109.542 C 266.006 110.054,265.492 110.380,265.308 110.267 C 265.124 110.153,264.554 110.586,264.042 111.230 C 263.529 111.873,262.810 112.400,262.443 112.400 C 262.077 112.400,261.517 112.760,261.200 113.200 C 260.883 113.640,260.375 114.000,260.072 114.000 C 259.769 114.000,259.017 114.540,258.400 115.200 C 257.783 115.860,257.074 116.400,256.823 116.400 C 256.373 116.400,255.854 116.758,254.405 118.067 C 253.999 118.433,253.582 118.649,253.479 118.546 C 253.376 118.442,252.908 118.845,252.440 119.440 C 251.972 120.035,251.480 120.413,251.347 120.280 C 251.035 119.968,250.000 120.996,250.000 121.618 C 250.000 121.896,249.668 122.007,249.200 121.884 C 248.669 121.745,248.400 121.872,248.400 122.261 C 248.400 122.583,248.253 122.756,248.073 122.645 C 247.893 122.534,247.493 122.793,247.185 123.221 C 246.876 123.650,246.425 124.000,246.181 124.000 C 245.938 124.000,245.312 124.455,244.789 125.012 C 244.266 125.568,243.607 125.935,243.324 125.826 C 243.041 125.718,242.852 125.833,242.905 126.082 C 242.957 126.331,242.596 126.745,242.102 127.003 C 241.609 127.261,241.324 127.590,241.469 127.736 C 241.614 127.881,241.223 128.000,240.600 128.000 C 239.977 128.000,239.585 128.118,239.730 128.263 C 240.091 128.625,239.229 129.600,238.548 129.600 C 238.243 129.600,237.458 130.077,236.804 130.659 C 235.632 131.704,234.568 132.400,233.000 133.147 C 232.560 133.357,231.860 133.994,231.444 134.564 C 231.028 135.134,230.393 135.600,230.032 135.600 C 229.672 135.600,229.117 135.960,228.800 136.400 C 228.483 136.840,227.934 137.200,227.581 137.200 C 227.228 137.200,226.413 137.832,225.770 138.604 C 225.126 139.376,224.375 139.922,224.100 139.816 C 223.825 139.711,223.600 139.769,223.600 139.945 C 223.600 140.121,223.105 140.518,222.500 140.827 C 221.895 141.136,221.002 141.799,220.515 142.299 C 220.028 142.800,219.464 143.163,219.263 143.105 C 219.061 143.047,218.470 143.450,217.948 144.000 C 217.427 144.550,216.550 145.224,216.000 145.497 C 214.428 146.279,213.520 146.915,212.285 148.100 C 211.654 148.705,210.877 149.200,210.557 149.200 C 210.237 149.200,209.871 149.470,209.745 149.800 C 209.618 150.130,209.187 150.400,208.786 150.400 C 208.386 150.400,207.730 150.805,207.329 151.300 C 206.550 152.262,203.460 154.400,202.850 154.400 C 202.648 154.400,201.913 155.049,201.217 155.842 C 200.520 156.635,199.848 157.181,199.722 157.056 C 199.597 156.930,199.136 157.282,198.699 157.838 C 198.261 158.394,197.690 158.767,197.429 158.666 C 197.167 158.566,196.539 159.005,196.032 159.642 C 195.525 160.279,194.810 160.800,194.443 160.800 C 194.077 160.800,193.517 161.160,193.200 161.600 C 192.883 162.040,192.395 162.400,192.115 162.400 C 191.836 162.400,191.091 162.940,190.460 163.600 C 189.829 164.260,189.108 164.800,188.857 164.800 C 188.606 164.800,188.400 164.980,188.400 165.200 C 188.400 165.420,188.119 165.600,187.776 165.600 C 187.433 165.600,187.264 165.780,187.400 166.000 C 187.536 166.220,187.349 166.400,186.984 166.400 C 186.619 166.400,185.822 166.934,185.213 167.586 C 184.604 168.238,183.994 168.661,183.859 168.525 C 183.723 168.390,183.135 168.756,182.552 169.339 C 181.968 169.923,181.250 170.400,180.955 170.400 C 180.660 170.400,180.124 170.850,179.763 171.400 C 179.403 171.950,178.773 172.400,178.363 172.400 C 177.954 172.400,177.325 172.848,176.965 173.397 C 176.606 173.945,176.153 174.295,175.958 174.174 C 175.763 174.054,175.162 174.431,174.622 175.014 C 174.083 175.596,173.474 175.970,173.271 175.844 C 173.067 175.718,172.570 176.056,172.165 176.594 C 171.761 177.133,170.941 177.776,170.344 178.023 C 169.746 178.271,169.160 178.727,169.041 179.037 C 168.922 179.346,168.576 179.600,168.272 179.600 C 167.968 179.600,167.154 180.140,166.463 180.800 C 165.772 181.460,164.942 182.000,164.618 182.000 C 164.293 182.000,163.839 182.353,163.608 182.785 C 163.377 183.217,162.956 183.481,162.672 183.372 C 162.388 183.263,161.669 183.720,161.075 184.387 C 160.480 185.054,159.817 185.600,159.601 185.600 C 159.033 185.600,154.400 189.188,154.400 189.629 C 154.400 189.833,154.062 190.000,153.649 190.000 C 153.236 190.000,152.674 190.270,152.400 190.600 C 152.126 190.930,151.734 191.200,151.528 191.200 C 151.323 191.200,150.670 191.702,150.077 192.316 C 149.485 192.930,148.505 193.680,147.900 193.984 C 147.295 194.287,146.800 194.685,146.800 194.868 C 146.800 195.050,146.485 195.202,146.100 195.204 C 145.715 195.206,144.975 195.746,144.455 196.404 C 143.935 197.062,143.210 197.600,142.843 197.600 C 142.477 197.600,141.917 197.960,141.600 198.400 C 141.283 198.840,140.769 199.200,140.459 199.200 C 140.148 199.200,139.603 199.533,139.247 199.941 C 138.891 200.348,138.015 200.983,137.300 201.351 C 136.585 201.719,136.000 202.196,136.000 202.410 C 136.000 202.625,135.640 202.800,135.200 202.800 C 134.720 202.800,134.400 203.067,134.400 203.467 C 134.400 203.833,134.289 204.022,134.152 203.886 C 133.859 203.593,132.800 204.570,132.800 205.134 C 132.800 205.349,132.440 205.431,132.000 205.316 C 131.435 205.168,131.200 205.304,131.200 205.777 C 131.200 206.146,131.039 206.348,130.842 206.226 C 130.645 206.104,130.373 206.292,130.239 206.644 C 130.099 207.008,129.737 207.185,129.397 207.054 C 129.018 206.909,128.800 207.064,128.800 207.479 C 128.800 207.839,128.689 208.022,128.552 207.886 C 128.236 207.570,127.200 208.591,127.200 209.218 C 127.200 209.494,126.870 209.607,126.414 209.488 C 125.948 209.366,125.663 209.469,125.714 209.741 C 125.761 209.993,125.575 210.155,125.300 210.100 C 125.025 210.045,124.800 210.180,124.800 210.400 C 124.800 210.620,124.545 210.800,124.233 210.800 C 123.922 210.800,123.591 211.025,123.498 211.300 C 123.372 211.674,123.188 211.687,122.765 211.352 C 122.454 211.106,121.516 210.781,120.679 210.630 C 119.842 210.479,119.068 210.122,118.959 209.837 C 118.844 209.538,118.366 209.394,117.827 209.497 C 117.314 209.595,116.772 209.478,116.623 209.238 C 116.475 208.997,115.978 208.800,115.520 208.800 C 115.063 208.800,114.488 208.526,114.243 208.191 C 113.998 207.856,113.078 207.474,112.199 207.342 C 111.319 207.211,110.420 206.900,110.200 206.651 C 109.497 205.858,107.674 205.086,107.060 205.322 C 106.733 205.447,106.367 205.291,106.246 204.975 C 106.124 204.659,105.665 204.400,105.225 204.400 C 104.785 204.400,103.760 204.027,102.947 203.570 C 102.135 203.114,101.139 202.827,100.735 202.933 C 100.331 203.039,100.000 202.975,100.000 202.792 C 100.000 202.348,97.665 201.200,96.762 201.200 C 96.369 201.200,95.946 201.036,95.822 200.835 C 95.697 200.634,94.877 200.348,93.998 200.200 C 93.119 200.051,92.400 199.766,92.400 199.565 C 92.400 199.364,91.905 199.196,91.300 199.191 C 90.695 199.186,89.750 198.830,89.200 198.400 C 88.650 197.970,87.890 197.614,87.512 197.609 C 87.134 197.604,86.183 197.240,85.400 196.800 C 84.617 196.360,83.632 196.000,83.211 196.000 C 82.791 196.000,82.336 195.820,82.200 195.600 C 82.064 195.380,81.549 195.200,81.056 195.200 C 80.021 195.200,78.008 194.343,78.003 193.900 C 78.001 193.735,77.494 193.600,76.876 193.600 C 76.259 193.600,75.404 193.336,74.976 193.013 C 74.549 192.690,73.817 192.420,73.349 192.413 C 72.881 192.406,72.274 192.130,72.000 191.800 C 71.726 191.470,71.074 191.200,70.551 191.200 C 70.028 191.200,69.600 191.026,69.600 190.813 C 69.600 190.599,69.348 190.522,69.040 190.640 C 68.733 190.758,68.362 190.662,68.217 190.427 C 68.072 190.192,67.533 190.000,67.019 190.000 C 66.506 190.000,65.983 189.733,65.858 189.407 C 65.733 189.080,65.382 188.909,65.079 189.025 C 64.776 189.141,64.297 188.958,64.015 188.618 C 63.733 188.278,63.175 188.000,62.775 188.000 C 62.375 188.000,61.936 187.820,61.800 187.600 C 61.664 187.380,61.209 187.200,60.789 187.200 C 60.368 187.200,59.383 186.840,58.600 186.400 C 57.817 185.960,56.731 185.600,56.188 185.600 C 55.645 185.600,55.200 185.464,55.200 185.298 C 55.200 184.821,52.838 183.900,52.222 184.136 C 51.916 184.254,51.576 184.113,51.465 183.825 C 51.354 183.536,50.439 183.177,49.432 183.026 C 48.424 182.875,47.600 182.582,47.600 182.375 C 47.600 182.169,47.285 181.996,46.900 181.991 C 46.515 181.986,46.830 181.700,47.600 181.355 C 48.370 181.010,49.313 180.564,49.695 180.364 C 50.077 180.164,50.730 180.000,51.146 180.000 C 51.562 180.000,52.127 179.728,52.403 179.396 C 52.678 179.064,53.605 178.681,54.461 178.544 C 55.317 178.407,56.114 178.139,56.232 177.947 C 56.351 177.756,56.887 177.600,57.424 177.600 C 57.961 177.600,58.400 177.445,58.400 177.255 C 58.400 177.065,59.390 176.598,60.600 176.218 C 61.810 175.837,62.800 175.373,62.800 175.187 C 62.800 175.001,63.610 174.728,64.600 174.579 C 65.590 174.431,66.400 174.150,66.400 173.955 C 66.400 173.760,66.940 173.600,67.600 173.600 C 68.260 173.600,68.801 173.465,68.803 173.300 C 68.808 172.853,70.826 172.000,71.880 172.000 C 72.386 172.000,72.800 171.820,72.800 171.600 C 72.800 171.380,73.160 171.200,73.600 171.200 C 74.040 171.200,74.400 171.020,74.400 170.800 C 74.400 170.580,74.940 170.400,75.600 170.400 C 76.260 170.400,76.800 170.220,76.800 170.000 C 76.800 169.780,77.155 169.600,77.588 169.600 C 78.021 169.600,79.017 169.240,79.800 168.800 C 80.583 168.360,81.568 168.000,81.989 168.000 C 82.409 168.000,82.864 167.820,83.000 167.600 C 83.136 167.380,83.561 167.200,83.944 167.200 C 84.757 167.200,86.792 166.312,86.797 165.955 C 86.799 165.821,87.248 165.797,87.795 165.901 C 88.456 166.027,88.870 165.883,89.028 165.471 C 89.159 165.130,89.498 164.939,89.781 165.048 C 90.065 165.157,90.399 164.980,90.524 164.654 C 90.659 164.303,91.063 164.144,91.516 164.262 C 91.937 164.372,92.584 164.159,92.955 163.788 C 93.325 163.417,93.971 163.204,94.388 163.313 C 94.809 163.423,95.239 163.276,95.351 162.984 C 95.462 162.694,96.374 162.333,97.377 162.183 C 98.380 162.032,99.200 161.750,99.200 161.555 C 99.200 161.360,99.740 161.200,100.400 161.200 C 101.060 161.200,101.600 161.020,101.600 160.800 C 101.600 160.580,101.960 160.400,102.400 160.400 C 102.840 160.400,103.200 160.220,103.200 160.000 C 103.200 159.780,103.740 159.600,104.400 159.600 C 105.060 159.600,105.600 159.420,105.600 159.200 C 105.600 158.980,105.960 158.800,106.400 158.800 C 106.840 158.800,107.200 158.620,107.200 158.400 C 107.200 158.180,107.639 158.000,108.176 158.000 C 108.713 158.000,109.264 157.820,109.400 157.600 C 109.536 157.380,110.087 157.200,110.624 157.200 C 111.161 157.200,111.600 157.020,111.600 156.800 C 111.600 156.580,111.960 156.400,112.400 156.400 C 112.840 156.400,113.200 156.220,113.200 156.000 C 113.200 155.780,113.652 155.600,114.205 155.600 C 114.758 155.600,115.523 155.443,115.905 155.250 C 118.998 153.692,120.176 153.200,120.814 153.200 C 121.220 153.200,121.664 153.020,121.800 152.800 C 121.936 152.580,122.397 152.400,122.824 152.400 C 123.251 152.400,123.600 152.220,123.600 152.000 C 123.600 151.780,124.140 151.600,124.800 151.600 C 125.460 151.600,126.000 151.420,126.000 151.200 C 126.000 150.980,126.439 150.800,126.976 150.800 C 127.513 150.800,128.064 150.620,128.200 150.400 C 128.336 150.180,128.797 150.000,129.224 150.000 C 129.651 150.000,130.000 149.820,130.000 149.600 C 130.000 149.380,130.355 149.200,130.788 149.200 C 131.221 149.200,132.217 148.840,133.000 148.400 C 133.783 147.960,134.779 147.600,135.212 147.600 C 135.645 147.600,136.000 147.420,136.000 147.200 C 136.000 146.980,136.495 146.799,137.100 146.798 C 137.705 146.796,138.716 146.526,139.346 146.198 C 139.976 145.869,140.743 145.600,141.051 145.600 C 141.359 145.600,141.923 145.441,142.305 145.247 C 142.687 145.052,143.450 144.716,144.000 144.500 C 144.550 144.284,145.450 143.915,146.000 143.680 C 146.550 143.445,147.675 143.025,148.500 142.746 C 149.325 142.467,150.000 142.095,150.000 141.920 C 150.000 141.744,150.439 141.600,150.976 141.600 C 151.513 141.600,152.064 141.420,152.200 141.200 C 152.336 140.980,152.977 140.800,153.624 140.800 C 154.271 140.800,154.800 140.620,154.800 140.400 C 154.800 140.180,155.160 140.000,155.600 140.000 C 156.040 140.000,156.400 139.820,156.400 139.600 C 156.400 139.380,156.940 139.200,157.600 139.200 C 158.260 139.200,158.800 139.020,158.800 138.800 C 158.800 138.580,159.340 138.400,160.000 138.400 C 160.660 138.400,161.201 138.265,161.203 138.100 C 161.207 137.694,163.186 136.800,164.080 136.800 C 164.476 136.800,164.800 136.620,164.800 136.400 C 164.800 136.180,165.149 136.000,165.576 136.000 C 166.003 136.000,166.464 135.820,166.600 135.600 C 166.736 135.380,167.251 135.200,167.744 135.200 C 168.237 135.200,168.811 135.052,169.020 134.871 C 169.229 134.690,170.480 134.210,171.800 133.805 C 175.117 132.787,176.400 132.257,176.400 131.902 C 176.400 131.736,176.839 131.600,177.376 131.600 C 177.913 131.600,178.464 131.420,178.600 131.200 C 178.736 130.980,179.377 130.800,180.024 130.800 C 180.671 130.800,181.200 130.620,181.200 130.400 C 181.200 130.180,181.448 130.000,181.751 130.000 C 182.054 130.000,182.510 129.750,182.764 129.443 C 183.018 129.137,184.049 128.763,185.056 128.613 C 186.062 128.462,187.502 127.992,188.255 127.569 C 189.008 127.146,189.917 126.800,190.274 126.800 C 190.632 126.800,191.484 126.373,192.169 125.851 C 192.853 125.329,194.220 124.772,195.207 124.613 C 196.193 124.454,197.595 123.981,198.323 123.562 C 199.050 123.143,199.998 122.800,200.428 122.800 C 200.859 122.800,201.523 122.643,201.905 122.450 C 205.094 120.844,206.205 120.400,207.038 120.400 C 207.567 120.400,208.001 120.265,208.003 120.100 C 208.008 119.653,210.026 118.800,211.080 118.800 C 211.586 118.800,212.000 118.620,212.000 118.400 C 212.000 118.180,212.355 118.000,212.788 118.000 C 213.221 118.000,214.217 117.640,215.000 117.200 C 215.783 116.760,216.779 116.400,217.212 116.400 C 217.645 116.400,218.000 116.226,218.000 116.013 C 218.000 115.799,218.252 115.722,218.560 115.840 C 218.867 115.958,219.238 115.862,219.383 115.627 C 219.528 115.392,220.092 115.200,220.636 115.200 C 221.180 115.200,221.721 114.950,221.838 114.644 C 221.968 114.306,222.378 114.174,222.886 114.306 C 223.414 114.445,223.908 114.267,224.233 113.822 C 224.516 113.436,224.940 113.239,225.176 113.385 C 225.412 113.531,225.705 113.392,225.826 113.077 C 225.949 112.757,226.834 112.394,227.824 112.259 C 228.802 112.125,230.315 111.652,231.185 111.207 C 232.056 110.763,233.135 110.400,233.584 110.400 C 234.033 110.400,234.400 110.220,234.400 110.000 C 234.400 109.780,234.760 109.600,235.200 109.600 C 235.640 109.600,236.000 109.420,236.000 109.200 C 236.000 108.980,236.540 108.800,237.200 108.800 C 237.860 108.800,238.400 108.620,238.400 108.400 C 238.400 108.180,238.940 108.000,239.600 108.000 C 240.260 108.000,240.800 107.820,240.800 107.600 C 240.800 107.380,241.160 107.200,241.600 107.200 C 242.040 107.200,242.400 107.020,242.400 106.800 C 242.400 106.580,242.839 106.400,243.376 106.400 C 243.913 106.400,244.464 106.220,244.600 106.000 C 244.736 105.780,245.191 105.600,245.611 105.600 C 246.032 105.600,247.017 105.240,247.800 104.800 C 248.583 104.360,249.579 104.000,250.012 104.000 C 250.445 104.000,250.800 103.856,250.800 103.680 C 250.800 103.306,253.154 102.400,254.128 102.400 C 254.498 102.400,254.800 102.220,254.800 102.000 C 254.800 101.780,255.340 101.600,256.000 101.600 C 256.660 101.600,257.201 101.465,257.203 101.300 C 257.208 100.853,259.226 100.000,260.280 100.000 C 260.786 100.000,261.200 99.820,261.200 99.600 C 261.200 99.380,261.555 99.200,261.988 99.200 C 262.421 99.200,263.417 98.840,264.200 98.400 C 264.983 97.960,265.868 97.600,266.166 97.600 C 266.465 97.600,267.224 97.331,267.854 97.002 C 268.484 96.674,269.394 96.404,269.876 96.402 C 270.358 96.401,270.864 96.220,271.000 96.000 C 271.136 95.780,271.561 95.600,271.944 95.600 C 272.819 95.600,274.793 94.701,274.797 94.300 C 274.799 94.135,275.340 94.000,276.000 94.000 C 276.660 94.000,277.200 93.820,277.200 93.600 C 277.200 93.380,277.530 93.200,277.933 93.200 C 278.337 93.200,278.790 93.077,278.941 92.926 C 279.339 92.527,282.082 91.613,282.900 91.606 C 283.285 91.603,283.600 91.420,283.600 91.200 C 283.600 90.980,283.960 90.800,284.400 90.800 C 284.840 90.800,285.200 90.620,285.200 90.400 C 285.200 90.180,285.639 90.000,286.176 90.000 C 286.713 90.000,287.264 89.820,287.400 89.600 C 287.536 89.380,288.177 89.200,288.824 89.200 C 289.471 89.200,290.000 89.020,290.000 88.800 C 290.000 88.580,290.360 88.400,290.800 88.400 C 291.240 88.400,291.600 88.220,291.600 88.000 C 291.600 87.780,292.140 87.600,292.800 87.600 C 293.460 87.600,294.001 87.465,294.003 87.300 C 294.007 86.899,295.981 86.000,296.856 86.000 C 297.239 86.000,297.664 85.820,297.800 85.600 C 297.936 85.380,298.509 85.200,299.073 85.200 C 299.991 85.200,300.041 85.273,299.549 85.898 M360.561 87.300 C 360.414 88.455,360.155 89.580,359.985 89.800 C 359.815 90.020,359.610 90.650,359.529 91.200 C 359.448 91.750,359.187 92.164,358.950 92.120 C 358.698 92.073,358.596 92.445,358.705 93.015 C 358.830 93.668,358.678 94.072,358.246 94.238 C 357.804 94.407,357.600 94.979,357.600 96.043 C 357.600 96.899,357.445 97.600,357.255 97.600 C 357.066 97.600,356.997 98.048,357.101 98.595 C 357.230 99.268,357.083 99.670,356.646 99.838 C 356.291 99.974,356.000 100.519,356.000 101.048 C 356.000 101.578,355.792 102.413,355.538 102.905 C 354.506 104.900,354.400 105.245,354.400 106.595 C 354.400 107.368,354.220 108.000,354.000 108.000 C 353.780 108.000,353.600 108.439,353.600 108.976 C 353.600 109.513,353.420 110.064,353.200 110.200 C 352.980 110.336,352.800 110.876,352.800 111.400 C 352.800 111.924,352.620 112.464,352.400 112.600 C 352.180 112.736,352.000 113.456,352.000 114.200 C 352.000 114.944,351.803 115.675,351.562 115.823 C 351.322 115.972,351.205 116.514,351.303 117.027 C 351.414 117.607,351.260 118.045,350.895 118.185 C 350.519 118.329,350.376 118.763,350.497 119.393 C 350.600 119.933,350.530 120.281,350.342 120.164 C 350.154 120.048,350.000 120.604,350.000 121.400 C 350.000 122.263,349.839 122.747,349.600 122.600 C 349.362 122.453,349.200 122.931,349.200 123.782 C 349.200 124.568,349.020 125.568,348.800 126.005 C 348.580 126.442,348.220 127.158,348.000 127.595 C 347.780 128.032,347.600 128.664,347.600 129.000 C 347.600 129.336,347.438 129.923,347.239 130.305 C 347.040 130.687,346.668 131.810,346.411 132.800 C 346.154 133.790,345.597 135.704,345.172 137.053 C 344.747 138.401,344.400 139.807,344.400 140.176 C 344.400 140.545,344.220 140.736,344.000 140.600 C 343.758 140.451,343.600 140.996,343.600 141.976 C 343.600 142.869,343.445 143.600,343.255 143.600 C 343.066 143.600,342.997 144.048,343.101 144.595 C 343.224 145.237,343.083 145.670,342.705 145.815 C 342.331 145.959,342.186 146.393,342.305 147.015 C 342.430 147.668,342.278 148.072,341.846 148.238 C 341.491 148.374,341.200 148.886,341.200 149.376 C 341.200 149.866,341.070 150.396,340.912 150.555 C 340.753 150.713,340.675 151.439,340.738 152.169 C 340.813 153.037,340.653 153.571,340.276 153.716 C 339.901 153.859,339.768 154.296,339.895 154.963 C 340.024 155.637,339.889 156.068,339.505 156.215 C 339.131 156.359,338.986 156.793,339.105 157.415 C 339.230 158.068,339.078 158.472,338.646 158.638 C 338.204 158.807,338.000 159.379,338.000 160.443 C 338.000 161.299,337.820 162.000,337.600 162.000 C 337.380 162.000,337.200 162.439,337.200 162.976 C 337.200 163.513,337.003 164.075,336.762 164.223 C 336.522 164.372,336.405 164.914,336.503 165.427 C 336.614 166.007,336.460 166.445,336.095 166.585 C 335.721 166.729,335.576 167.163,335.695 167.785 C 335.809 168.379,335.670 168.841,335.341 168.967 C 335.043 169.082,334.800 169.710,334.800 170.364 C 334.800 171.018,334.620 171.664,334.400 171.800 C 334.180 171.936,334.000 172.566,334.000 173.200 C 334.000 173.834,333.841 174.451,333.646 174.571 C 333.452 174.692,333.171 175.598,333.023 176.586 C 332.875 177.573,332.584 178.486,332.377 178.614 C 332.170 178.742,332.000 179.557,332.000 180.424 C 332.000 181.291,331.840 182.000,331.645 182.000 C 331.450 182.000,331.174 182.585,331.031 183.300 C 330.406 186.424,330.290 186.800,329.955 186.800 C 329.760 186.800,329.600 187.419,329.600 188.176 C 329.600 188.933,329.420 189.664,329.200 189.800 C 328.980 189.936,328.800 190.487,328.800 191.024 C 328.800 191.561,328.620 192.000,328.400 192.000 C 328.180 192.000,328.000 192.540,328.000 193.200 C 328.000 193.860,327.820 194.400,327.600 194.400 C 327.380 194.400,327.200 194.940,327.200 195.600 C 327.200 196.260,327.051 196.800,326.869 196.800 C 326.687 196.800,326.621 197.364,326.723 198.054 C 326.849 198.914,326.713 199.417,326.291 199.653 C 325.903 199.870,325.757 200.314,325.897 200.850 C 326.038 201.387,325.890 201.830,325.497 202.050 C 325.101 202.271,324.956 202.711,325.099 203.259 C 325.237 203.783,325.089 204.292,324.721 204.561 C 324.379 204.811,323.992 206.001,323.830 207.302 C 323.672 208.566,323.266 209.877,322.928 210.215 C 322.591 210.552,322.407 211.182,322.520 211.614 C 322.642 212.082,322.525 212.400,322.232 212.400 C 321.911 212.400,321.800 212.820,321.915 213.600 C 322.048 214.510,321.935 214.800,321.445 214.800 C 320.959 214.800,320.800 215.194,320.800 216.400 C 320.800 217.280,320.645 218.000,320.455 218.000 C 320.266 218.000,320.197 218.448,320.301 218.995 C 320.424 219.637,320.283 220.070,319.905 220.215 C 319.547 220.352,319.386 220.792,319.491 221.344 C 319.591 221.863,319.394 222.473,319.032 222.773 C 318.684 223.062,318.400 223.805,318.400 224.425 C 318.400 225.045,318.203 225.675,317.962 225.823 C 317.722 225.972,317.608 226.527,317.709 227.057 C 317.810 227.587,317.685 228.151,317.432 228.310 C 316.975 228.597,316.147 231.610,315.732 234.500 C 315.613 235.325,315.355 236.000,315.158 236.000 C 314.961 236.000,314.800 236.551,314.800 237.224 C 314.800 237.937,314.633 238.344,314.400 238.200 C 314.167 238.056,314.000 238.455,314.000 239.153 C 314.000 239.813,313.820 240.464,313.600 240.600 C 313.380 240.736,313.200 241.287,313.200 241.824 C 313.200 242.361,313.020 242.800,312.800 242.800 C 312.580 242.800,312.400 243.520,312.400 244.400 C 312.400 245.280,312.220 246.000,312.000 246.000 C 311.780 246.000,311.600 246.504,311.600 247.120 C 311.600 247.736,311.415 248.425,311.189 248.651 C 310.964 248.876,310.667 250.037,310.529 251.231 C 310.392 252.424,310.061 253.530,309.794 253.690 C 309.523 253.851,309.393 254.427,309.500 254.990 C 309.613 255.582,309.509 256.000,309.247 256.000 C 309.001 256.000,308.800 256.531,308.800 257.180 C 308.800 257.861,308.521 258.517,308.140 258.730 C 307.714 258.968,307.559 259.400,307.703 259.949 C 307.841 260.477,307.738 260.800,307.432 260.800 C 307.106 260.800,307.001 261.229,307.124 262.065 C 307.257 262.967,307.107 263.479,306.605 263.846 C 306.134 264.190,305.964 264.701,306.094 265.381 C 306.226 266.069,306.112 266.400,305.745 266.400 C 305.434 266.400,305.200 266.819,305.200 267.376 C 305.200 267.913,305.020 268.464,304.800 268.600 C 304.580 268.736,304.400 269.557,304.400 270.424 C 304.400 271.291,304.220 272.000,304.000 272.000 C 303.780 272.000,303.600 272.439,303.600 272.976 C 303.600 273.513,303.420 274.064,303.200 274.200 C 302.980 274.336,302.800 274.876,302.800 275.400 C 302.800 275.924,302.603 276.475,302.362 276.623 C 302.122 276.772,302.008 277.327,302.109 277.857 C 302.223 278.453,302.064 278.948,301.693 279.156 C 301.290 279.382,301.153 279.897,301.275 280.730 C 301.387 281.496,301.267 282.042,300.960 282.160 C 300.687 282.265,300.339 283.350,300.186 284.571 C 300.034 285.792,299.749 286.692,299.554 286.572 C 299.360 286.451,299.200 287.004,299.200 287.800 C 299.200 288.663,299.039 289.147,298.800 289.000 C 298.558 288.851,298.400 289.396,298.400 290.376 C 298.400 291.269,298.220 292.000,298.000 292.000 C 297.780 292.000,297.600 292.540,297.600 293.200 C 297.600 293.860,297.420 294.400,297.200 294.400 C 296.980 294.400,296.800 294.940,296.800 295.600 C 296.800 296.260,296.620 296.800,296.400 296.800 C 296.180 296.800,296.000 297.520,296.000 298.400 C 296.000 299.280,295.820 300.000,295.600 300.000 C 295.380 300.000,295.200 300.439,295.200 300.976 C 295.200 301.513,295.041 302.051,294.846 302.171 C 294.477 302.399,294.376 302.784,293.471 307.400 C 293.169 308.940,292.741 310.164,292.520 310.120 C 292.299 310.076,292.202 310.478,292.305 311.015 C 292.430 311.668,292.278 312.072,291.846 312.238 C 291.457 312.387,291.200 312.947,291.200 313.643 C 291.200 314.279,291.056 314.800,290.880 314.800 C 290.704 314.800,290.634 315.428,290.724 316.196 C 290.837 317.165,290.708 317.660,290.303 317.816 C 289.930 317.959,289.786 318.394,289.906 319.020 C 290.014 319.587,289.905 320.000,289.647 320.000 C 289.401 320.000,289.200 320.540,289.200 321.200 C 289.200 321.860,289.023 322.400,288.808 322.400 C 288.592 322.400,288.297 322.895,288.152 323.500 C 288.008 324.105,287.720 324.816,287.513 325.080 C 287.305 325.344,287.194 326.116,287.265 326.796 C 287.343 327.540,287.174 328.169,286.840 328.375 C 286.513 328.577,286.376 329.066,286.506 329.564 C 286.706 330.325,286.575 330.289,285.206 329.205 C 284.370 328.542,283.480 328.000,283.230 328.000 C 282.980 328.000,282.671 327.730,282.545 327.400 C 282.418 327.070,282.079 326.800,281.792 326.800 C 281.504 326.800,280.620 326.170,279.827 325.400 C 279.034 324.630,278.146 324.000,277.853 324.000 C 277.559 324.000,276.915 323.472,276.421 322.827 C 275.927 322.183,275.290 321.744,275.007 321.853 C 274.723 321.962,274.098 321.499,273.618 320.825 C 273.138 320.151,272.482 319.600,272.161 319.600 C 271.839 319.600,271.022 318.970,270.346 318.200 C 269.670 317.430,268.865 316.800,268.556 316.800 C 268.247 316.800,267.603 316.350,267.125 315.800 C 266.647 315.250,266.063 314.799,265.828 314.798 C 265.593 314.797,264.825 314.257,264.122 313.598 C 263.419 312.939,262.678 312.400,262.476 312.400 C 262.274 312.400,261.680 311.971,261.155 311.448 C 260.630 310.924,259.875 310.429,259.479 310.348 C 259.082 310.266,258.812 310.080,258.879 309.932 C 259.024 309.613,256.753 307.601,256.247 307.600 C 256.053 307.600,255.563 307.219,255.159 306.753 C 254.735 306.263,254.165 306.004,253.812 306.140 C 253.427 306.288,253.200 306.148,253.200 305.764 C 253.200 305.428,253.020 305.264,252.800 305.400 C 252.580 305.536,252.400 305.410,252.400 305.120 C 252.400 304.462,250.902 303.489,250.384 303.810 C 250.173 303.940,249.995 303.812,249.989 303.524 C 249.983 303.236,249.339 302.550,248.559 302.000 C 247.779 301.450,246.712 300.595,246.188 300.100 C 245.665 299.605,245.047 299.200,244.815 299.200 C 244.583 299.200,243.828 298.660,243.137 298.000 C 242.446 297.340,241.672 296.800,241.416 296.800 C 241.159 296.800,240.432 296.260,239.800 295.600 C 239.168 294.940,238.496 294.400,238.307 294.400 C 238.118 294.400,237.514 293.950,236.964 293.400 C 236.414 292.850,235.746 292.400,235.479 292.400 C 235.213 292.400,234.428 291.783,233.736 291.028 C 233.043 290.274,232.372 289.761,232.244 289.889 C 232.116 290.017,231.636 289.645,231.177 289.061 C 230.718 288.477,230.119 288.000,229.846 288.000 C 229.574 288.000,229.002 287.685,228.575 287.300 C 228.148 286.915,227.140 286.108,226.334 285.506 C 225.529 284.904,224.575 284.118,224.216 283.758 C 223.856 283.399,223.463 283.204,223.341 283.325 C 223.220 283.447,222.604 283.018,221.974 282.373 C 221.343 281.728,220.675 281.200,220.488 281.200 C 220.302 281.200,219.632 280.660,219.000 280.000 C 218.368 279.340,217.551 278.800,217.185 278.800 C 216.819 278.800,216.115 278.272,215.621 277.627 C 215.127 276.983,214.496 276.542,214.220 276.648 C 213.944 276.753,213.412 276.373,213.038 275.802 C 212.664 275.231,211.872 274.557,211.279 274.304 C 210.685 274.052,209.840 273.471,209.400 273.013 C 208.960 272.556,208.105 271.965,207.500 271.699 C 206.895 271.434,206.400 271.033,206.400 270.809 C 206.400 270.584,206.165 270.400,205.878 270.400 C 205.592 270.400,204.744 269.768,203.995 268.995 C 203.246 268.222,202.459 267.647,202.246 267.718 C 202.034 267.789,201.377 267.341,200.787 266.723 C 200.196 266.105,199.496 265.600,199.231 265.600 C 198.965 265.600,198.294 265.060,197.739 264.400 C 197.183 263.740,196.546 263.200,196.322 263.200 C 195.571 263.200,193.741 261.378,193.928 260.816 C 194.030 260.511,197.058 257.363,200.656 253.821 C 204.255 250.280,207.200 247.173,207.200 246.918 C 207.200 246.664,210.530 243.127,214.600 239.059 C 218.670 234.991,222.000 231.463,222.000 231.220 C 222.000 230.977,225.150 227.650,229.000 223.828 C 232.850 220.006,236.000 216.696,236.000 216.473 C 236.000 216.250,239.150 212.920,243.000 209.073 C 246.850 205.226,250.000 201.890,250.000 201.660 C 250.000 201.429,253.273 197.994,257.273 194.026 C 261.272 190.058,264.450 186.717,264.334 186.601 C 264.218 186.485,267.333 183.197,271.258 179.295 C 275.182 175.393,278.394 172.000,278.396 171.755 C 278.398 171.510,281.730 168.006,285.800 163.968 C 289.870 159.929,293.200 156.480,293.200 156.302 C 293.200 155.741,301.141 147.587,305.900 143.261 C 306.615 142.611,307.204 141.836,307.210 141.540 C 307.215 141.243,310.365 137.862,314.210 134.028 C 318.054 130.193,321.200 126.906,321.200 126.724 C 321.200 126.542,324.350 123.203,328.200 119.304 C 332.050 115.405,335.200 112.069,335.200 111.891 C 335.200 111.714,338.350 108.410,342.200 104.549 C 346.050 100.689,349.200 97.359,349.200 97.149 C 349.200 96.839,360.325 85.321,360.714 85.227 C 360.776 85.212,360.707 86.145,360.561 87.300 M287.400 126.281 C 286.080 127.493,284.997 128.702,284.993 128.967 C 284.989 129.233,281.794 132.633,277.893 136.524 C 273.992 140.415,270.800 143.785,270.800 144.013 C 270.800 144.242,267.470 147.748,263.400 151.805 C 259.330 155.862,256.000 159.356,256.000 159.569 C 256.000 159.782,252.940 163.031,249.200 166.788 C 245.460 170.546,242.400 173.814,242.400 174.051 C 242.400 174.288,239.160 177.670,235.200 181.567 C 231.240 185.465,228.000 188.967,228.000 189.350 C 228.000 189.734,227.820 189.936,227.600 189.800 C 227.380 189.664,227.200 189.781,227.200 190.060 C 227.200 190.745,224.374 193.600,223.695 193.600 C 223.397 193.600,223.264 193.780,223.400 194.000 C 223.536 194.220,223.367 194.400,223.024 194.400 C 222.681 194.400,222.443 194.535,222.496 194.700 C 222.549 194.865,220.659 196.911,218.296 199.247 C 215.933 201.583,214.000 203.799,214.000 204.171 C 214.000 204.543,213.820 204.736,213.600 204.600 C 213.380 204.464,213.200 204.498,213.200 204.676 C 213.199 205.130,211.201 207.406,211.194 206.962 C 211.191 206.763,210.951 207.050,210.661 207.600 C 210.372 208.150,209.924 208.555,209.667 208.500 C 209.410 208.445,209.245 208.625,209.300 208.900 C 209.355 209.175,209.175 209.355,208.900 209.300 C 208.625 209.245,208.445 209.410,208.500 209.667 C 208.555 209.924,208.150 210.372,207.600 210.661 C 207.050 210.951,206.763 211.191,206.962 211.194 C 207.434 211.202,205.115 213.199,204.633 213.200 C 204.432 213.200,204.370 213.303,204.496 213.429 C 204.621 213.555,203.481 214.872,201.962 216.355 C 200.443 217.839,199.200 219.221,199.200 219.426 C 199.199 220.022,197.346 222.013,197.060 221.726 C 196.917 221.583,196.800 221.685,196.800 221.952 C 196.800 222.218,196.350 222.886,195.800 223.436 C 195.250 223.986,194.800 224.325,194.800 224.190 C 194.800 223.845,193.889 224.875,193.361 225.817 C 193.119 226.248,192.535 226.796,192.063 227.036 C 191.591 227.275,191.324 227.590,191.469 227.736 C 191.614 227.881,191.403 228.000,191.000 228.000 C 190.597 228.000,190.368 228.101,190.491 228.224 C 190.770 228.504,188.912 230.400,188.358 230.400 C 188.135 230.400,188.064 230.580,188.200 230.800 C 188.336 231.020,188.137 231.200,187.757 231.200 C 187.377 231.200,187.171 231.305,187.299 231.433 C 187.428 231.561,186.884 232.277,186.091 233.025 C 185.299 233.772,184.762 234.496,184.899 234.633 C 185.216 234.950,183.501 236.752,183.100 236.524 C 182.935 236.430,182.800 236.644,182.800 237.000 C 182.800 237.356,182.620 237.536,182.400 237.400 C 182.180 237.264,182.000 237.444,182.000 237.800 C 182.000 238.156,181.820 238.336,181.600 238.200 C 181.380 238.064,181.200 238.263,181.200 238.643 C 181.200 239.023,181.083 239.217,180.940 239.074 C 180.683 238.816,178.801 240.750,178.800 241.273 C 178.800 241.423,178.440 241.660,178.000 241.800 C 177.560 241.940,177.200 242.329,177.200 242.664 C 177.200 243.000,176.879 243.359,176.487 243.461 C 176.095 243.564,175.420 244.176,174.987 244.823 C 174.554 245.469,174.052 245.998,173.871 245.999 C 173.691 245.999,173.273 246.270,172.943 246.600 C 172.613 246.930,172.459 247.200,172.600 247.200 C 172.741 247.200,172.587 247.470,172.257 247.800 C 171.927 248.130,171.443 248.400,171.182 248.400 C 170.904 248.400,170.793 248.732,170.916 249.200 C 171.060 249.750,170.928 250.000,170.496 250.000 C 170.150 250.000,169.975 250.108,170.107 250.241 C 170.419 250.552,168.695 252.349,168.300 252.124 C 168.135 252.030,168.000 252.244,168.000 252.600 C 168.000 252.956,167.820 253.136,167.600 253.000 C 167.380 252.864,167.200 253.044,167.200 253.400 C 167.200 253.756,167.020 253.936,166.800 253.800 C 166.580 253.664,166.400 253.844,166.400 254.200 C 166.400 254.556,166.220 254.736,166.000 254.600 C 165.780 254.464,165.600 254.644,165.600 255.000 C 165.600 255.356,165.420 255.536,165.200 255.400 C 164.980 255.264,164.800 255.523,164.800 255.976 C 164.800 256.429,164.620 256.800,164.400 256.800 C 164.180 256.800,164.000 257.072,164.000 257.405 C 164.000 258.079,163.278 259.468,162.476 260.337 C 162.188 260.649,161.650 261.601,161.282 262.453 C 160.913 263.304,160.463 264.000,160.282 264.000 C 160.101 264.000,160.060 264.173,160.190 264.384 C 160.465 264.828,159.636 266.449,158.892 266.925 C 158.612 267.103,158.504 267.445,158.653 267.685 C 158.801 267.925,158.659 268.319,158.336 268.561 C 157.696 269.041,157.026 270.394,157.153 270.950 C 157.197 271.143,156.987 271.593,156.685 271.950 C 155.782 273.022,154.400 275.605,154.400 276.223 C 154.400 276.540,154.220 276.800,154.000 276.800 C 153.780 276.800,153.600 277.160,153.600 277.600 C 153.600 278.040,153.401 278.400,153.157 278.400 C 152.914 278.400,152.812 278.655,152.932 278.967 C 153.052 279.279,152.872 279.640,152.533 279.770 C 152.187 279.903,152.017 280.268,152.146 280.603 C 152.272 280.932,152.205 281.200,151.997 281.200 C 151.790 281.200,151.249 282.055,150.796 283.100 C 150.343 284.145,149.798 285.313,149.586 285.695 C 149.374 286.077,149.200 286.662,149.200 286.995 C 149.200 287.328,149.020 287.600,148.800 287.600 C 148.580 287.600,148.400 287.960,148.400 288.400 C 148.400 288.840,148.220 289.200,148.000 289.200 C 147.780 289.200,147.600 289.470,147.600 289.800 C 147.600 290.130,147.420 290.400,147.200 290.400 C 146.980 290.400,146.800 290.760,146.800 291.200 C 146.800 291.640,146.620 292.000,146.400 292.000 C 146.180 292.000,146.000 292.360,146.000 292.800 C 146.000 293.240,145.820 293.600,145.600 293.600 C 145.380 293.600,145.200 293.839,145.200 294.132 C 145.200 294.425,144.751 295.550,144.202 296.632 C 143.653 297.714,143.203 298.825,143.202 299.100 C 143.201 299.375,143.020 299.600,142.800 299.600 C 142.580 299.600,142.400 299.960,142.400 300.400 C 142.400 300.840,142.216 301.200,141.990 301.200 C 141.520 301.200,140.630 303.149,140.755 303.905 C 140.800 304.183,140.570 304.513,140.244 304.638 C 139.918 304.764,139.748 305.120,139.867 305.430 C 139.986 305.740,139.795 306.104,139.444 306.239 C 139.092 306.373,138.905 306.646,139.028 306.845 C 139.151 307.044,138.970 307.488,138.626 307.832 C 138.281 308.176,138.000 308.714,138.000 309.029 C 138.000 309.343,137.801 309.600,137.557 309.600 C 137.314 309.600,137.218 309.870,137.345 310.200 C 137.471 310.530,137.401 310.800,137.187 310.800 C 136.940 310.800,136.800 296.626,136.800 271.618 L 136.800 232.436 137.776 231.461 C 138.312 230.924,138.848 230.581,138.966 230.699 C 139.084 230.817,139.717 230.390,140.372 229.749 C 141.028 229.108,142.309 228.137,143.220 227.592 C 144.131 227.046,145.405 226.105,146.052 225.500 C 146.698 224.895,147.485 224.400,147.800 224.400 C 148.114 224.400,148.565 224.040,148.800 223.600 C 149.035 223.160,149.555 222.800,149.954 222.800 C 150.354 222.800,151.094 222.260,151.600 221.600 C 152.106 220.940,152.729 220.400,152.984 220.400 C 153.240 220.400,153.836 220.040,154.308 219.600 C 154.780 219.160,155.353 218.800,155.580 218.800 C 155.807 218.800,156.490 218.284,157.097 217.654 C 157.703 217.024,158.605 216.382,159.100 216.227 C 159.595 216.073,160.000 215.778,160.000 215.573 C 160.000 215.368,160.288 215.200,160.640 215.200 C 160.992 215.200,161.910 214.570,162.680 213.800 C 163.450 213.030,164.313 212.400,164.597 212.400 C 164.882 212.400,165.218 212.130,165.345 211.800 C 165.471 211.470,165.849 211.200,166.184 211.200 C 166.519 211.200,167.309 210.660,167.940 210.000 C 168.571 209.340,169.342 208.800,169.655 208.800 C 169.968 208.800,170.483 208.440,170.800 208.000 C 171.117 207.560,171.657 207.200,172.000 207.200 C 172.343 207.200,172.883 206.840,173.200 206.400 C 173.517 205.960,174.026 205.600,174.331 205.600 C 174.636 205.600,175.236 205.154,175.665 204.608 C 176.094 204.062,177.065 203.322,177.823 202.962 C 178.580 202.603,179.200 202.149,179.200 201.954 C 179.200 201.759,179.436 201.600,179.725 201.600 C 180.014 201.600,180.768 201.060,181.400 200.400 C 182.032 199.740,182.786 199.200,183.075 199.200 C 183.364 199.200,183.600 199.050,183.600 198.868 C 183.600 198.685,184.095 198.280,184.700 197.968 C 185.305 197.655,186.248 196.995,186.796 196.500 C 187.344 196.005,188.006 195.600,188.267 195.600 C 188.528 195.600,189.072 195.181,189.475 194.668 C 189.878 194.155,190.420 193.807,190.679 193.893 C 190.937 193.979,191.447 193.596,191.810 193.040 C 192.174 192.485,192.851 191.911,193.314 191.764 C 193.777 191.617,195.255 190.665,196.597 189.648 C 197.939 188.632,199.317 187.620,199.659 187.400 C 202.202 185.763,203.572 184.769,203.805 184.392 C 203.955 184.149,204.465 183.774,204.939 183.558 C 206.430 182.878,207.392 182.234,208.610 181.100 C 209.260 180.495,209.991 180.000,210.234 180.000 C 210.477 180.000,211.002 179.640,211.400 179.200 C 211.798 178.760,212.286 178.400,212.484 178.400 C 212.682 178.400,213.419 177.861,214.122 177.202 C 214.825 176.543,215.582 176.003,215.804 176.002 C 216.026 176.001,216.432 175.640,216.707 175.200 C 216.982 174.760,217.520 174.398,217.903 174.396 C 218.287 174.394,219.025 173.854,219.545 173.196 C 220.065 172.538,220.712 172.000,220.983 172.000 C 221.254 172.000,221.802 171.640,222.200 171.200 C 222.598 170.760,223.213 170.400,223.566 170.400 C 223.919 170.400,224.432 170.040,224.707 169.600 C 224.982 169.160,225.493 168.800,225.843 168.800 C 226.193 168.800,226.956 168.294,227.540 167.675 C 228.123 167.057,228.870 166.420,229.200 166.260 C 230.747 165.509,231.820 164.769,233.074 163.586 C 233.822 162.880,234.546 162.413,234.682 162.548 C 234.817 162.684,235.180 162.436,235.487 161.997 C 235.794 161.559,236.271 161.200,236.548 161.200 C 236.824 161.200,237.568 160.660,238.200 160.000 C 238.832 159.340,239.636 158.800,239.987 158.800 C 240.337 158.800,240.883 158.440,241.200 158.000 C 241.517 157.560,241.973 157.200,242.213 157.200 C 242.454 157.200,243.168 156.660,243.800 156.000 C 244.432 155.340,245.158 154.800,245.413 154.800 C 245.668 154.800,246.202 154.440,246.600 154.000 C 246.998 153.560,247.502 153.200,247.719 153.200 C 247.936 153.200,248.629 152.660,249.260 152.000 C 249.891 151.340,250.636 150.800,250.915 150.800 C 251.195 150.800,251.683 150.440,252.000 150.000 C 252.317 149.560,252.863 149.200,253.213 149.200 C 253.564 149.200,254.368 148.660,255.000 148.000 C 255.632 147.340,256.306 146.800,256.498 146.800 C 256.690 146.800,258.362 145.630,260.215 144.200 C 262.067 142.770,263.741 141.600,263.933 141.600 C 264.126 141.600,264.755 141.163,265.331 140.629 C 265.908 140.095,266.924 139.336,267.590 138.943 C 268.255 138.549,268.800 138.086,268.800 137.914 C 268.800 137.741,269.115 137.595,269.500 137.589 C 269.885 137.583,270.725 137.043,271.367 136.389 C 272.008 135.735,272.734 135.200,272.978 135.200 C 273.223 135.200,273.683 134.840,274.000 134.400 C 274.317 133.960,274.878 133.600,275.246 133.600 C 275.613 133.600,276.018 133.330,276.145 133.000 C 276.271 132.670,276.746 132.400,277.200 132.400 C 277.654 132.400,278.127 132.134,278.252 131.808 C 278.377 131.483,279.137 130.814,279.940 130.323 C 280.743 129.832,281.638 129.198,281.929 128.915 C 282.219 128.632,282.672 128.400,282.934 128.400 C 283.196 128.400,283.752 127.945,284.170 127.388 C 284.588 126.831,285.531 126.091,286.265 125.742 C 286.999 125.394,287.600 124.949,287.600 124.754 C 287.600 124.559,287.960 124.400,288.400 124.400 C 288.840 124.400,289.200 124.190,289.200 123.933 C 289.200 123.677,289.335 123.604,289.500 123.771 C 289.665 123.939,288.720 125.068,287.400 126.281 " stroke="none" fill="#fcfcf4" fill-rule="evenodd"></path><path id="path1" d="" stroke="none" fill="#100fcf4" fill-rule="evenodd"></path><path id="path2" d="" stroke="none" fill="#100fcf4" fill-rule="evenodd"></path><path id="path3" d="" stroke="none" fill="#100fcf4" fill-rule="evenodd"></path><path id="path4" d="" stroke="none" fill="#100fcf4" fill-rule="evenodd"></path></g></svg>