<svg id="svg" version="1.1" xmlns="http://www.w3.org/2000/svg" xmlns:xlink="http://www.w3.org/1999/xlink" width="400" height="400" viewBox="0, 0, 400,400"><g id="svgg"><path id="path0" d="M179.800 0.285 C 178.040 0.353,176.240 0.580,175.800 0.789 C 175.360 0.998,173.830 1.261,172.400 1.375 C 166.979 1.803,165.140 2.092,164.967 2.541 C 164.857 2.829,164.108 2.951,162.995 2.862 C 161.869 2.773,161.200 2.884,161.200 3.160 C 161.200 3.414,160.450 3.600,159.424 3.600 C 158.447 3.600,157.548 3.761,157.426 3.958 C 157.305 4.155,156.484 4.425,155.603 4.558 C 154.721 4.691,153.280 4.909,152.400 5.042 C 151.520 5.175,150.800 5.445,150.800 5.642 C 150.800 5.839,150.099 6.000,149.243 6.000 C 148.179 6.000,147.607 6.204,147.438 6.646 C 147.270 7.083,146.868 7.230,146.195 7.101 C 145.587 6.985,145.200 7.096,145.200 7.386 C 145.200 7.688,144.756 7.796,143.979 7.682 C 143.122 7.556,142.604 7.715,142.239 8.214 C 141.895 8.685,141.421 8.847,140.835 8.693 C 140.270 8.545,139.872 8.667,139.733 9.031 C 139.613 9.344,138.994 9.600,138.357 9.600 C 137.721 9.600,137.200 9.801,137.200 10.047 C 137.200 10.307,136.784 10.414,136.200 10.302 C 135.650 10.197,135.200 10.266,135.200 10.455 C 135.200 10.645,134.660 10.800,134.000 10.800 C 133.340 10.800,132.800 10.980,132.800 11.200 C 132.800 11.420,132.498 11.600,132.128 11.600 C 131.154 11.600,128.800 12.506,128.800 12.880 C 128.800 13.056,128.361 13.200,127.824 13.200 C 127.287 13.200,126.736 13.380,126.600 13.600 C 126.464 13.820,126.003 14.000,125.576 14.000 C 125.149 14.000,124.800 14.180,124.800 14.400 C 124.800 14.620,124.249 14.800,123.576 14.800 C 122.863 14.800,122.456 14.967,122.600 15.200 C 122.741 15.428,122.396 15.600,121.800 15.600 C 121.204 15.600,120.859 15.772,121.000 16.000 C 121.136 16.220,120.877 16.400,120.424 16.400 C 119.971 16.400,119.600 16.574,119.600 16.787 C 119.600 17.001,119.332 17.072,119.003 16.946 C 118.668 16.817,118.303 16.987,118.170 17.333 C 118.040 17.672,117.677 17.851,117.364 17.731 C 116.674 17.466,114.801 18.355,111.557 20.488 C 110.981 20.867,110.380 21.047,110.222 20.889 C 110.064 20.731,109.691 20.934,109.394 21.341 C 109.097 21.747,108.661 21.961,108.427 21.816 C 108.192 21.671,108.000 21.743,108.000 21.976 C 108.000 22.209,107.743 22.400,107.429 22.400 C 107.114 22.400,106.576 22.681,106.232 23.026 C 105.888 23.370,105.439 23.548,105.235 23.422 C 105.031 23.296,104.497 23.659,104.048 24.230 C 103.599 24.800,103.044 25.151,102.813 25.008 C 102.583 24.866,102.282 25.041,102.146 25.398 C 102.009 25.754,101.643 25.949,101.333 25.830 C 101.023 25.711,100.666 25.884,100.539 26.214 C 100.413 26.544,100.104 26.767,99.854 26.710 C 99.605 26.653,98.753 27.100,97.962 27.703 C 97.171 28.306,96.266 28.800,95.951 28.800 C 95.635 28.800,95.117 29.160,94.800 29.600 C 94.483 30.040,93.943 30.400,93.600 30.400 C 93.257 30.400,92.717 30.760,92.400 31.200 C 92.083 31.640,91.503 32.000,91.112 32.000 C 90.720 32.000,90.400 32.168,90.400 32.373 C 90.400 32.578,90.061 32.854,89.648 32.985 C 88.541 33.336,87.169 34.631,87.507 35.005 C 87.668 35.183,87.579 35.201,87.308 35.046 C 86.670 34.679,85.200 35.468,85.200 36.177 C 85.200 36.528,84.913 36.650,84.400 36.516 C 83.835 36.368,83.600 36.504,83.600 36.977 C 83.600 37.346,83.420 37.536,83.200 37.400 C 82.980 37.264,82.800 37.444,82.800 37.800 C 82.800 38.156,82.620 38.336,82.400 38.200 C 82.180 38.064,82.000 38.247,82.000 38.606 C 82.000 39.017,81.741 39.204,81.300 39.112 C 80.675 38.980,78.802 40.592,78.800 41.263 C 78.800 41.407,78.485 41.443,78.100 41.343 C 77.646 41.225,77.260 41.484,77.000 42.081 C 76.780 42.586,76.195 43.178,75.700 43.395 C 75.205 43.612,74.800 43.927,74.800 44.095 C 74.800 44.263,74.429 44.400,73.976 44.400 C 73.523 44.400,73.264 44.580,73.400 44.800 C 73.536 45.020,73.337 45.200,72.957 45.200 C 72.577 45.200,72.360 45.293,72.474 45.407 C 72.734 45.667,69.231 49.200,68.713 49.200 C 68.503 49.200,66.726 50.826,64.765 52.813 C 62.804 54.801,61.200 56.323,61.200 56.198 C 61.200 56.072,60.949 56.201,60.642 56.484 C 60.335 56.768,60.148 57.106,60.225 57.235 C 60.303 57.364,59.654 58.166,58.783 59.016 C 57.913 59.867,57.200 60.429,57.200 60.265 C 57.200 60.102,56.947 60.201,56.638 60.484 C 56.329 60.768,56.103 61.090,56.135 61.200 C 56.167 61.310,54.620 62.964,52.697 64.875 C 50.774 66.787,49.200 68.518,49.200 68.723 C 49.200 69.234,45.664 72.731,45.407 72.474 C 45.293 72.360,45.200 72.777,45.200 73.400 C 45.200 74.023,45.089 74.422,44.952 74.286 C 44.680 74.013,44.051 74.609,43.337 75.817 C 43.083 76.248,42.684 76.557,42.452 76.505 C 42.219 76.452,42.117 76.639,42.224 76.919 C 42.434 77.465,41.564 78.536,39.922 79.756 C 39.262 80.246,38.973 80.773,39.099 81.256 C 39.231 81.763,39.080 82.000,38.623 82.000 C 38.254 82.000,38.064 82.180,38.200 82.400 C 38.336 82.620,38.146 82.800,37.777 82.800 C 37.331 82.800,37.169 83.039,37.293 83.512 C 37.482 84.236,36.762 85.200,36.031 85.200 C 35.437 85.200,34.718 86.738,35.046 87.308 C 35.201 87.579,35.183 87.668,35.005 87.507 C 34.631 87.169,33.336 88.541,32.985 89.648 C 32.854 90.061,32.578 90.400,32.373 90.400 C 32.168 90.400,32.000 90.760,32.000 91.200 C 32.000 91.640,31.820 92.000,31.600 92.000 C 31.380 92.000,31.200 92.320,31.200 92.712 C 31.200 93.103,30.840 93.683,30.400 94.000 C 29.960 94.317,29.600 94.817,29.600 95.112 C 29.600 95.406,29.071 96.311,28.425 97.123 C 27.779 97.936,27.120 99.140,26.961 99.800 C 26.802 100.460,26.296 101.332,25.836 101.738 C 25.376 102.144,25.048 102.708,25.107 102.993 C 25.166 103.277,24.941 103.614,24.607 103.742 C 24.273 103.870,24.000 104.341,24.000 104.787 C 24.000 105.234,23.809 105.600,23.576 105.600 C 23.343 105.600,23.271 105.791,23.416 106.025 C 23.560 106.259,23.403 106.754,23.067 107.126 C 22.731 107.497,22.264 108.251,22.029 108.801 C 21.794 109.350,21.452 110.070,21.268 110.400 C 20.261 112.211,19.600 113.731,19.600 114.232 C 19.600 114.545,19.433 114.800,19.229 114.800 C 18.761 114.800,17.547 117.191,17.804 117.607 C 17.909 117.777,17.708 118.027,17.356 118.161 C 16.992 118.301,16.815 118.663,16.946 119.003 C 17.072 119.332,17.001 119.600,16.787 119.600 C 16.574 119.600,16.400 119.971,16.400 120.424 C 16.400 120.877,16.220 121.136,16.000 121.000 C 15.776 120.862,15.600 121.169,15.600 121.697 C 15.600 122.769,14.752 124.792,14.300 124.797 C 14.135 124.799,14.000 125.214,14.000 125.720 C 14.000 126.774,13.147 128.792,12.700 128.797 C 12.535 128.799,12.400 129.162,12.400 129.605 C 12.400 130.048,12.242 130.723,12.049 131.105 C 11.513 132.167,10.800 134.576,10.800 135.328 C 10.800 135.698,10.626 136.000,10.413 136.000 C 10.199 136.000,10.129 136.270,10.255 136.600 C 10.382 136.930,10.286 137.200,10.043 137.200 C 9.799 137.200,9.600 137.725,9.600 138.367 C 9.600 139.008,9.387 139.604,9.127 139.691 C 8.866 139.778,8.641 140.558,8.627 141.424 C 8.608 142.539,8.440 142.966,8.052 142.884 C 7.655 142.800,7.553 143.101,7.683 143.984 C 7.792 144.724,7.685 145.200,7.411 145.200 C 7.137 145.200,7.021 145.717,7.115 146.522 C 7.217 147.393,7.053 148.024,6.635 148.371 C 6.286 148.661,6.000 149.326,6.000 149.849 C 6.000 150.372,5.820 150.800,5.600 150.800 C 5.380 150.800,5.200 151.599,5.200 152.576 C 5.200 153.553,5.020 154.464,4.800 154.600 C 4.580 154.736,4.400 155.557,4.400 156.424 C 4.400 157.291,4.220 158.000,4.000 158.000 C 3.780 158.000,3.600 158.720,3.600 159.600 C 3.600 160.480,3.420 161.200,3.200 161.200 C 2.980 161.200,2.800 162.179,2.800 163.376 C 2.800 164.573,2.620 165.664,2.400 165.800 C 2.180 165.936,2.000 166.926,2.000 168.000 C 2.000 169.074,1.820 170.064,1.600 170.200 C 1.380 170.336,1.200 171.751,1.200 173.344 C 1.200 174.937,1.006 176.434,0.768 176.672 C 0.507 176.933,0.388 178.372,0.468 180.315 C 0.541 182.081,0.465 183.442,0.300 183.340 C 0.135 183.237,0.000 190.993,0.000 200.576 C 0.000 210.159,0.135 218.000,0.300 217.999 C 0.465 217.999,0.543 219.709,0.473 221.799 C 0.388 224.309,0.490 225.600,0.773 225.600 C 1.032 225.600,1.200 226.615,1.200 228.176 C 1.200 229.593,1.380 230.864,1.600 231.000 C 1.820 231.136,2.000 232.232,2.000 233.436 C 2.000 234.824,2.184 235.696,2.502 235.818 C 2.834 235.945,2.956 236.621,2.862 237.803 C 2.763 239.057,2.885 239.658,3.270 239.805 C 3.643 239.949,3.772 240.511,3.672 241.561 C 3.591 242.411,3.722 243.228,3.962 243.377 C 4.203 243.526,4.400 244.256,4.400 245.000 C 4.400 245.744,4.580 246.464,4.800 246.600 C 5.020 246.736,5.200 247.737,5.200 248.824 C 5.200 249.911,5.380 250.800,5.600 250.800 C 5.820 250.800,6.000 251.321,6.000 251.957 C 6.000 252.651,6.257 253.213,6.643 253.361 C 7.113 253.541,7.243 253.985,7.124 255.004 C 7.020 255.890,7.130 256.400,7.425 256.400 C 7.704 256.400,7.813 256.797,7.699 257.395 C 7.570 258.068,7.717 258.470,8.154 258.638 C 8.509 258.774,8.800 259.306,8.800 259.819 C 8.800 260.333,8.997 260.875,9.238 261.023 C 9.478 261.172,9.591 261.737,9.487 262.278 C 9.377 262.854,9.508 263.343,9.802 263.456 C 10.079 263.562,10.424 264.403,10.569 265.325 C 10.891 267.378,11.555 269.377,12.492 271.112 C 12.881 271.834,13.200 272.768,13.200 273.189 C 13.200 273.609,13.380 274.064,13.600 274.200 C 13.820 274.336,14.000 274.876,14.000 275.400 C 14.000 275.924,14.180 276.464,14.400 276.600 C 14.620 276.736,14.800 277.197,14.800 277.624 C 14.800 278.051,14.980 278.400,15.200 278.400 C 15.420 278.400,15.600 278.771,15.600 279.224 C 15.600 279.677,15.780 279.936,16.000 279.800 C 16.220 279.664,16.400 279.923,16.400 280.376 C 16.400 280.829,16.555 281.200,16.745 281.200 C 16.934 281.200,17.003 281.648,16.899 282.195 C 16.770 282.867,16.917 283.270,17.352 283.437 C 17.706 283.573,17.903 283.833,17.791 284.015 C 17.678 284.197,17.943 284.943,18.380 285.673 C 19.522 287.581,20.800 290.284,20.800 290.791 C 20.800 291.030,21.052 291.322,21.361 291.440 C 21.669 291.559,22.034 292.256,22.172 292.989 C 22.309 293.723,22.653 294.411,22.935 294.520 C 23.217 294.628,23.671 295.459,23.943 296.367 C 24.215 297.274,24.789 298.236,25.219 298.504 C 25.648 298.773,26.000 299.309,26.000 299.696 C 26.000 300.083,26.199 300.400,26.443 300.400 C 26.686 300.400,26.782 300.670,26.655 301.000 C 26.529 301.330,26.599 301.600,26.813 301.600 C 27.026 301.600,27.200 301.917,27.200 302.304 C 27.200 302.691,27.560 303.232,28.000 303.507 C 28.440 303.782,28.800 304.326,28.800 304.715 C 28.800 305.105,29.160 305.683,29.600 306.000 C 30.040 306.317,30.400 306.857,30.400 307.200 C 30.400 307.543,30.760 308.083,31.200 308.400 C 31.640 308.717,32.000 309.297,32.000 309.688 C 32.000 310.080,32.159 310.400,32.353 310.400 C 32.548 310.400,32.813 310.715,32.944 311.100 C 33.074 311.485,33.815 312.610,34.589 313.600 C 35.363 314.590,36.173 315.805,36.389 316.300 C 36.604 316.795,36.995 317.200,37.257 317.200 C 37.519 317.200,37.622 317.311,37.486 317.448 C 37.174 317.759,38.186 318.800,38.801 318.800 C 39.053 318.800,39.199 319.110,39.126 319.489 C 39.053 319.868,39.490 320.652,40.097 321.232 C 40.703 321.812,41.200 322.484,41.200 322.725 C 41.200 323.302,43.087 325.180,43.376 324.891 C 43.499 324.768,43.600 325.023,43.600 325.458 C 43.600 325.893,43.955 326.598,44.389 327.025 C 47.545 330.127,48.395 331.043,48.397 331.348 C 48.399 331.540,50.398 333.700,52.839 336.148 C 55.280 338.597,57.439 341.013,57.636 341.518 C 57.833 342.023,58.221 342.384,58.497 342.321 C 58.774 342.257,61.076 344.319,63.612 346.903 C 66.148 349.486,68.416 351.600,68.653 351.600 C 69.237 351.600,72.786 355.081,72.497 355.370 C 72.370 355.497,72.595 355.600,72.996 355.600 C 73.397 355.600,74.431 356.320,75.293 357.200 C 76.156 358.080,77.046 358.800,77.270 358.800 C 77.495 358.800,78.183 359.340,78.800 360.000 C 79.417 360.660,80.169 361.200,80.472 361.200 C 80.775 361.200,81.276 361.550,81.585 361.979 C 81.893 362.407,82.293 362.666,82.473 362.555 C 82.653 362.444,82.800 362.644,82.800 363.000 C 82.800 363.362,82.991 363.529,83.233 363.380 C 83.470 363.233,84.145 363.566,84.733 364.120 C 85.320 364.675,86.553 365.516,87.473 365.990 C 88.393 366.464,89.360 367.111,89.622 367.426 C 89.884 367.742,90.344 368.000,90.646 368.000 C 90.947 368.000,91.418 368.360,91.693 368.800 C 91.968 369.240,92.469 369.600,92.808 369.600 C 93.146 369.600,93.683 369.960,94.000 370.400 C 94.317 370.840,94.897 371.200,95.288 371.200 C 95.680 371.200,96.000 371.380,96.000 371.600 C 96.000 371.820,96.320 372.000,96.712 372.000 C 97.103 372.000,97.683 372.360,98.000 372.800 C 98.317 373.240,98.897 373.600,99.288 373.600 C 99.680 373.600,100.000 373.766,100.000 373.968 C 100.000 374.171,100.585 374.465,101.300 374.622 C 102.015 374.779,102.831 375.237,103.113 375.639 C 103.679 376.448,108.335 378.800,109.370 378.800 C 109.730 378.800,110.129 379.070,110.255 379.400 C 110.382 379.730,110.811 380.000,111.209 380.000 C 111.608 380.000,111.993 380.135,112.067 380.300 C 112.330 380.892,115.968 382.498,116.545 382.277 C 116.872 382.151,117.239 382.325,117.370 382.667 C 117.503 383.013,117.868 383.183,118.203 383.054 C 118.532 382.928,118.800 382.999,118.800 383.213 C 118.800 383.426,119.160 383.600,119.600 383.600 C 120.040 383.600,120.400 383.780,120.400 384.000 C 120.400 384.220,120.670 384.400,121.000 384.400 C 121.330 384.400,121.600 384.580,121.600 384.800 C 121.600 385.020,122.140 385.200,122.800 385.200 C 123.460 385.200,124.000 385.380,124.000 385.600 C 124.000 385.820,124.360 386.000,124.800 386.000 C 125.240 386.000,125.600 386.180,125.600 386.400 C 125.600 386.620,126.140 386.800,126.800 386.800 C 127.460 386.800,128.000 386.980,128.000 387.200 C 128.000 387.420,128.360 387.600,128.800 387.600 C 129.240 387.600,129.600 387.780,129.600 388.000 C 129.600 388.220,130.129 388.400,130.776 388.400 C 131.423 388.400,132.064 388.580,132.200 388.800 C 132.336 389.020,132.887 389.200,133.424 389.200 C 133.961 389.200,134.400 389.380,134.400 389.600 C 134.400 389.820,134.715 390.005,135.100 390.010 C 135.925 390.022,141.069 391.735,141.462 392.129 C 141.611 392.278,142.333 392.400,143.067 392.400 C 143.800 392.400,144.400 392.580,144.400 392.800 C 144.400 393.020,144.940 393.200,145.600 393.200 C 146.260 393.200,146.800 393.380,146.800 393.600 C 146.800 393.820,147.520 394.000,148.400 394.000 C 149.280 394.000,150.000 394.180,150.000 394.400 C 150.000 394.620,150.594 394.800,151.320 394.800 C 152.046 394.800,152.811 394.963,153.020 395.161 C 153.384 395.507,155.942 395.937,158.700 396.116 C 159.415 396.162,160.000 396.335,160.000 396.500 C 160.000 396.665,161.080 396.800,162.400 396.800 C 163.733 396.800,164.800 396.978,164.800 397.200 C 164.800 397.420,165.599 397.600,166.576 397.600 C 167.553 397.600,168.464 397.780,168.600 398.000 C 168.736 398.220,170.176 398.400,171.800 398.400 C 173.424 398.400,174.864 398.580,175.000 398.800 C 175.136 399.020,176.846 399.200,178.800 399.200 C 180.754 399.200,182.464 399.380,182.600 399.600 C 182.759 399.857,189.004 400.000,200.024 400.000 C 211.208 400.000,217.200 399.860,217.200 399.600 C 217.200 399.362,218.725 399.200,220.976 399.200 C 223.063 399.200,224.863 399.021,225.000 398.800 C 225.136 398.580,226.497 398.400,228.024 398.400 C 229.608 398.400,230.800 398.228,230.800 398.000 C 230.800 397.780,231.779 397.600,232.976 397.600 C 234.173 397.600,235.264 397.420,235.400 397.200 C 235.536 396.980,236.507 396.800,237.557 396.800 C 238.607 396.800,239.596 396.670,239.755 396.512 C 239.913 396.353,240.645 396.276,241.381 396.339 C 242.117 396.402,242.838 396.262,242.983 396.027 C 243.128 395.792,244.047 395.600,245.024 395.600 C 246.001 395.600,246.800 395.420,246.800 395.200 C 246.800 394.980,247.419 394.800,248.176 394.800 C 248.933 394.800,249.664 394.620,249.800 394.400 C 249.936 394.180,250.757 394.000,251.624 394.000 C 252.491 394.000,253.200 393.820,253.200 393.600 C 253.200 393.380,253.740 393.200,254.400 393.200 C 255.060 393.200,255.600 393.020,255.600 392.800 C 255.600 392.580,256.219 392.400,256.976 392.400 C 257.733 392.400,258.464 392.220,258.600 392.000 C 258.736 391.780,259.287 391.600,259.824 391.600 C 260.361 391.600,260.800 391.420,260.800 391.200 C 260.800 390.980,261.239 390.800,261.776 390.800 C 262.313 390.800,262.864 390.620,263.000 390.400 C 263.136 390.180,263.689 390.000,264.229 390.000 C 264.769 390.000,265.613 389.792,266.105 389.538 C 268.062 388.526,268.426 388.400,269.395 388.400 C 269.948 388.400,270.400 388.220,270.400 388.000 C 270.400 387.780,270.760 387.600,271.200 387.600 C 271.640 387.600,272.000 387.420,272.000 387.200 C 272.000 386.980,272.439 386.800,272.976 386.800 C 273.513 386.800,274.064 386.620,274.200 386.400 C 274.336 386.180,274.797 386.000,275.224 386.000 C 275.651 386.000,276.000 385.820,276.000 385.600 C 276.000 385.380,276.540 385.200,277.200 385.200 C 277.860 385.200,278.400 385.020,278.400 384.800 C 278.400 384.580,278.760 384.400,279.200 384.400 C 279.640 384.400,280.000 384.234,280.000 384.032 C 280.000 383.829,280.538 383.545,281.195 383.401 C 281.853 383.257,282.494 382.972,282.619 382.769 C 282.745 382.566,283.169 382.400,283.562 382.400 C 284.525 382.400,286.800 381.239,286.800 380.747 C 286.800 380.530,286.973 380.460,287.184 380.590 C 287.530 380.804,289.098 380.143,289.600 379.572 C 289.710 379.447,290.700 378.938,291.800 378.441 C 294.912 377.036,296.143 376.321,296.879 375.492 C 297.252 375.071,297.747 374.844,297.979 374.987 C 298.210 375.130,298.400 375.099,298.400 374.918 C 298.400 374.737,299.096 374.287,299.947 373.918 C 300.799 373.550,301.744 373.011,302.047 372.722 C 302.351 372.432,303.455 371.763,304.500 371.235 C 305.545 370.706,306.400 370.123,306.400 369.937 C 306.400 369.752,306.741 369.600,307.157 369.600 C 307.574 369.600,308.013 369.344,308.133 369.030 C 308.253 368.717,308.993 368.156,309.776 367.785 C 310.559 367.413,311.200 366.949,311.200 366.754 C 311.200 366.559,311.541 366.400,311.957 366.400 C 312.374 366.400,312.818 366.130,312.945 365.800 C 313.071 365.470,313.426 365.200,313.733 365.200 C 314.040 365.200,314.768 364.723,315.352 364.139 C 315.935 363.556,316.523 363.190,316.659 363.325 C 316.794 363.461,317.404 363.038,318.013 362.386 C 318.622 361.734,319.364 361.198,319.660 361.196 C 319.957 361.194,320.625 360.654,321.145 359.996 C 321.665 359.338,322.325 358.800,322.611 358.800 C 322.898 358.800,323.815 358.080,324.649 357.200 C 325.483 356.320,326.443 355.592,326.782 355.581 C 327.122 355.571,327.940 354.865,328.600 354.013 C 329.260 353.160,330.242 352.224,330.783 351.931 C 331.324 351.639,333.810 349.420,336.307 347.000 C 338.805 344.580,341.197 342.471,341.624 342.313 C 342.051 342.155,342.402 341.795,342.405 341.513 C 342.408 341.231,344.433 338.924,346.905 336.386 C 349.377 333.849,351.639 331.329,351.931 330.786 C 352.224 330.244,353.160 329.260,354.013 328.600 C 354.865 327.940,355.571 327.122,355.581 326.782 C 355.592 326.443,356.320 325.483,357.200 324.649 C 358.080 323.815,358.800 322.912,358.800 322.642 C 358.800 322.373,359.516 321.533,360.391 320.776 C 361.266 320.019,361.986 319.125,361.991 318.788 C 361.996 318.452,362.350 317.924,362.779 317.615 C 363.207 317.307,363.461 316.898,363.343 316.708 C 363.225 316.518,363.595 315.896,364.165 315.326 C 364.734 314.757,365.200 314.040,365.200 313.733 C 365.200 313.426,365.456 313.077,365.768 312.957 C 366.080 312.837,366.820 311.749,367.412 310.540 C 368.003 309.331,368.738 308.245,369.044 308.128 C 369.350 308.010,369.600 307.574,369.600 307.157 C 369.600 306.741,369.752 306.400,369.937 306.400 C 370.123 306.400,370.706 305.545,371.235 304.500 C 371.763 303.455,372.417 302.367,372.688 302.081 C 372.959 301.796,373.490 300.896,373.869 300.081 C 374.247 299.267,374.768 298.469,375.027 298.309 C 375.466 298.037,376.102 296.818,378.421 291.800 C 378.929 290.700,379.447 289.710,379.572 289.600 C 380.143 289.098,380.804 287.530,380.590 287.184 C 380.460 286.973,380.534 286.800,380.756 286.800 C 381.280 286.800,383.600 281.940,383.600 280.843 C 383.600 280.379,383.780 280.000,384.000 280.000 C 384.220 280.000,384.400 279.640,384.400 279.200 C 384.400 278.760,384.580 278.400,384.800 278.400 C 385.020 278.400,385.200 278.040,385.200 277.600 C 385.200 277.160,385.380 276.800,385.600 276.800 C 385.820 276.800,386.000 276.355,386.000 275.812 C 386.000 275.269,386.360 274.183,386.800 273.400 C 387.240 272.617,387.600 271.621,387.600 271.188 C 387.600 270.755,387.780 270.400,388.000 270.400 C 388.220 270.400,388.400 269.948,388.400 269.395 C 388.400 268.842,388.580 268.032,388.800 267.595 C 389.020 267.158,389.380 266.442,389.600 266.005 C 389.820 265.568,390.000 264.769,390.000 264.229 C 390.000 263.689,390.180 263.136,390.400 263.000 C 390.620 262.864,390.800 262.313,390.800 261.776 C 390.800 261.239,390.980 260.800,391.200 260.800 C 391.420 260.800,391.600 260.361,391.600 259.824 C 391.600 259.287,391.780 258.736,392.000 258.600 C 392.220 258.464,392.400 257.913,392.400 257.376 C 392.400 256.839,392.580 256.400,392.800 256.400 C 393.020 256.400,393.200 255.680,393.200 254.800 C 393.200 253.920,393.380 253.200,393.600 253.200 C 393.820 253.200,394.000 252.660,394.000 252.000 C 394.000 251.340,394.180 250.800,394.400 250.800 C 394.620 250.800,394.800 249.900,394.800 248.800 C 394.800 247.700,394.980 246.800,395.200 246.800 C 395.420 246.800,395.600 246.181,395.600 245.424 C 395.600 244.667,395.792 243.928,396.028 243.783 C 396.263 243.637,396.407 242.733,396.348 241.772 C 396.289 240.812,396.366 239.900,396.520 239.746 C 396.674 239.593,396.800 238.687,396.800 237.733 C 396.800 236.780,396.980 236.000,397.200 236.000 C 397.420 236.000,397.600 235.021,397.600 233.824 C 397.600 232.627,397.780 231.536,398.000 231.400 C 398.220 231.264,398.400 229.988,398.400 228.564 C 398.400 226.861,398.571 225.910,398.900 225.784 C 399.264 225.645,399.365 224.563,399.273 221.797 C 399.188 219.290,399.290 218.000,399.573 218.000 C 399.869 218.000,400.000 212.678,400.000 200.600 C 400.000 189.267,399.861 183.200,399.600 183.200 C 399.365 183.200,399.200 181.808,399.200 179.824 C 399.200 177.967,399.020 176.336,398.800 176.200 C 398.580 176.064,398.400 174.714,398.400 173.200 C 398.400 171.686,398.220 170.336,398.000 170.200 C 397.780 170.064,397.600 168.973,397.600 167.776 C 397.600 166.579,397.420 165.600,397.200 165.600 C 396.980 165.600,396.792 164.655,396.783 163.500 C 396.773 162.345,396.578 160.590,396.350 159.600 C 396.122 158.610,395.840 157.124,395.725 156.297 C 395.610 155.471,395.355 154.695,395.158 154.574 C 394.961 154.452,394.800 153.553,394.800 152.576 C 394.800 151.599,394.620 150.800,394.400 150.800 C 394.180 150.800,394.000 150.260,394.000 149.600 C 394.000 148.940,393.820 148.400,393.600 148.400 C 393.380 148.400,393.200 147.680,393.200 146.800 C 393.200 145.920,393.020 145.200,392.800 145.200 C 392.580 145.200,392.400 144.649,392.400 143.976 C 392.400 143.263,392.233 142.856,392.000 143.000 C 391.759 143.149,391.600 142.612,391.600 141.647 C 391.600 140.767,391.420 139.936,391.200 139.800 C 390.980 139.664,390.800 139.239,390.800 138.856 C 390.800 137.981,389.901 136.007,389.500 136.003 C 389.335 136.001,389.200 135.460,389.200 134.800 C 389.200 134.140,389.020 133.600,388.800 133.600 C 388.580 133.600,388.400 133.148,388.400 132.595 C 388.400 132.042,388.243 131.277,388.050 130.895 C 386.557 127.931,386.000 126.648,386.000 126.174 C 386.000 125.872,385.640 124.983,385.200 124.200 C 384.760 123.417,384.400 122.331,384.400 121.788 C 384.400 121.245,384.234 120.800,384.032 120.800 C 383.829 120.800,383.542 120.248,383.394 119.573 C 383.246 118.898,382.873 118.249,382.565 118.131 C 382.257 118.013,382.091 117.777,382.196 117.607 C 382.449 117.197,381.242 114.800,380.783 114.800 C 380.586 114.800,380.528 114.532,380.654 114.203 C 380.783 113.868,380.613 113.503,380.267 113.370 C 379.928 113.240,379.748 112.879,379.868 112.567 C 379.988 112.255,379.894 112.000,379.659 112.000 C 379.424 112.000,379.016 111.280,378.753 110.400 C 378.489 109.520,378.122 108.800,377.937 108.800 C 377.752 108.800,377.600 108.440,377.600 108.000 C 377.600 107.560,377.465 107.199,377.300 107.199 C 377.135 107.198,376.667 106.388,376.260 105.399 C 375.854 104.409,375.339 103.600,375.118 103.600 C 374.896 103.600,374.818 103.330,374.945 103.000 C 375.071 102.670,375.018 102.400,374.827 102.400 C 374.409 102.400,372.800 99.756,372.800 99.068 C 372.800 98.801,372.301 97.956,371.692 97.191 C 371.082 96.426,370.332 95.305,370.024 94.700 C 369.716 94.095,369.315 93.600,369.132 93.600 C 368.950 93.600,368.800 93.240,368.800 92.800 C 368.800 92.360,368.620 92.000,368.400 92.000 C 368.180 92.000,368.000 91.659,368.000 91.243 C 368.000 90.826,367.757 90.392,367.461 90.279 C 367.164 90.165,366.425 89.111,365.819 87.936 C 365.213 86.761,364.173 85.325,363.507 84.744 C 362.842 84.164,362.401 83.522,362.528 83.317 C 362.654 83.113,362.407 82.693,361.979 82.385 C 361.550 82.076,361.200 81.579,361.200 81.280 C 361.200 80.982,360.480 80.046,359.600 79.200 C 358.720 78.354,358.000 77.461,358.000 77.215 C 358.000 76.969,357.280 76.083,356.400 75.246 C 355.520 74.409,354.800 73.415,354.800 73.038 C 354.800 72.661,354.620 72.464,354.400 72.600 C 354.180 72.736,353.999 72.612,353.999 72.324 C 353.998 72.036,353.458 71.440,352.799 71.000 C 352.139 70.560,351.336 69.660,351.013 69.000 C 350.690 68.340,348.910 66.315,347.056 64.500 C 345.203 62.685,343.764 61.200,343.859 61.200 C 343.954 61.200,343.799 60.947,343.516 60.638 C 343.232 60.329,342.848 60.104,342.663 60.138 C 342.477 60.172,342.117 59.848,341.863 59.417 C 341.149 58.209,340.520 57.613,340.248 57.886 C 340.111 58.022,340.000 57.873,340.000 57.555 C 340.000 57.237,339.618 56.712,339.151 56.388 C 338.685 56.065,336.840 54.353,335.051 52.584 C 333.263 50.816,331.346 49.142,330.790 48.865 C 330.235 48.588,329.425 47.831,328.990 47.182 C 328.556 46.533,327.987 46.002,327.727 46.001 C 327.467 46.001,327.140 45.640,327.000 45.200 C 326.860 44.760,326.474 44.400,326.142 44.400 C 325.809 44.400,324.846 43.680,324.000 42.800 C 323.154 41.920,322.199 41.200,321.876 41.200 C 321.554 41.200,320.871 40.673,320.358 40.030 C 319.846 39.386,319.270 38.957,319.078 39.075 C 318.886 39.194,318.115 38.641,317.365 37.846 C 316.615 37.051,315.731 36.400,315.401 36.400 C 315.070 36.400,314.800 36.225,314.800 36.010 C 314.800 35.796,314.215 35.321,313.500 34.954 C 312.785 34.588,312.110 34.165,312.000 34.014 C 311.890 33.864,310.990 33.304,310.000 32.770 C 309.010 32.237,307.909 31.485,307.553 31.100 C 307.197 30.715,306.695 30.400,306.436 30.400 C 306.178 30.400,305.580 30.040,305.108 29.600 C 304.636 29.160,304.013 28.800,303.725 28.800 C 303.436 28.800,303.200 28.620,303.200 28.400 C 303.200 28.180,302.928 28.000,302.596 28.000 C 302.264 28.000,301.697 27.656,301.337 27.235 C 300.977 26.814,300.439 26.564,300.141 26.678 C 299.844 26.792,299.600 26.686,299.600 26.443 C 299.600 26.199,299.259 26.000,298.843 26.000 C 298.426 26.000,297.978 25.719,297.846 25.375 C 297.714 25.031,297.410 24.870,297.171 25.018 C 296.932 25.166,296.470 24.907,296.145 24.443 C 295.820 23.980,295.224 23.600,294.820 23.600 C 294.416 23.600,293.992 23.356,293.877 23.057 C 293.763 22.758,293.135 22.407,292.483 22.277 C 291.830 22.146,291.026 21.769,290.697 21.439 C 290.367 21.109,289.623 20.721,289.045 20.575 C 288.466 20.430,287.894 20.151,287.773 19.956 C 287.652 19.760,287.223 19.600,286.819 19.600 C 286.416 19.600,285.975 19.311,285.839 18.958 C 285.704 18.606,285.340 18.414,285.030 18.533 C 284.720 18.652,284.359 18.470,284.228 18.129 C 284.072 17.722,283.655 17.573,283.015 17.695 C 282.448 17.803,281.959 17.671,281.847 17.378 C 281.741 17.102,281.102 16.754,280.427 16.606 C 279.752 16.458,279.200 16.171,279.200 15.968 C 279.200 15.766,278.840 15.600,278.400 15.600 C 277.960 15.600,277.600 15.420,277.600 15.200 C 277.600 14.980,277.060 14.800,276.400 14.800 C 275.740 14.800,275.200 14.620,275.200 14.400 C 275.200 14.180,274.840 14.000,274.400 14.000 C 273.960 14.000,273.600 13.820,273.600 13.600 C 273.600 13.380,273.060 13.200,272.400 13.200 C 271.740 13.200,271.200 13.020,271.200 12.800 C 271.200 12.580,270.840 12.400,270.400 12.400 C 269.960 12.400,269.600 12.220,269.600 12.000 C 269.600 11.780,269.161 11.600,268.624 11.600 C 268.087 11.600,267.549 11.441,267.429 11.247 C 267.309 11.052,266.233 10.771,265.039 10.622 C 263.832 10.471,262.777 10.117,262.665 9.825 C 262.540 9.501,262.069 9.374,261.437 9.495 C 260.755 9.625,260.332 9.489,260.179 9.090 C 260.050 8.754,259.638 8.570,259.246 8.672 C 258.860 8.773,258.310 8.573,258.023 8.228 C 257.737 7.883,256.894 7.600,256.151 7.600 C 255.408 7.600,254.800 7.445,254.800 7.255 C 254.800 7.066,254.352 6.997,253.805 7.101 C 253.132 7.230,252.730 7.083,252.562 6.646 C 252.393 6.204,251.821 6.000,250.757 6.000 C 249.901 6.000,249.200 5.820,249.200 5.600 C 249.200 5.380,248.491 5.200,247.624 5.200 C 246.757 5.200,245.936 5.020,245.800 4.800 C 245.664 4.580,245.059 4.400,244.456 4.400 C 243.853 4.400,243.160 4.200,242.915 3.955 C 242.670 3.710,241.737 3.579,240.843 3.664 C 239.719 3.772,239.151 3.650,239.005 3.270 C 238.858 2.885,238.257 2.763,237.003 2.862 C 235.892 2.951,235.143 2.829,235.033 2.541 C 234.860 2.092,233.021 1.803,227.600 1.375 C 226.170 1.261,224.623 0.981,224.163 0.751 C 223.703 0.521,221.947 0.393,220.262 0.466 C 218.577 0.540,217.199 0.465,217.199 0.300 C 217.200 0.021,186.938 0.009,179.800 0.285 M222.577 25.320 C 223.063 25.806,223.928 26.000,225.605 26.000 C 226.896 26.000,228.064 26.180,228.200 26.400 C 228.336 26.620,229.247 26.800,230.224 26.800 C 231.201 26.800,232.000 26.964,232.000 27.164 C 232.000 27.365,233.035 27.616,234.300 27.722 C 236.571 27.912,238.431 28.252,239.600 28.690 C 239.930 28.814,240.671 28.878,241.247 28.833 C 241.823 28.788,242.575 29.032,242.918 29.375 C 243.262 29.719,244.085 30.000,244.748 30.000 C 245.411 30.000,246.064 30.180,246.200 30.400 C 246.336 30.620,246.876 30.800,247.400 30.800 C 247.924 30.800,248.475 30.997,248.624 31.238 C 248.773 31.479,249.498 31.606,250.236 31.520 C 250.973 31.434,251.650 31.552,251.739 31.782 C 251.828 32.012,253.048 32.522,254.450 32.915 C 255.853 33.309,257.313 33.804,257.695 34.015 C 258.077 34.227,258.752 34.400,259.195 34.400 C 259.638 34.400,260.000 34.580,260.000 34.800 C 260.000 35.020,260.405 35.200,260.900 35.199 C 261.395 35.198,262.610 35.582,263.600 36.052 C 267.826 38.057,268.622 38.402,269.025 38.401 C 269.259 38.400,270.195 38.760,271.106 39.200 C 272.016 39.640,272.950 40.000,273.181 40.000 C 273.411 40.000,273.601 40.135,273.603 40.300 C 273.607 40.665,275.549 41.600,276.303 41.600 C 276.602 41.600,276.736 41.780,276.600 42.000 C 276.464 42.220,276.723 42.400,277.176 42.400 C 277.629 42.400,278.000 42.580,278.000 42.800 C 278.000 43.020,278.360 43.200,278.800 43.200 C 279.240 43.200,279.600 43.380,279.600 43.600 C 279.600 43.820,279.960 44.000,280.400 44.000 C 280.840 44.000,281.200 44.180,281.200 44.400 C 281.200 44.620,281.560 44.800,282.000 44.800 C 282.440 44.800,282.800 44.980,282.800 45.200 C 282.800 45.420,283.158 45.600,283.597 45.600 C 284.035 45.600,284.607 45.942,284.868 46.360 C 285.129 46.778,285.581 47.029,285.871 46.917 C 286.162 46.806,286.400 46.914,286.400 47.157 C 286.400 47.401,286.741 47.600,287.157 47.600 C 287.574 47.600,288.017 47.867,288.142 48.193 C 288.267 48.520,288.636 48.684,288.961 48.560 C 289.305 48.428,289.769 48.681,290.072 49.167 C 290.358 49.625,290.827 50.000,291.113 50.000 C 291.399 50.000,292.020 50.360,292.492 50.800 C 292.964 51.240,293.587 51.600,293.875 51.600 C 294.164 51.600,294.400 51.780,294.400 52.000 C 294.400 52.220,294.642 52.400,294.938 52.400 C 295.234 52.400,295.802 52.760,296.200 53.200 C 296.598 53.640,297.167 54.000,297.465 54.000 C 297.762 54.000,298.409 54.466,298.903 55.035 C 299.396 55.604,300.340 56.321,301.000 56.627 C 302.658 57.397,303.542 58.018,304.804 59.300 C 305.399 59.905,306.057 60.400,306.265 60.400 C 306.473 60.400,307.331 61.030,308.172 61.800 C 309.013 62.570,309.857 63.200,310.048 63.200 C 310.239 63.200,311.449 64.280,312.737 65.600 C 314.024 66.920,315.260 68.000,315.482 68.000 C 316.026 68.000,332.000 83.929,332.000 84.472 C 332.000 84.707,332.888 85.760,333.972 86.811 C 335.057 87.862,335.833 88.834,335.697 88.970 C 335.560 89.106,336.293 90.015,337.324 90.990 C 338.356 91.964,339.200 92.975,339.200 93.235 C 339.200 93.495,339.650 94.125,340.200 94.635 C 340.750 95.145,341.200 95.831,341.200 96.161 C 341.200 96.491,341.435 96.904,341.722 97.080 C 342.009 97.256,342.774 98.120,343.422 99.000 C 344.070 99.880,344.735 100.660,344.900 100.733 C 345.065 100.807,345.200 101.118,345.200 101.425 C 345.200 101.732,345.919 102.932,346.798 104.092 C 347.677 105.251,348.397 106.359,348.398 106.553 C 348.399 106.747,348.731 107.197,349.136 107.553 C 349.541 107.909,349.984 108.654,350.121 109.208 C 350.257 109.762,350.736 110.610,351.185 111.091 C 351.633 111.573,352.000 112.244,352.000 112.583 C 352.000 112.922,352.180 113.200,352.400 113.200 C 352.620 113.200,352.800 113.472,352.800 113.805 C 352.800 114.625,353.646 116.074,354.500 116.718 C 354.885 117.008,355.200 117.511,355.200 117.835 C 355.200 118.160,355.450 118.521,355.756 118.638 C 356.061 118.756,356.227 119.175,356.124 119.571 C 356.016 119.983,356.196 120.390,356.546 120.524 C 356.881 120.653,357.273 121.385,357.417 122.151 C 357.561 122.918,357.950 123.649,358.281 123.776 C 358.613 123.903,358.781 124.272,358.656 124.599 C 358.527 124.935,358.634 125.149,358.905 125.095 C 359.167 125.043,359.448 125.450,359.529 126.000 C 359.610 126.550,359.865 127.229,360.095 127.510 C 360.326 127.790,360.412 128.121,360.288 128.245 C 360.164 128.369,360.588 129.363,361.231 130.453 C 361.874 131.543,362.400 132.783,362.400 133.208 C 362.400 133.633,362.759 134.570,363.199 135.290 C 363.638 136.011,363.998 136.879,363.999 137.220 C 364.000 138.037,364.917 139.993,365.300 139.997 C 365.465 139.999,365.600 140.540,365.600 141.200 C 365.600 141.860,365.760 142.400,365.955 142.400 C 366.150 142.400,366.425 143.165,366.566 144.100 C 366.892 146.264,367.808 148.936,368.277 149.092 C 368.475 149.158,368.569 149.805,368.484 150.529 C 368.383 151.393,368.548 152.025,368.965 152.371 C 369.314 152.661,369.600 153.315,369.600 153.825 C 369.600 154.335,369.780 154.864,370.000 155.000 C 370.220 155.136,370.400 155.867,370.400 156.624 C 370.400 157.381,370.549 158.000,370.731 158.000 C 370.913 158.000,370.979 158.564,370.877 159.254 C 370.745 160.155,370.885 160.616,371.374 160.890 C 371.849 161.155,372.020 161.678,371.939 162.614 C 371.876 163.353,371.953 164.087,372.112 164.245 C 372.270 164.404,372.400 165.294,372.400 166.224 C 372.400 167.401,372.593 167.989,373.037 168.159 C 373.538 168.351,373.645 168.874,373.537 170.602 C 373.457 171.893,373.565 172.801,373.800 172.800 C 374.039 172.799,374.146 173.842,374.066 175.399 C 373.958 177.487,374.057 178.047,374.566 178.242 C 375.075 178.437,375.200 179.145,375.200 181.819 C 375.200 183.653,375.380 185.264,375.600 185.400 C 376.237 185.794,376.139 215.972,375.500 216.216 C 375.147 216.351,375.039 217.237,375.134 219.234 C 375.242 221.522,375.140 222.156,374.598 222.552 C 374.054 222.950,373.954 223.584,374.064 225.922 C 374.147 227.679,374.043 228.801,373.797 228.801 C 373.565 228.800,373.455 229.562,373.537 230.597 C 373.646 231.967,373.528 232.453,373.040 232.640 C 372.593 232.812,372.400 233.395,372.400 234.576 C 372.400 235.506,372.272 236.394,372.116 236.550 C 371.960 236.706,371.884 237.546,371.947 238.415 C 372.018 239.399,371.841 240.216,371.479 240.578 C 371.159 240.898,370.773 242.156,370.621 243.374 C 370.468 244.591,370.177 245.691,369.972 245.817 C 369.767 245.944,369.600 246.737,369.600 247.581 C 369.600 248.623,369.393 249.194,368.954 249.362 C 368.522 249.528,368.370 249.932,368.495 250.585 C 368.602 251.144,368.471 251.641,368.188 251.749 C 367.917 251.853,367.598 252.537,367.481 253.269 C 367.051 255.943,366.326 258.400,365.968 258.400 C 365.765 258.400,365.600 258.726,365.600 259.125 C 365.600 259.524,365.240 260.595,364.800 261.506 C 364.360 262.416,364.000 263.429,364.000 263.757 C 364.000 264.085,363.820 264.464,363.600 264.600 C 363.380 264.736,363.200 265.217,363.200 265.669 C 363.200 266.121,362.864 267.146,362.453 267.946 C 361.087 270.602,360.723 271.485,360.426 272.848 C 360.265 273.592,359.955 274.166,359.737 274.124 C 359.520 274.082,359.355 274.442,359.371 274.924 C 359.387 275.408,359.183 275.757,358.914 275.705 C 358.628 275.649,358.525 275.861,358.665 276.224 C 358.798 276.572,358.592 277.064,358.189 277.359 C 357.798 277.645,357.606 278.086,357.762 278.339 C 357.933 278.614,357.786 278.800,357.400 278.800 C 357.014 278.800,356.867 278.986,357.038 279.261 C 357.194 279.514,357.002 279.955,356.611 280.241 C 356.220 280.528,356.001 281.025,356.125 281.348 C 356.248 281.670,356.091 282.033,355.775 282.154 C 355.459 282.276,355.200 282.640,355.200 282.965 C 355.200 283.289,354.885 283.790,354.500 284.077 C 353.743 284.643,351.997 287.878,351.999 288.713 C 352.000 288.994,351.746 289.322,351.437 289.441 C 351.127 289.560,350.651 290.230,350.380 290.929 C 349.771 292.497,347.978 295.288,347.301 295.720 C 347.026 295.896,346.800 296.273,346.800 296.558 C 346.800 296.843,346.440 297.402,346.000 297.800 C 345.560 298.198,345.200 298.856,345.200 299.262 C 345.200 299.668,345.050 300.000,344.867 300.000 C 344.684 300.000,343.952 300.900,343.239 302.000 C 342.526 303.100,341.776 304.000,341.571 304.000 C 341.367 304.000,341.200 304.263,341.200 304.585 C 341.200 304.906,340.480 305.882,339.600 306.753 C 338.720 307.624,338.000 308.580,338.000 308.878 C 338.000 309.175,337.280 310.040,336.400 310.800 C 335.520 311.560,334.797 312.456,334.792 312.791 C 334.788 313.126,333.438 314.725,331.792 316.344 C 330.147 317.962,328.800 319.477,328.800 319.708 C 328.800 320.223,321.661 327.200,321.134 327.200 C 320.928 327.200,319.223 328.775,317.346 330.700 C 315.470 332.625,313.743 334.146,313.509 334.081 C 313.275 334.015,312.424 334.690,311.618 335.581 C 310.812 336.471,309.896 337.200,309.584 337.200 C 309.271 337.200,308.250 338.022,307.314 339.027 C 306.378 340.032,305.456 340.758,305.265 340.640 C 305.074 340.522,304.397 341.050,303.761 341.813 C 303.125 342.576,302.288 343.200,301.902 343.200 C 301.516 343.200,301.200 343.347,301.200 343.526 C 301.200 343.705,300.615 344.154,299.900 344.523 C 298.221 345.391,297.234 346.033,296.246 346.900 C 295.808 347.285,295.256 347.600,295.021 347.600 C 294.785 347.600,294.368 347.960,294.093 348.400 C 293.818 348.840,293.235 349.200,292.797 349.200 C 292.358 349.200,292.000 349.380,292.000 349.600 C 292.000 349.820,291.640 350.000,291.200 350.000 C 290.760 350.000,290.400 350.141,290.400 350.314 C 290.400 350.486,289.230 351.161,287.801 351.814 C 286.371 352.466,285.201 353.236,285.201 353.524 C 285.200 353.812,285.020 353.936,284.800 353.800 C 284.580 353.664,284.400 353.743,284.400 353.976 C 284.400 354.209,284.040 354.400,283.600 354.400 C 283.160 354.400,282.800 354.653,282.800 354.963 C 282.800 355.328,282.520 355.452,282.000 355.316 C 281.448 355.172,281.200 355.304,281.200 355.741 C 281.200 356.162,280.982 356.291,280.550 356.126 C 280.160 355.976,279.753 356.140,279.531 356.538 C 279.327 356.902,278.899 357.200,278.580 357.200 C 278.261 357.200,278.000 357.363,278.000 357.563 C 278.000 357.762,277.632 357.829,277.183 357.711 C 276.625 357.566,276.403 357.673,276.483 358.049 C 276.556 358.391,276.268 358.589,275.724 358.571 C 275.242 358.555,274.882 358.730,274.924 358.961 C 274.966 359.192,274.595 359.443,274.100 359.518 C 273.605 359.594,273.200 359.815,273.200 360.010 C 273.200 360.204,272.525 360.473,271.700 360.608 C 270.875 360.742,269.508 361.200,268.662 361.626 C 267.816 362.052,266.953 362.400,266.743 362.400 C 266.533 362.400,265.616 362.760,264.706 363.200 C 263.795 363.640,262.849 364.000,262.605 364.000 C 261.928 364.000,260.007 364.960,260.003 365.300 C 260.001 365.465,259.732 365.600,259.405 365.600 C 258.886 365.600,258.790 361.917,258.652 336.500 C 258.499 308.360,258.330 303.200,257.561 303.200 C 257.363 303.200,257.200 302.311,257.200 301.224 C 257.200 300.137,257.020 299.136,256.800 299.000 C 256.580 298.864,256.400 298.313,256.400 297.776 C 256.400 297.239,256.220 296.800,256.000 296.800 C 255.780 296.800,255.600 296.260,255.600 295.600 C 255.600 294.940,255.465 294.399,255.300 294.397 C 254.941 294.393,254.000 292.456,254.000 291.720 C 254.000 291.434,253.820 291.200,253.600 291.200 C 253.380 291.200,253.200 290.750,253.200 290.200 C 253.200 289.356,253.387 289.200,254.400 289.200 C 255.060 289.200,255.600 289.020,255.600 288.800 C 255.600 288.580,256.140 288.400,256.800 288.400 C 257.460 288.400,258.000 288.220,258.000 288.000 C 258.000 287.780,258.540 287.600,259.200 287.600 C 259.860 287.600,260.400 287.420,260.400 287.200 C 260.400 286.980,261.019 286.800,261.776 286.800 C 262.533 286.800,263.264 286.620,263.400 286.400 C 263.536 286.180,263.961 286.000,264.344 286.000 C 265.219 286.000,267.193 285.101,267.197 284.700 C 267.199 284.535,267.549 284.400,267.976 284.400 C 268.403 284.400,268.851 284.240,268.972 284.045 C 269.093 283.850,269.837 283.570,270.626 283.422 C 271.988 283.166,274.560 281.944,275.380 281.162 C 275.589 280.963,276.084 280.800,276.480 280.800 C 276.876 280.800,277.200 280.620,277.200 280.400 C 277.200 280.180,277.457 280.000,277.771 280.000 C 278.086 280.000,278.591 279.752,278.894 279.449 C 279.197 279.146,280.020 278.771,280.722 278.617 C 281.424 278.463,282.226 278.036,282.504 277.668 C 283.117 276.859,284.582 276.000,285.352 276.000 C 285.661 276.000,286.025 275.711,286.161 275.358 C 286.296 275.006,286.643 274.808,286.932 274.919 C 287.221 275.029,287.671 274.778,287.932 274.360 C 288.193 273.942,288.687 273.600,289.029 273.600 C 289.372 273.600,290.106 273.060,290.661 272.400 C 291.217 271.740,291.943 271.200,292.275 271.200 C 292.607 271.200,293.383 270.660,294.000 270.000 C 294.617 269.340,295.278 268.800,295.470 268.800 C 295.662 268.800,297.250 267.360,299.000 265.600 C 300.750 263.840,302.372 262.400,302.606 262.400 C 303.261 262.400,307.200 258.558,307.200 257.919 C 307.200 257.607,307.916 256.733,308.791 255.976 C 309.666 255.219,310.386 254.311,310.391 253.958 C 310.396 253.605,310.931 252.876,311.579 252.339 C 312.227 251.802,312.943 250.876,313.169 250.281 C 313.395 249.687,313.736 249.200,313.927 249.200 C 314.118 249.200,314.613 248.570,315.028 247.800 C 315.443 247.030,315.921 246.400,316.091 246.400 C 316.261 246.400,316.400 246.158,316.400 245.861 C 316.400 244.998,317.637 242.761,318.244 242.528 C 318.550 242.410,318.800 241.974,318.800 241.557 C 318.800 241.141,318.980 240.800,319.200 240.800 C 319.420 240.800,319.600 240.440,319.600 240.000 C 319.600 239.560,319.780 239.200,320.000 239.200 C 320.220 239.200,320.400 238.840,320.400 238.400 C 320.400 237.960,320.535 237.599,320.700 237.597 C 321.147 237.592,322.000 235.574,322.000 234.520 C 322.000 234.014,322.136 233.600,322.302 233.600 C 322.469 233.600,322.809 233.105,323.058 232.500 C 324.391 229.266,324.616 228.800,324.842 228.800 C 324.978 228.800,325.003 228.352,324.899 227.805 C 324.770 227.132,324.917 226.730,325.354 226.562 C 325.709 226.426,326.000 225.894,326.000 225.381 C 326.000 224.867,326.180 224.336,326.400 224.200 C 326.620 224.064,326.800 223.513,326.800 222.976 C 326.800 222.439,326.980 222.000,327.200 222.000 C 327.420 222.000,327.600 221.291,327.600 220.424 C 327.600 219.557,327.768 218.743,327.973 218.617 C 328.178 218.490,328.473 216.934,328.628 215.160 C 328.815 213.014,329.092 211.863,329.455 211.724 C 329.834 211.578,330.000 210.760,330.000 209.037 C 330.000 207.675,330.181 206.379,330.403 206.157 C 330.957 205.603,330.964 181.204,330.410 180.650 C 330.184 180.424,330.000 179.125,330.000 177.763 C 330.000 175.877,329.850 175.228,329.370 175.044 C 328.901 174.864,328.768 174.344,328.849 173.014 C 328.910 172.031,328.834 171.100,328.680 170.946 C 328.526 170.793,328.400 169.887,328.400 168.933 C 328.400 167.980,328.220 167.200,328.000 167.200 C 327.780 167.200,327.600 166.480,327.600 165.600 C 327.600 164.720,327.420 164.000,327.200 164.000 C 326.980 164.000,326.800 163.460,326.800 162.800 C 326.800 162.140,326.620 161.600,326.400 161.600 C 326.180 161.600,326.000 161.060,326.000 160.400 C 326.000 159.653,325.811 159.238,325.500 159.300 C 325.194 159.361,325.006 158.973,325.016 158.300 C 325.024 157.695,324.889 157.200,324.716 157.200 C 324.542 157.200,324.400 156.660,324.400 156.000 C 324.400 155.340,324.220 154.800,324.000 154.800 C 323.780 154.800,323.600 154.440,323.600 154.000 C 323.600 153.560,323.420 153.200,323.200 153.200 C 322.980 153.200,322.800 152.786,322.800 152.280 C 322.800 151.226,321.947 149.208,321.500 149.203 C 321.335 149.201,321.200 149.018,321.200 148.796 C 321.200 148.334,319.562 144.703,319.217 144.400 C 319.092 144.290,318.558 143.345,318.032 142.300 C 317.505 141.255,316.923 140.400,316.737 140.400 C 316.552 140.400,316.400 140.065,316.400 139.656 C 316.400 139.247,315.950 138.249,315.400 137.438 C 314.850 136.628,314.398 135.837,314.396 135.682 C 314.394 135.527,313.838 134.961,313.159 134.426 L 311.926 133.451 312.209 128.026 C 312.365 125.041,312.646 122.409,312.833 122.175 C 313.368 121.508,313.491 100.843,312.961 100.640 C 312.705 100.542,312.406 98.664,312.244 96.136 C 312.091 93.751,311.793 91.740,311.583 91.667 C 311.372 91.593,311.200 91.109,311.200 90.590 C 311.200 90.072,311.020 89.536,310.800 89.400 C 310.580 89.264,310.400 88.623,310.400 87.976 C 310.400 87.329,310.220 86.800,310.000 86.800 C 309.780 86.800,309.600 86.361,309.600 85.824 C 309.600 85.287,309.420 84.736,309.200 84.600 C 308.980 84.464,308.800 84.003,308.800 83.576 C 308.800 83.149,308.620 82.800,308.400 82.800 C 308.180 82.800,308.000 82.480,308.000 82.088 C 308.000 81.697,307.640 81.117,307.200 80.800 C 306.760 80.483,306.400 80.025,306.400 79.782 C 306.400 79.178,302.108 74.825,301.808 75.125 C 301.676 75.257,301.152 74.882,300.643 74.290 C 300.135 73.698,299.600 73.333,299.455 73.478 C 299.310 73.623,298.938 73.395,298.628 72.971 C 297.974 72.076,282.798 71.356,282.799 72.220 C 282.800 72.467,282.202 72.570,281.344 72.469 C 280.288 72.346,279.788 72.478,279.524 72.950 C 279.319 73.316,278.656 73.600,278.004 73.600 C 277.368 73.600,276.741 73.772,276.611 73.983 C 276.481 74.193,276.103 74.261,275.772 74.134 C 275.441 74.007,274.823 74.217,274.398 74.602 C 273.951 75.007,273.284 75.211,272.812 75.087 C 272.314 74.957,271.863 75.116,271.650 75.497 C 271.434 75.882,270.986 76.037,270.476 75.904 C 269.959 75.769,269.566 75.911,269.422 76.286 C 269.296 76.614,268.931 76.782,268.609 76.659 C 268.288 76.536,267.919 76.607,267.789 76.817 C 267.659 77.028,267.220 77.200,266.814 77.200 C 266.165 77.200,262.938 78.662,262.400 79.200 C 261.980 79.620,258.702 81.200,258.251 81.200 C 257.990 81.200,257.517 81.560,257.200 82.000 C 256.883 82.440,256.402 82.800,256.131 82.800 C 255.271 82.800,253.617 83.703,253.833 84.054 C 253.948 84.239,253.764 84.284,253.424 84.154 C 253.066 84.017,252.707 84.176,252.570 84.533 C 252.440 84.872,252.109 85.063,251.835 84.958 C 251.561 84.853,251.006 85.207,250.602 85.745 C 250.198 86.284,249.629 86.632,249.337 86.520 C 249.045 86.409,248.696 86.605,248.561 86.956 C 248.427 87.308,248.140 87.487,247.926 87.354 C 247.711 87.221,247.055 87.562,246.467 88.112 C 244.366 90.080,240.000 91.625,240.000 90.400 C 240.000 90.180,239.184 90.000,238.187 90.000 C 237.054 90.000,236.299 89.802,236.172 89.472 C 236.041 89.130,235.527 89.008,234.719 89.126 C 233.889 89.248,233.319 89.104,233.021 88.697 C 232.595 88.114,231.895 87.989,225.500 87.356 C 224.235 87.231,223.200 86.951,223.200 86.733 C 223.200 86.495,222.003 86.389,220.203 86.468 C 218.073 86.562,217.152 86.455,217.016 86.100 C 216.878 85.738,215.499 85.600,212.036 85.600 C 209.275 85.600,207.143 85.431,207.000 85.200 C 206.613 84.574,193.225 84.670,192.984 85.300 C 192.842 85.671,191.589 85.768,188.142 85.675 C 185.224 85.596,183.332 85.708,183.065 85.975 C 182.831 86.209,181.341 86.400,179.753 86.400 C 177.876 86.400,176.811 86.567,176.708 86.876 C 176.605 87.186,175.769 87.317,174.315 87.249 C 173.049 87.191,171.966 87.331,171.817 87.573 C 171.672 87.808,170.593 88.000,169.419 88.000 C 167.828 88.000,167.223 88.163,167.039 88.643 C 166.859 89.111,166.415 89.243,165.407 89.125 C 164.571 89.027,163.951 89.152,163.840 89.439 C 163.740 89.701,162.880 90.012,161.929 90.132 C 160.978 90.251,159.595 90.473,158.856 90.626 C 158.116 90.779,157.396 90.745,157.256 90.552 C 156.885 90.041,155.295 89.200,154.702 89.200 C 154.422 89.200,153.963 88.833,153.684 88.385 C 153.213 87.632,151.541 86.677,150.600 86.623 C 150.380 86.610,149.980 86.306,149.711 85.947 C 149.194 85.259,146.068 83.517,144.431 83.005 C 143.898 82.838,143.099 82.364,142.655 81.951 C 142.212 81.538,141.613 81.200,141.325 81.200 C 141.036 81.200,140.800 81.020,140.800 80.800 C 140.800 80.580,140.440 80.400,140.000 80.400 C 139.560 80.400,139.200 80.220,139.200 80.000 C 139.200 79.780,138.928 79.600,138.595 79.600 C 137.988 79.600,136.375 78.821,136.000 78.347 C 135.741 78.020,132.137 76.800,131.429 76.800 C 131.130 76.800,130.791 76.552,130.674 76.249 C 130.540 75.900,130.087 75.771,129.432 75.896 C 128.821 76.013,128.400 75.911,128.400 75.647 C 128.400 75.401,127.869 75.200,127.220 75.200 C 126.571 75.200,125.887 74.927,125.700 74.592 C 125.473 74.188,124.451 73.900,122.644 73.731 C 120.930 73.571,119.852 73.279,119.721 72.939 C 119.597 72.615,118.894 72.400,117.957 72.400 C 117.101 72.400,116.400 72.265,116.401 72.100 C 116.402 71.366,101.950 72.180,101.391 72.945 C 101.095 73.349,100.661 73.561,100.427 73.416 C 100.192 73.271,100.000 73.343,100.000 73.576 C 100.000 73.809,99.753 74.000,99.452 74.000 C 98.790 74.000,93.600 79.112,93.600 79.764 C 93.600 80.016,93.256 80.471,92.836 80.774 C 92.416 81.076,92.165 81.565,92.278 81.859 C 92.391 82.153,92.194 82.504,91.842 82.639 C 91.489 82.775,91.200 83.226,91.200 83.643 C 91.200 84.059,91.037 84.400,90.837 84.400 C 90.638 84.400,90.575 84.783,90.697 85.251 C 90.838 85.787,90.690 86.230,90.297 86.450 C 89.904 86.670,89.756 87.112,89.897 87.650 C 90.036 88.181,89.892 88.629,89.513 88.841 C 89.126 89.057,88.977 89.543,89.099 90.185 C 89.230 90.868,89.085 91.269,88.646 91.438 C 88.173 91.619,88.000 92.211,88.000 93.643 C 88.000 94.784,87.819 95.600,87.566 95.600 C 87.285 95.600,87.179 96.514,87.266 98.197 C 87.360 100.009,87.249 100.851,86.900 100.984 C 86.294 101.216,86.168 121.201,86.769 121.820 C 86.972 122.029,87.243 123.550,87.373 125.200 C 87.502 126.850,87.711 129.415,87.837 130.900 C 88.007 132.914,87.939 133.600,87.566 133.600 C 87.291 133.600,87.178 133.711,87.314 133.848 C 87.609 134.142,86.628 135.200,86.060 135.200 C 85.842 135.200,85.545 135.742,85.399 136.403 C 85.254 137.065,85.006 137.528,84.849 137.430 C 84.692 137.333,84.142 138.142,83.627 139.227 C 83.111 140.312,82.535 141.200,82.345 141.200 C 82.155 141.200,82.000 141.465,82.000 141.788 C 82.000 142.111,81.611 143.056,81.135 143.888 C 79.063 147.511,77.200 151.366,77.200 152.032 C 77.200 152.428,77.028 152.859,76.817 152.989 C 76.607 153.119,76.536 153.490,76.660 153.813 C 76.784 154.136,76.686 154.400,76.443 154.400 C 76.199 154.400,76.000 154.904,76.000 155.520 C 76.000 156.136,75.835 156.811,75.634 157.020 C 75.432 157.229,75.203 157.850,75.124 158.400 C 75.041 158.981,74.755 159.351,74.443 159.284 C 74.056 159.201,73.955 159.510,74.083 160.384 C 74.199 161.178,74.090 161.600,73.768 161.600 C 73.469 161.600,73.359 161.920,73.488 162.413 C 73.604 162.860,73.422 163.535,73.082 163.913 C 72.717 164.319,72.344 165.826,72.171 167.600 C 72.004 169.310,71.649 170.772,71.347 171.000 C 70.992 171.267,70.727 172.897,70.548 175.900 C 70.400 178.375,70.127 180.400,69.940 180.400 C 69.753 180.400,69.600 182.585,69.600 185.256 C 69.600 189.418,69.500 190.186,68.900 190.627 C 68.233 191.118,68.233 191.156,68.900 191.414 C 69.531 191.659,69.600 192.405,69.600 199.019 C 69.600 203.782,69.750 206.445,70.027 206.616 C 70.270 206.767,70.412 207.894,70.357 209.237 C 70.304 210.534,70.382 211.716,70.530 211.864 C 70.679 212.012,70.800 212.801,70.800 213.618 C 70.800 214.485,71.064 215.321,71.435 215.629 C 71.853 215.976,72.017 216.607,71.915 217.478 C 71.823 218.265,71.938 218.800,72.200 218.800 C 72.462 218.800,72.577 219.335,72.485 220.122 C 72.383 220.993,72.547 221.624,72.965 221.971 C 73.314 222.261,73.600 222.926,73.600 223.449 C 73.600 223.972,73.774 224.400,73.987 224.400 C 74.201 224.400,74.269 224.677,74.139 225.015 C 74.009 225.353,74.217 225.977,74.602 226.402 C 75.017 226.861,75.211 227.513,75.081 228.011 C 74.943 228.540,75.081 228.933,75.454 229.076 C 75.780 229.201,75.949 229.557,75.830 229.867 C 75.711 230.177,75.880 230.533,76.207 230.658 C 76.533 230.783,76.801 231.181,76.802 231.543 C 76.804 231.904,77.074 232.716,77.402 233.346 C 77.731 233.976,78.000 234.831,78.000 235.246 C 78.000 235.661,78.135 236.001,78.300 236.003 C 78.659 236.007,79.600 237.944,79.600 238.680 C 79.600 238.966,79.780 239.200,80.000 239.200 C 80.220 239.200,80.400 239.560,80.400 240.000 C 80.400 240.440,80.580 240.800,80.800 240.800 C 81.020 240.800,81.200 241.036,81.200 241.325 C 81.200 241.613,81.535 242.208,81.943 242.647 C 82.352 243.086,82.901 244.094,83.163 244.887 C 83.425 245.680,83.900 246.430,84.219 246.552 C 84.539 246.675,84.800 247.023,84.800 247.325 C 84.800 247.628,85.160 248.202,85.600 248.600 C 86.040 248.998,86.400 249.656,86.400 250.062 C 86.400 250.484,86.685 250.800,87.067 250.800 C 87.433 250.800,87.622 250.911,87.486 251.048 C 87.209 251.324,88.156 252.400,88.675 252.400 C 89.085 252.400,90.124 254.009,89.875 254.258 C 89.776 254.358,90.503 255.225,91.492 256.185 C 92.633 257.295,93.177 258.113,92.983 258.428 C 92.785 258.747,92.841 258.822,93.138 258.638 C 93.392 258.481,93.600 258.564,93.600 258.823 C 93.600 259.401,96.828 262.400,97.451 262.400 C 97.700 262.400,99.343 263.840,101.103 265.600 C 102.863 267.360,104.605 268.800,104.975 268.800 C 105.345 268.800,105.536 268.980,105.400 269.200 C 105.264 269.420,105.463 269.600,105.843 269.600 C 106.223 269.600,106.422 269.711,106.286 269.848 C 105.939 270.194,107.018 271.200,107.736 271.200 C 108.062 271.200,108.783 271.740,109.339 272.400 C 109.894 273.060,110.628 273.600,110.971 273.600 C 111.313 273.600,111.807 273.942,112.068 274.360 C 112.329 274.778,112.752 275.040,113.007 274.942 C 113.263 274.844,113.703 275.042,113.985 275.382 C 114.267 275.722,114.746 276.000,115.049 276.000 C 115.352 276.000,115.600 276.180,115.600 276.400 C 115.600 276.620,115.941 276.800,116.357 276.800 C 116.774 276.800,117.219 277.073,117.347 277.406 C 117.589 278.037,119.470 278.980,120.247 278.859 C 120.492 278.821,120.919 279.062,121.196 279.395 C 121.472 279.728,121.946 280.000,122.249 280.000 C 122.552 280.000,122.801 280.135,122.803 280.300 C 122.807 280.659,124.744 281.600,125.480 281.600 C 125.766 281.600,126.000 281.780,126.000 282.000 C 126.000 282.220,126.345 282.400,126.767 282.400 C 127.188 282.400,127.595 282.584,127.670 282.809 C 127.745 283.035,128.525 283.332,129.403 283.471 C 130.281 283.610,131.090 283.831,131.200 283.962 C 131.639 284.484,134.921 286.000,135.614 286.000 C 136.020 286.000,136.464 286.180,136.600 286.400 C 136.736 286.620,137.467 286.800,138.224 286.800 C 138.981 286.800,139.600 286.980,139.600 287.200 C 139.600 287.420,140.140 287.600,140.800 287.600 C 141.460 287.600,142.000 287.780,142.000 288.000 C 142.000 288.220,142.529 288.400,143.176 288.400 C 143.823 288.400,144.464 288.580,144.600 288.800 C 144.736 289.020,145.287 289.200,145.824 289.200 C 146.598 289.200,146.800 289.406,146.800 290.200 C 146.800 290.750,146.620 291.200,146.400 291.200 C 146.180 291.200,146.000 291.560,146.000 292.000 C 146.000 292.440,145.820 292.800,145.600 292.800 C 145.380 292.800,145.200 293.160,145.200 293.600 C 145.200 294.040,145.020 294.400,144.800 294.400 C 144.580 294.400,144.400 294.929,144.400 295.576 C 144.400 296.223,144.233 296.856,144.028 296.983 C 143.823 297.109,143.529 298.245,143.374 299.506 C 143.219 300.768,142.903 301.921,142.672 302.070 C 142.440 302.218,142.297 303.318,142.352 304.517 C 142.431 306.227,142.313 306.748,141.798 306.946 C 141.390 307.102,141.189 307.551,141.265 308.133 C 141.446 309.516,140.505 310.196,137.600 310.780 C 134.315 311.441,124.900 311.780,124.268 311.260 C 124.011 311.048,122.931 310.745,121.868 310.587 C 120.806 310.429,119.846 310.064,119.735 309.775 C 119.624 309.487,119.309 309.337,119.035 309.442 C 118.761 309.547,118.193 309.176,117.774 308.617 C 117.354 308.057,116.824 307.600,116.597 307.600 C 115.995 307.600,110.995 302.653,110.148 301.220 C 109.752 300.549,109.286 300.000,109.114 300.000 C 108.941 300.000,108.800 299.758,108.800 299.462 C 108.800 299.166,108.440 298.598,108.000 298.200 C 107.560 297.802,107.200 297.184,107.200 296.826 C 107.200 296.469,106.840 295.917,106.400 295.600 C 105.960 295.283,105.600 294.795,105.600 294.515 C 105.600 294.236,105.060 293.491,104.400 292.860 C 103.740 292.229,103.200 291.522,103.200 291.287 C 103.200 291.053,102.480 290.156,101.600 289.293 C 100.720 288.431,100.000 287.466,100.000 287.149 C 100.000 286.832,99.415 286.237,98.700 285.827 C 97.985 285.416,96.371 284.028,95.112 282.740 C 93.854 281.453,92.565 280.400,92.248 280.400 C 91.931 280.400,91.217 279.860,90.661 279.200 C 90.106 278.540,89.370 278.000,89.026 278.000 C 88.682 278.000,88.400 277.820,88.400 277.600 C 88.400 277.380,88.080 277.200,87.688 277.200 C 87.297 277.200,86.724 276.850,86.415 276.421 C 86.107 275.993,85.729 275.720,85.576 275.815 C 85.247 276.018,82.913 274.907,82.599 274.398 C 82.479 274.204,81.531 273.924,80.491 273.774 C 79.451 273.625,78.272 273.214,77.871 272.863 C 77.284 272.348,75.859 272.192,70.571 272.065 L 64.000 271.906 64.000 274.753 C 64.000 276.384,64.171 277.600,64.400 277.600 C 64.641 277.600,64.800 279.267,64.800 281.800 C 64.800 284.333,64.959 286.000,65.200 286.000 C 65.444 286.000,65.600 287.867,65.600 290.800 L 65.600 295.600 66.800 295.600 C 67.460 295.600,68.000 295.780,68.000 296.000 C 68.000 296.220,68.780 296.400,69.733 296.400 C 70.687 296.400,71.599 296.533,71.762 296.695 C 71.924 296.857,72.269 297.011,72.528 297.037 C 73.504 297.136,74.800 297.706,74.800 298.036 C 74.800 298.225,75.348 298.663,76.017 299.009 C 77.564 299.809,84.000 306.191,84.000 306.925 C 84.000 307.228,84.360 307.802,84.800 308.200 C 85.240 308.598,85.600 309.074,85.600 309.257 C 85.600 309.593,86.054 310.201,88.131 312.645 C 88.753 313.377,89.153 314.152,89.020 314.368 C 88.887 314.583,89.323 315.163,89.989 315.655 C 90.655 316.148,91.200 316.762,91.200 317.021 C 91.200 317.831,100.917 327.360,102.600 328.201 C 103.480 328.640,104.418 329.290,104.684 329.645 C 105.195 330.325,109.153 332.400,109.940 332.400 C 110.193 332.400,110.400 332.601,110.400 332.847 C 110.400 333.107,110.816 333.214,111.400 333.102 C 111.950 332.997,112.400 333.066,112.400 333.255 C 112.400 333.445,112.839 333.600,113.376 333.600 C 113.913 333.600,114.464 333.780,114.600 334.000 C 114.736 334.220,115.377 334.400,116.024 334.400 C 116.671 334.400,117.200 334.580,117.200 334.800 C 117.200 335.020,118.010 335.200,119.000 335.200 C 119.990 335.200,120.800 335.380,120.800 335.600 C 120.800 335.835,122.202 336.000,124.205 336.000 C 126.199 336.000,127.936 336.203,128.395 336.490 C 129.015 336.877,129.283 336.877,129.670 336.490 C 129.993 336.167,131.557 336.000,134.256 336.000 C 136.556 336.000,138.461 335.825,138.600 335.600 C 138.736 335.380,139.377 335.200,140.024 335.200 L 141.200 335.200 141.200 350.400 C 141.200 363.644,141.123 365.600,140.600 365.600 C 140.270 365.600,139.999 365.465,139.997 365.300 C 139.993 364.917,138.037 364.000,137.220 363.999 C 136.879 363.998,136.011 363.638,135.290 363.199 C 134.570 362.759,133.635 362.400,133.213 362.400 C 132.791 362.400,131.850 362.053,131.123 361.629 C 130.395 361.205,129.125 360.735,128.300 360.585 C 127.475 360.434,126.800 360.164,126.800 359.983 C 126.800 359.803,126.395 359.594,125.900 359.518 C 125.405 359.443,125.043 359.167,125.095 358.905 C 125.149 358.634,124.935 358.527,124.599 358.656 C 124.272 358.781,123.903 358.613,123.776 358.281 C 123.649 357.950,122.932 357.564,122.183 357.423 C 121.434 357.283,120.659 356.877,120.460 356.522 C 120.245 356.137,119.837 355.977,119.450 356.126 C 119.092 356.263,118.800 356.205,118.800 355.997 C 118.800 355.790,118.011 355.261,117.047 354.822 C 116.083 354.382,115.189 353.748,115.060 353.412 C 114.931 353.075,114.459 352.800,114.013 352.800 C 113.566 352.800,113.200 352.620,113.200 352.400 C 113.200 352.180,112.840 352.000,112.400 352.000 C 111.960 352.000,111.600 351.820,111.600 351.600 C 111.600 351.380,111.234 351.200,110.787 351.200 C 110.341 351.200,109.871 350.930,109.745 350.600 C 109.618 350.270,109.174 350.000,108.757 350.000 C 108.341 350.000,108.000 349.820,108.000 349.600 C 108.000 349.380,107.758 349.200,107.462 349.200 C 107.166 349.200,106.598 348.840,106.200 348.400 C 105.802 347.960,105.262 347.600,105.000 347.600 C 104.738 347.600,104.198 347.240,103.800 346.800 C 103.402 346.360,102.745 346.000,102.341 346.000 C 101.937 346.000,101.382 345.640,101.107 345.200 C 100.832 344.760,100.334 344.400,100.000 344.400 C 99.666 344.400,99.163 344.033,98.883 343.584 C 98.603 343.136,98.193 342.881,97.971 343.018 C 97.750 343.155,96.977 342.620,96.254 341.831 C 95.530 341.041,94.839 340.494,94.718 340.615 C 94.597 340.736,93.711 340.020,92.749 339.024 C 91.787 338.028,90.768 337.210,90.484 337.207 C 90.200 337.203,89.255 336.450,88.383 335.534 C 87.512 334.618,86.716 333.950,86.616 334.051 C 86.515 334.151,84.789 332.651,82.780 330.717 C 80.770 328.783,78.969 327.200,78.777 327.200 C 78.228 327.200,71.200 320.043,71.200 319.484 C 71.200 319.209,69.779 317.603,68.043 315.916 C 66.306 314.228,64.981 312.752,65.099 312.635 C 65.216 312.518,64.521 311.630,63.556 310.661 C 62.590 309.693,61.746 308.653,61.680 308.350 C 61.614 308.048,60.939 307.252,60.180 306.583 C 59.421 305.913,58.800 305.140,58.800 304.864 C 58.800 304.589,58.388 303.951,57.884 303.447 C 57.380 302.944,56.349 301.557,55.592 300.366 C 54.836 299.175,53.988 297.962,53.708 297.671 C 53.429 297.381,53.200 296.914,53.200 296.633 C 53.200 296.353,52.840 295.798,52.400 295.400 C 51.960 295.002,51.600 294.516,51.600 294.321 C 51.600 294.126,51.240 293.580,50.800 293.108 C 50.360 292.636,50.000 292.013,50.000 291.725 C 50.000 291.436,49.820 291.200,49.600 291.200 C 49.380 291.200,49.200 290.937,49.200 290.616 C 49.200 290.294,48.821 289.678,48.357 289.246 C 47.894 288.814,47.635 288.266,47.783 288.028 C 47.930 287.789,47.759 287.482,47.402 287.346 C 47.046 287.209,46.849 286.850,46.964 286.548 C 47.080 286.247,47.001 286.000,46.787 286.000 C 46.574 286.000,46.400 285.764,46.400 285.475 C 46.400 285.187,46.085 284.602,45.700 284.175 C 44.827 283.208,42.400 278.478,42.400 277.744 C 42.400 277.445,42.220 277.200,42.000 277.200 C 41.780 277.200,41.600 276.840,41.600 276.400 C 41.600 275.960,41.420 275.600,41.200 275.600 C 40.980 275.600,40.800 275.229,40.800 274.776 C 40.800 274.323,40.620 274.064,40.400 274.200 C 40.180 274.336,40.000 274.065,40.000 273.598 C 40.000 272.674,37.639 267.483,37.120 267.267 C 36.944 267.193,36.800 266.696,36.800 266.161 C 36.800 265.627,36.635 264.877,36.433 264.495 C 35.426 262.590,34.400 259.921,34.400 259.204 C 34.400 258.762,34.236 258.400,34.035 258.400 C 33.834 258.400,33.549 257.681,33.400 256.802 C 33.252 255.923,32.966 255.103,32.765 254.978 C 32.564 254.854,32.400 254.128,32.400 253.364 C 32.400 252.566,32.170 251.887,31.859 251.767 C 31.539 251.644,31.391 251.180,31.497 250.627 C 31.595 250.114,31.478 249.572,31.238 249.423 C 30.997 249.275,30.800 248.544,30.800 247.800 C 30.800 247.056,30.620 246.336,30.400 246.200 C 30.180 246.064,30.000 245.591,30.000 245.148 C 30.000 244.705,29.719 244.062,29.375 243.718 C 29.032 243.375,28.788 242.623,28.833 242.047 C 28.878 241.471,28.811 240.730,28.685 240.400 C 28.466 239.829,28.250 238.590,27.744 235.000 C 27.620 234.120,27.356 233.229,27.159 233.020 C 26.962 232.811,26.800 231.776,26.800 230.720 C 26.800 229.664,26.620 228.800,26.400 228.800 C 26.172 228.800,26.000 227.610,26.000 226.029 C 26.000 223.937,25.831 223.088,25.309 222.566 C 24.546 221.804,23.903 185.199,24.653 185.201 C 24.844 185.201,24.943 183.704,24.873 181.873 C 24.771 179.226,24.874 178.437,25.373 178.023 C 25.812 177.658,26.000 176.798,26.000 175.151 C 26.000 173.850,26.179 172.800,26.400 172.800 C 26.622 172.800,26.800 171.733,26.800 170.400 C 26.800 169.067,26.978 168.000,27.200 168.000 C 27.420 168.000,27.600 167.201,27.600 166.224 C 27.600 165.247,27.780 164.336,28.000 164.200 C 28.220 164.064,28.400 163.344,28.400 162.600 C 28.400 161.856,28.550 161.155,28.733 161.041 C 28.917 160.928,28.991 160.322,28.899 159.695 C 28.793 158.974,28.965 158.361,29.366 158.028 C 29.715 157.739,30.000 156.905,30.000 156.175 C 30.000 155.445,30.180 154.736,30.400 154.600 C 30.620 154.464,30.800 153.924,30.800 153.400 C 30.800 152.876,30.980 152.336,31.200 152.200 C 31.420 152.064,31.600 151.344,31.600 150.600 C 31.600 149.856,31.780 149.136,32.000 149.000 C 32.220 148.864,32.400 148.324,32.400 147.800 C 32.400 147.276,32.563 146.746,32.763 146.623 C 32.962 146.500,33.249 145.499,33.400 144.400 C 33.551 143.300,33.838 142.400,34.038 142.400 C 34.237 142.400,34.404 141.905,34.409 141.300 C 34.414 140.695,34.770 139.750,35.200 139.200 C 35.630 138.650,35.986 137.890,35.991 137.512 C 35.996 137.134,36.360 136.183,36.800 135.400 C 37.240 134.617,37.600 133.531,37.600 132.988 C 37.600 132.445,37.780 132.000,38.000 132.000 C 38.220 132.000,38.400 131.640,38.400 131.200 C 38.400 130.760,38.535 130.399,38.700 130.397 C 39.059 130.393,40.000 128.456,40.000 127.720 C 40.000 127.434,40.180 127.200,40.400 127.200 C 40.620 127.200,40.800 126.876,40.800 126.480 C 40.800 125.586,41.694 123.607,42.100 123.603 C 42.265 123.601,42.400 123.240,42.400 122.800 C 42.400 122.360,42.580 122.000,42.800 122.000 C 43.020 122.000,43.200 121.640,43.200 121.200 C 43.200 120.760,43.380 120.400,43.600 120.400 C 43.820 120.400,44.000 120.040,44.000 119.600 C 44.000 119.160,44.180 118.800,44.400 118.800 C 44.620 118.800,44.800 118.506,44.800 118.147 C 44.800 117.788,45.127 117.203,45.528 116.847 C 46.333 116.131,46.964 114.847,46.856 114.146 C 46.817 113.896,47.070 113.582,47.418 113.448 C 47.766 113.315,47.930 113.010,47.782 112.771 C 47.634 112.532,47.893 112.070,48.357 111.745 C 48.820 111.420,49.200 110.805,49.200 110.377 C 49.200 109.950,49.380 109.600,49.600 109.600 C 49.820 109.600,50.000 109.242,50.000 108.803 C 50.000 108.365,50.360 107.782,50.800 107.507 C 51.240 107.232,51.600 106.691,51.600 106.304 C 51.600 105.917,51.762 105.600,51.960 105.600 C 52.305 105.600,53.568 103.807,54.760 101.626 C 55.069 101.062,55.564 100.456,55.860 100.280 C 56.157 100.104,56.400 99.705,56.400 99.394 C 56.400 99.083,56.940 98.213,57.600 97.461 C 58.260 96.709,58.800 95.899,58.800 95.659 C 58.800 95.420,59.340 94.825,60.000 94.337 C 60.660 93.849,61.200 93.206,61.200 92.909 C 61.200 92.612,61.920 91.642,62.800 90.753 C 63.680 89.864,64.400 89.007,64.400 88.848 C 64.400 88.689,65.210 87.725,66.200 86.707 C 67.190 85.688,68.000 84.680,68.000 84.467 C 68.000 83.966,83.957 68.000,84.458 68.000 C 84.667 68.000,85.892 66.989,87.182 65.752 C 88.471 64.516,89.983 63.205,90.541 62.839 C 91.100 62.472,91.902 61.774,92.325 61.286 C 92.748 60.799,93.276 60.400,93.498 60.400 C 93.720 60.400,94.135 60.119,94.421 59.775 C 95.040 59.029,98.931 56.405,99.441 56.389 C 99.639 56.383,100.325 55.843,100.967 55.189 C 101.608 54.535,102.345 54.000,102.605 54.000 C 102.864 54.000,103.402 53.640,103.800 53.200 C 104.198 52.760,104.766 52.400,105.062 52.400 C 105.358 52.400,105.600 52.220,105.600 52.000 C 105.600 51.780,105.917 51.600,106.304 51.600 C 106.691 51.600,107.232 51.240,107.507 50.800 C 107.782 50.360,108.355 50.000,108.781 50.000 C 109.206 50.000,109.820 49.620,110.145 49.157 C 110.470 48.693,110.932 48.434,111.171 48.582 C 111.410 48.730,111.718 48.559,111.854 48.202 C 111.991 47.846,112.357 47.651,112.667 47.770 C 112.977 47.889,113.337 47.709,113.467 47.370 C 113.597 47.031,113.952 46.849,114.255 46.966 C 114.559 47.082,115.029 46.823,115.300 46.389 C 115.571 45.955,116.109 45.600,116.496 45.600 C 116.883 45.600,117.200 45.420,117.200 45.200 C 117.200 44.980,117.560 44.800,118.000 44.800 C 118.440 44.800,118.800 44.620,118.800 44.400 C 118.800 44.180,119.160 44.000,119.600 44.000 C 120.040 44.000,120.400 43.820,120.400 43.600 C 120.400 43.380,120.760 43.200,121.200 43.200 C 121.640 43.200,122.000 43.020,122.000 42.800 C 122.000 42.580,122.345 42.400,122.767 42.400 C 123.188 42.400,123.593 42.263,123.667 42.096 C 123.878 41.614,130.525 38.393,131.300 38.397 C 131.685 38.399,132.000 38.220,132.000 38.000 C 132.000 37.780,132.360 37.600,132.800 37.600 C 133.240 37.600,133.600 37.420,133.600 37.200 C 133.600 36.980,134.005 36.800,134.500 36.801 C 135.282 36.802,136.141 36.461,139.695 34.737 C 140.077 34.552,140.842 34.400,141.395 34.400 C 141.948 34.400,142.400 34.234,142.400 34.032 C 142.400 33.829,142.985 33.544,143.700 33.399 C 145.510 33.031,147.727 32.298,148.180 31.918 C 148.389 31.743,149.143 31.600,149.856 31.600 C 150.569 31.600,151.264 31.420,151.400 31.200 C 151.536 30.980,152.092 30.800,152.636 30.800 C 153.180 30.800,153.715 30.567,153.824 30.282 C 153.952 29.948,154.517 29.821,155.407 29.925 C 156.390 30.040,156.860 29.909,157.027 29.475 C 157.194 29.040,158.122 28.782,160.231 28.584 C 161.864 28.431,163.200 28.147,163.200 27.953 C 163.200 27.759,164.280 27.600,165.600 27.600 C 166.933 27.600,168.000 27.422,168.000 27.200 C 168.000 26.980,168.799 26.800,169.776 26.800 C 170.753 26.800,171.664 26.620,171.800 26.400 C 171.936 26.180,173.095 26.000,174.375 26.000 C 176.001 26.000,176.859 25.811,177.223 25.373 C 177.637 24.874,178.426 24.771,181.073 24.873 C 182.904 24.943,184.401 24.842,184.401 24.649 C 184.399 23.906,221.820 24.563,222.577 25.320 M115.010 96.800 C 115.968 96.800,116.864 96.980,117.000 97.200 C 117.136 97.420,117.687 97.600,118.224 97.600 C 118.761 97.600,119.200 97.780,119.200 98.000 C 119.200 98.220,119.614 98.400,120.120 98.400 C 121.174 98.400,123.192 99.253,123.197 99.700 C 123.199 99.865,123.560 100.000,124.000 100.000 C 124.440 100.000,124.800 100.180,124.800 100.400 C 124.800 100.620,125.145 100.800,125.567 100.800 C 125.988 100.800,126.393 100.935,126.467 101.100 C 126.540 101.265,128.393 102.280,130.584 103.356 C 132.776 104.431,134.814 105.556,135.113 105.856 C 135.412 106.155,135.914 106.400,136.229 106.400 C 136.543 106.400,136.800 106.580,136.800 106.800 C 136.800 107.020,137.070 107.200,137.400 107.200 C 137.730 107.200,138.360 107.560,138.800 108.000 C 139.240 108.440,139.870 108.800,140.200 108.800 C 140.530 108.800,140.800 108.995,140.800 109.233 C 140.800 109.472,141.018 109.594,141.285 109.505 C 141.552 109.416,142.138 109.716,142.587 110.172 C 143.621 111.221,145.209 112.124,145.503 111.830 C 145.627 111.706,145.980 111.964,146.287 112.403 C 146.594 112.841,147.083 113.200,147.374 113.200 C 147.664 113.200,148.133 113.478,148.415 113.818 C 148.697 114.158,149.154 114.350,149.431 114.243 C 149.708 114.137,150.033 114.309,150.154 114.625 C 150.287 114.972,150.925 115.200,151.764 115.200 C 152.528 115.200,153.264 115.380,153.400 115.600 C 153.536 115.820,155.077 116.000,156.824 116.000 C 158.675 116.000,160.000 115.833,160.000 115.600 C 160.000 115.380,160.709 115.200,161.576 115.200 C 162.443 115.200,163.264 115.020,163.400 114.800 C 163.536 114.580,164.335 114.400,165.175 114.400 C 166.044 114.400,166.916 114.142,167.200 113.800 C 167.474 113.470,168.295 113.200,169.025 113.200 C 169.755 113.200,170.464 113.020,170.600 112.800 C 170.736 112.580,171.647 112.400,172.624 112.400 C 173.601 112.400,174.400 112.265,174.400 112.100 C 174.400 111.935,175.317 111.864,176.439 111.941 C 177.586 112.021,178.671 111.889,178.919 111.641 C 179.161 111.399,180.393 111.200,181.656 111.200 C 182.919 111.200,184.064 111.020,184.200 110.800 C 184.344 110.567,186.577 110.400,189.544 110.400 C 192.588 110.400,194.810 110.230,195.062 109.978 C 195.674 109.366,215.108 110.161,215.780 110.825 C 215.989 111.031,217.474 111.200,219.080 111.200 C 220.686 111.200,222.000 111.363,222.000 111.563 C 222.000 111.762,223.710 112.054,225.800 112.210 C 227.890 112.367,229.600 112.654,229.600 112.848 C 229.600 113.041,230.301 113.200,231.157 113.200 C 232.113 113.200,232.796 113.413,232.926 113.753 C 233.127 114.276,234.089 114.533,237.800 115.056 C 238.680 115.180,239.571 115.444,239.780 115.641 C 240.559 116.377,246.675 116.057,248.200 115.200 C 248.983 114.760,249.957 114.400,250.363 114.400 C 250.770 114.400,251.326 114.130,251.600 113.800 C 251.874 113.470,252.346 113.200,252.649 113.200 C 252.952 113.200,253.200 113.054,253.200 112.875 C 253.200 112.696,254.064 112.172,255.121 111.711 C 256.178 111.250,257.280 110.586,257.570 110.236 C 257.860 109.886,258.306 109.600,258.560 109.600 C 258.814 109.600,259.330 109.240,259.707 108.800 C 260.084 108.360,260.664 108.000,260.996 108.000 C 261.328 108.000,261.600 107.849,261.600 107.664 C 261.600 107.479,262.317 107.091,263.194 106.802 C 264.071 106.513,265.089 105.944,265.456 105.538 C 265.823 105.132,266.366 104.800,266.662 104.800 C 266.958 104.800,267.200 104.620,267.200 104.400 C 267.200 104.180,267.515 103.996,267.900 103.991 C 268.285 103.986,269.050 103.630,269.600 103.200 C 270.150 102.770,270.915 102.414,271.300 102.409 C 271.685 102.404,272.001 102.265,272.003 102.100 C 272.007 101.741,273.944 100.800,274.680 100.800 C 274.966 100.800,275.200 100.620,275.200 100.400 C 275.200 100.180,275.560 100.000,276.000 100.000 C 276.440 100.000,276.801 99.865,276.803 99.700 C 276.808 99.253,278.826 98.400,279.880 98.400 C 280.386 98.400,280.800 98.220,280.800 98.000 C 280.800 97.780,281.214 97.600,281.720 97.600 C 282.226 97.600,282.811 97.431,283.020 97.225 C 284.940 95.332,288.000 97.039,288.000 100.003 C 288.000 100.977,288.213 101.596,288.600 101.745 C 289.518 102.097,289.493 120.164,288.573 121.084 C 288.135 121.522,287.979 122.316,288.054 123.728 C 288.123 125.027,287.990 125.803,287.680 125.907 C 287.416 125.995,287.200 126.770,287.200 127.633 C 287.200 128.495,287.020 129.200,286.800 129.200 C 286.580 129.200,286.400 129.999,286.400 130.976 C 286.400 131.953,286.220 132.864,286.000 133.000 C 285.780 133.136,285.600 133.946,285.600 134.800 C 285.600 135.654,285.780 136.464,286.000 136.600 C 286.220 136.736,286.400 137.467,286.400 138.224 C 286.400 138.981,286.580 139.600,286.800 139.600 C 287.020 139.600,287.200 139.960,287.200 140.400 C 287.200 140.840,287.380 141.200,287.600 141.200 C 287.820 141.200,288.000 141.427,288.000 141.704 C 288.000 141.981,288.459 142.703,289.021 143.309 C 289.582 143.914,289.943 144.569,289.822 144.765 C 289.701 144.960,290.241 145.680,291.021 146.365 C 291.802 147.050,292.334 147.783,292.205 147.992 C 292.075 148.202,292.336 148.603,292.784 148.883 C 293.233 149.163,293.600 149.642,293.600 149.948 C 293.600 150.253,294.225 151.195,294.990 152.041 C 295.754 152.888,296.494 154.034,296.633 154.590 C 296.773 155.145,297.047 155.600,297.243 155.600 C 297.440 155.600,297.600 155.945,297.600 156.367 C 297.600 156.788,297.735 157.193,297.900 157.267 C 298.422 157.499,299.955 160.755,300.228 162.210 C 300.373 162.980,300.650 163.707,300.845 163.828 C 301.040 163.949,301.200 164.476,301.200 165.000 C 301.200 165.524,301.380 166.064,301.600 166.200 C 301.820 166.336,302.000 166.892,302.000 167.436 C 302.000 167.980,302.243 168.518,302.541 168.633 C 302.861 168.756,303.009 169.220,302.903 169.773 C 302.805 170.286,302.922 170.828,303.162 170.977 C 303.403 171.125,303.600 171.867,303.600 172.624 C 303.600 173.381,303.780 174.000,304.000 174.000 C 304.220 174.000,304.400 174.774,304.400 175.720 C 304.400 176.666,304.563 177.611,304.761 177.820 C 305.213 178.296,305.593 181.111,305.854 185.923 C 306.002 188.642,306.210 189.706,306.628 189.866 C 307.378 190.154,307.361 191.052,306.600 191.345 C 306.102 191.536,306.000 192.634,306.000 197.787 C 306.000 201.988,305.859 204.000,305.566 204.000 C 305.285 204.000,305.179 204.914,305.266 206.597 C 305.360 208.409,305.249 209.251,304.900 209.384 C 304.625 209.489,304.400 210.200,304.400 210.964 C 304.400 211.728,304.203 212.475,303.962 212.623 C 303.722 212.772,303.605 213.314,303.703 213.827 C 303.814 214.406,303.660 214.845,303.297 214.984 C 302.892 215.140,302.763 215.635,302.876 216.604 C 302.989 217.566,302.878 218.000,302.520 218.000 C 302.234 218.000,302.000 218.362,302.000 218.805 C 302.000 219.611,301.889 219.897,300.657 222.262 C 300.296 222.956,300.000 223.811,300.000 224.162 C 300.000 224.513,299.820 224.800,299.600 224.800 C 299.380 224.800,299.200 225.228,299.200 225.751 C 299.200 226.274,298.935 226.922,298.611 227.191 C 298.287 227.460,297.577 228.652,297.033 229.840 C 296.489 231.028,295.897 232.000,295.716 232.000 C 295.536 232.000,295.096 232.675,294.738 233.500 C 294.380 234.325,293.437 235.688,292.643 236.528 C 291.850 237.369,291.200 238.195,291.200 238.364 C 291.200 238.794,280.148 250.000,279.724 250.000 C 279.534 250.000,278.809 250.520,278.112 251.156 C 277.416 251.792,276.753 252.220,276.640 252.107 C 276.448 251.915,274.629 253.222,273.166 254.602 C 272.818 254.931,272.233 255.200,271.866 255.200 C 271.500 255.200,271.200 255.380,271.200 255.600 C 271.200 255.820,270.834 256.000,270.387 256.000 C 269.941 256.000,269.478 256.254,269.359 256.563 C 269.240 256.873,268.615 257.345,267.971 257.612 C 267.327 257.879,266.800 258.274,266.800 258.491 C 266.800 258.708,266.545 258.788,266.233 258.668 C 265.921 258.548,265.560 258.728,265.430 259.067 C 265.300 259.406,264.940 259.586,264.630 259.467 C 264.320 259.348,263.960 259.528,263.830 259.867 C 263.697 260.213,263.332 260.383,262.997 260.254 C 262.668 260.128,262.400 260.199,262.400 260.413 C 262.400 260.626,261.860 260.800,261.200 260.800 C 260.540 260.800,260.000 260.980,260.000 261.200 C 260.000 261.420,259.640 261.600,259.200 261.600 C 258.760 261.600,258.400 261.780,258.400 262.000 C 258.400 262.220,257.950 262.400,257.400 262.400 C 256.850 262.400,256.400 262.580,256.400 262.800 C 256.400 263.020,255.939 263.200,255.376 263.200 C 254.796 263.200,254.460 263.373,254.600 263.600 C 254.744 263.833,254.345 264.000,253.647 264.000 C 252.987 264.000,252.336 264.180,252.200 264.400 C 252.064 264.620,251.571 264.800,251.105 264.800 C 250.245 264.800,247.909 265.449,246.784 266.000 C 246.445 266.166,245.050 266.432,243.683 266.590 C 242.317 266.749,241.098 267.041,240.976 267.239 C 240.853 267.438,240.058 267.600,239.209 267.600 C 237.507 267.600,236.315 267.938,236.569 268.349 C 236.659 268.495,235.996 268.545,235.097 268.459 C 233.955 268.350,233.326 268.486,233.017 268.909 C 232.569 269.521,230.172 269.915,225.275 270.181 C 223.885 270.256,222.640 270.426,222.508 270.559 C 222.375 270.691,221.316 270.800,220.153 270.800 C 218.634 270.800,217.939 270.979,217.682 271.439 C 217.401 271.942,216.802 272.048,214.862 271.939 C 213.028 271.835,212.399 271.934,212.399 272.324 C 212.400 272.612,212.220 272.736,212.000 272.600 C 211.780 272.464,211.600 272.590,211.600 272.880 C 211.600 273.170,211.960 273.632,212.400 273.907 C 212.840 274.182,213.200 274.722,213.200 275.107 C 213.200 275.492,213.560 276.032,214.000 276.307 C 214.440 276.582,214.800 277.126,214.800 277.515 C 214.800 277.905,215.160 278.483,215.600 278.800 C 216.040 279.117,216.400 279.605,216.400 279.885 C 216.400 280.164,216.742 280.607,217.160 280.868 C 217.578 281.129,217.841 281.550,217.744 281.803 C 217.646 282.056,218.024 282.607,218.583 283.026 C 219.143 283.446,219.600 284.097,219.600 284.472 C 219.600 284.848,219.959 285.406,220.397 285.713 C 220.836 286.020,221.074 286.393,220.927 286.540 C 220.779 286.688,221.050 287.174,221.529 287.620 C 222.008 288.066,222.400 288.650,222.400 288.918 C 222.400 289.186,223.031 289.985,223.803 290.693 C 224.575 291.402,225.160 292.146,225.103 292.347 C 225.046 292.548,225.422 293.083,225.937 293.535 C 226.452 293.988,226.762 294.538,226.626 294.759 C 226.489 294.979,226.923 295.563,227.589 296.055 C 228.255 296.548,228.800 297.109,228.800 297.303 C 228.800 297.497,229.340 298.441,230.000 299.400 C 230.660 300.359,231.200 301.427,231.200 301.772 C 231.200 302.117,231.380 302.400,231.600 302.400 C 231.820 302.400,232.000 302.749,232.000 303.176 C 232.000 303.603,232.159 304.051,232.353 304.171 C 232.548 304.291,232.830 305.379,232.981 306.588 C 233.132 307.798,233.423 308.891,233.628 309.017 C 233.833 309.144,234.000 311.116,234.000 313.400 C 234.000 315.737,234.175 317.661,234.400 317.800 C 234.660 317.961,234.800 327.537,234.800 345.224 L 234.800 372.400 233.843 372.400 C 233.316 372.400,232.776 372.687,232.641 373.037 C 232.449 373.538,231.926 373.645,230.198 373.537 C 228.907 373.457,227.999 373.565,228.000 373.800 C 228.000 374.034,227.139 374.140,225.927 374.056 C 224.327 373.946,223.740 374.067,223.359 374.588 C 222.951 375.146,222.306 375.240,219.636 375.131 C 217.320 375.037,216.353 375.141,216.216 375.500 C 215.972 376.139,184.194 376.237,183.800 375.600 C 183.664 375.380,182.055 375.200,180.225 375.200 C 177.756 375.200,176.770 375.045,176.400 374.600 C 176.082 374.217,175.197 374.000,173.951 374.000 C 172.878 374.000,172.000 373.865,172.001 373.700 C 172.001 373.535,171.012 373.462,169.802 373.537 C 168.074 373.645,167.551 373.538,167.359 373.037 C 167.224 372.687,166.686 372.400,166.163 372.400 L 165.211 372.400 165.105 345.204 C 165.027 325.096,165.119 317.963,165.457 317.833 C 165.753 317.720,165.964 315.965,166.057 312.849 C 166.150 309.709,166.373 307.866,166.700 307.540 C 166.975 307.265,167.200 306.371,167.200 305.553 C 167.200 304.736,167.336 304.007,167.502 303.933 C 167.668 303.860,168.415 302.585,169.162 301.100 C 169.909 299.615,170.673 298.400,170.860 298.400 C 171.047 298.400,171.202 298.085,171.204 297.700 C 171.206 297.315,171.746 296.575,172.404 296.055 C 173.062 295.535,173.600 294.882,173.600 294.604 C 173.600 294.326,173.870 293.874,174.200 293.600 C 174.530 293.326,174.800 292.842,174.800 292.525 C 174.800 292.208,175.355 291.481,176.034 290.910 C 176.713 290.338,177.441 289.495,177.652 289.035 C 178.343 287.527,179.075 286.384,179.944 285.459 C 180.415 284.958,180.800 284.357,180.800 284.123 C 180.800 283.889,181.089 283.458,181.442 283.165 C 181.795 282.873,182.244 282.265,182.441 281.816 C 182.979 280.586,183.720 279.485,184.500 278.759 C 184.885 278.400,185.200 277.812,185.200 277.453 C 185.200 277.094,185.359 276.800,185.554 276.800 C 185.749 276.800,186.213 276.159,186.585 275.376 C 186.956 274.593,187.517 273.853,187.830 273.733 C 188.144 273.613,188.400 273.253,188.400 272.934 C 188.400 272.614,188.220 272.464,188.000 272.600 C 187.780 272.736,187.600 272.612,187.601 272.324 C 187.601 271.935,186.983 271.835,185.207 271.935 C 183.418 272.036,182.653 271.910,182.178 271.435 C 181.776 271.033,180.845 270.800,179.638 270.800 C 178.590 270.800,177.612 270.679,177.464 270.530 C 177.316 270.382,176.134 270.304,174.837 270.357 C 173.494 270.412,172.367 270.270,172.216 270.027 C 172.071 269.792,170.995 269.600,169.825 269.600 C 168.488 269.600,167.525 269.392,167.232 269.039 C 166.976 268.730,166.009 268.381,165.083 268.262 C 164.158 268.144,162.500 267.863,161.400 267.639 C 160.300 267.414,158.050 266.962,156.400 266.634 C 152.022 265.765,151.213 265.544,150.970 265.152 C 150.851 264.959,150.144 264.800,149.400 264.800 C 148.656 264.800,147.936 264.620,147.800 264.400 C 147.664 264.180,147.113 264.000,146.576 264.000 C 146.039 264.000,145.600 263.820,145.600 263.600 C 145.600 263.380,145.240 263.200,144.800 263.200 C 144.360 263.200,144.000 263.020,144.000 262.800 C 144.000 262.580,143.460 262.400,142.800 262.400 C 142.140 262.400,141.600 262.220,141.600 262.000 C 141.600 261.780,141.240 261.600,140.800 261.600 C 140.360 261.600,140.000 261.420,140.000 261.200 C 140.000 260.980,139.540 260.800,138.978 260.800 C 137.754 260.800,134.400 259.337,134.400 258.803 C 134.400 258.595,134.153 258.520,133.852 258.636 C 133.550 258.751,133.196 258.566,133.064 258.223 C 132.933 257.880,132.499 257.600,132.101 257.600 C 131.703 257.600,131.117 257.240,130.800 256.800 C 130.483 256.360,129.903 256.000,129.512 256.000 C 129.120 256.000,128.800 255.820,128.800 255.600 C 128.800 255.380,128.552 255.200,128.249 255.200 C 127.946 255.200,127.465 254.920,127.181 254.577 C 126.896 254.234,126.064 253.703,125.332 253.397 C 124.599 253.091,124.000 252.652,124.000 252.420 C 124.000 252.189,123.721 252.000,123.381 252.000 C 123.040 252.000,122.345 251.550,121.835 251.000 C 121.325 250.450,120.727 250.000,120.505 250.000 C 119.965 250.000,108.800 238.959,108.800 238.425 C 108.800 238.195,108.241 237.510,107.557 236.903 C 106.874 236.296,105.936 234.990,105.474 234.000 C 105.011 233.010,104.394 231.956,104.103 231.658 C 103.812 231.360,103.199 230.382,102.740 229.483 C 102.282 228.585,101.658 227.601,101.354 227.297 C 101.049 226.992,100.800 226.306,100.800 225.771 C 100.800 225.237,100.620 224.800,100.400 224.800 C 100.180 224.800,100.000 224.455,100.000 224.033 C 100.000 223.612,99.865 223.207,99.700 223.133 C 99.209 222.915,97.600 219.584,97.600 218.786 C 97.600 218.380,97.444 217.951,97.253 217.833 C 97.062 217.714,96.783 216.539,96.634 215.221 C 96.485 213.903,96.191 212.718,95.982 212.589 C 95.772 212.459,95.600 211.744,95.600 211.000 C 95.600 210.256,95.420 209.536,95.200 209.400 C 94.980 209.264,94.800 208.004,94.800 206.600 C 94.800 205.196,94.620 203.936,94.400 203.800 C 94.162 203.653,94.000 201.129,94.000 197.576 C 94.000 193.859,93.849 191.600,93.600 191.600 C 93.080 191.600,93.080 190.122,93.600 189.800 C 93.820 189.664,94.000 187.954,94.000 186.000 C 94.000 184.046,94.180 182.336,94.400 182.200 C 94.620 182.064,94.800 181.189,94.800 180.256 C 94.800 179.323,95.000 178.360,95.245 178.115 C 95.490 177.870,95.621 176.937,95.536 176.043 C 95.441 175.053,95.561 174.347,95.840 174.240 C 96.093 174.143,96.427 172.879,96.582 171.432 C 96.737 169.984,97.029 168.800,97.232 168.800 C 97.434 168.800,97.600 168.361,97.600 167.824 C 97.600 167.287,97.780 166.736,98.000 166.600 C 98.220 166.464,98.400 165.913,98.400 165.376 C 98.400 164.839,98.580 164.400,98.800 164.400 C 99.020 164.400,99.200 163.986,99.200 163.480 C 99.200 162.426,100.053 160.408,100.500 160.403 C 100.665 160.401,100.800 160.166,100.800 159.880 C 100.800 159.144,101.741 157.207,102.100 157.203 C 102.265 157.201,102.400 156.840,102.400 156.400 C 102.400 155.960,102.537 155.600,102.705 155.600 C 103.008 155.600,103.259 155.209,104.391 152.969 C 104.716 152.326,105.256 151.528,105.591 151.196 C 106.181 150.610,106.803 149.630,107.845 147.640 C 108.121 147.112,108.517 146.572,108.725 146.440 C 109.505 145.945,111.990 142.380,112.234 141.406 C 112.374 140.849,112.649 140.294,112.844 140.173 C 113.040 140.052,113.200 139.355,113.200 138.625 C 113.200 137.895,113.470 137.074,113.800 136.800 C 114.146 136.513,114.400 135.640,114.400 134.738 C 114.400 133.718,114.192 133.095,113.800 132.945 C 113.408 132.794,113.200 132.172,113.200 131.152 C 113.200 130.292,113.024 129.277,112.809 128.895 C 111.688 126.905,110.598 102.442,111.586 101.454 C 111.814 101.226,112.000 100.266,112.000 99.320 C 112.000 98.374,112.191 97.600,112.424 97.600 C 112.657 97.600,112.736 97.420,112.600 97.200 C 112.464 96.980,112.486 96.584,112.650 96.320 C 112.881 95.946,112.982 95.946,113.107 96.320 C 113.198 96.595,114.009 96.800,115.010 96.800 " stroke="none" fill="#fcfcf4" fill-rule="evenodd"></path><path id="path1" d="" stroke="none" fill="#100fcf4" fill-rule="evenodd"></path><path id="path2" d="" stroke="none" fill="#100fcf4" fill-rule="evenodd"></path><path id="path3" d="" stroke="none" fill="#100fcf4" fill-rule="evenodd"></path><path id="path4" d="" stroke="none" fill="#100fcf4" fill-rule="evenodd"></path></g></svg>