<svg id="svg" version="1.1" xmlns="http://www.w3.org/2000/svg" xmlns:xlink="http://www.w3.org/1999/xlink" width="400" height="400" viewBox="0, 0, 400,400"><g id="svgg"><path id="path0" d="M45.100 0.294 C 44.055 0.376,43.200 0.614,43.200 0.822 C 43.200 1.030,42.491 1.200,41.624 1.200 C 40.757 1.200,39.936 1.380,39.800 1.600 C 39.664 1.820,39.059 2.000,38.456 2.000 C 37.120 2.000,35.207 2.841,35.203 3.431 C 35.201 3.681,34.698 3.788,34.000 3.685 C 33.116 3.556,32.800 3.669,32.800 4.117 C 32.800 4.528,32.541 4.657,32.000 4.516 C 31.459 4.374,31.200 4.504,31.200 4.916 C 31.200 5.328,30.941 5.457,30.400 5.316 C 29.859 5.174,29.600 5.304,29.600 5.716 C 29.600 6.128,29.341 6.257,28.800 6.116 C 28.227 5.966,28.000 6.104,28.000 6.600 C 28.000 7.092,27.772 7.234,27.214 7.088 C 26.748 6.966,26.463 7.069,26.514 7.341 C 26.561 7.593,26.362 7.751,26.070 7.690 C 25.779 7.630,25.648 7.754,25.780 7.967 C 25.911 8.180,25.384 8.655,24.609 9.022 C 23.834 9.390,23.200 9.851,23.200 10.046 C 23.200 10.241,22.955 10.400,22.656 10.400 C 22.357 10.400,21.444 11.030,20.627 11.800 C 19.811 12.570,19.004 13.200,18.834 13.200 C 18.413 13.200,14.000 17.499,14.000 17.909 C 14.000 18.088,13.280 19.008,12.400 19.951 C 11.520 20.895,10.800 21.913,10.800 22.214 C 10.800 22.514,10.550 22.904,10.245 23.080 C 9.939 23.256,9.613 23.760,9.521 24.200 C 9.428 24.640,9.170 24.966,8.947 24.924 C 8.724 24.882,8.555 25.242,8.571 25.724 C 8.588 26.250,8.388 26.556,8.070 26.490 C 7.779 26.430,7.655 26.565,7.794 26.790 C 7.933 27.016,7.857 27.200,7.624 27.200 C 7.391 27.200,7.200 27.560,7.200 28.000 C 7.200 28.470,6.933 28.800,6.553 28.800 C 6.111 28.800,5.971 29.044,6.109 29.574 C 6.231 30.041,6.073 30.440,5.710 30.579 C 5.317 30.730,5.175 31.154,5.299 31.805 C 5.426 32.471,5.309 32.800,4.945 32.800 C 4.645 32.800,4.400 33.160,4.400 33.600 C 4.400 34.040,4.220 34.400,4.000 34.400 C 3.780 34.400,3.600 34.839,3.600 35.376 C 3.600 35.913,3.420 36.464,3.200 36.600 C 2.980 36.736,2.800 37.276,2.800 37.800 C 2.800 38.324,2.608 38.872,2.373 39.017 C 2.138 39.162,2.001 39.923,2.069 40.708 C 2.144 41.584,2.000 42.200,1.696 42.301 C 1.393 42.402,1.200 43.218,1.200 44.400 C 1.200 45.591,1.008 46.397,0.700 46.500 C -0.023 46.741,-0.023 68.537,0.700 69.260 C 0.975 69.535,1.200 70.534,1.200 71.480 C 1.200 72.426,1.380 73.200,1.600 73.200 C 1.820 73.200,2.000 73.729,2.000 74.376 C 2.000 75.023,2.180 75.664,2.400 75.800 C 2.620 75.936,2.800 76.453,2.800 76.948 C 2.800 77.444,3.160 78.595,3.600 79.506 C 4.040 80.416,4.400 81.345,4.400 81.569 C 4.400 81.792,4.760 82.617,5.200 83.400 C 5.640 84.183,6.000 85.070,6.000 85.369 C 6.000 85.669,6.289 86.025,6.642 86.161 C 7.008 86.301,7.185 86.663,7.054 87.003 C 6.928 87.332,6.999 87.600,7.213 87.600 C 7.426 87.600,7.600 87.941,7.600 88.357 C 7.600 88.774,7.870 89.218,8.200 89.345 C 8.530 89.471,8.800 89.840,8.800 90.165 C 8.800 90.489,9.184 91.023,9.653 91.352 C 10.122 91.680,10.414 92.186,10.303 92.477 C 10.103 92.998,10.951 94.115,11.290 93.777 C 11.387 93.680,11.718 94.096,12.027 94.701 C 12.882 96.374,21.372 104.800,22.203 104.800 C 22.605 104.800,22.822 104.911,22.686 105.048 C 22.376 105.358,23.385 106.400,23.995 106.400 C 24.244 106.400,24.336 106.580,24.200 106.800 C 24.064 107.020,24.236 107.200,24.582 107.200 C 25.375 107.200,26.795 107.989,27.643 108.900 C 28.001 109.285,28.588 109.600,28.947 109.600 C 29.306 109.600,29.600 109.780,29.600 110.000 C 29.600 110.220,29.949 110.400,30.376 110.400 C 30.803 110.400,31.264 110.580,31.400 110.800 C 31.536 111.020,32.087 111.200,32.624 111.200 C 33.161 111.200,33.600 111.359,33.600 111.553 C 33.600 112.010,35.144 112.500,36.301 112.411 C 36.797 112.373,37.304 112.605,37.427 112.927 C 37.567 113.290,37.965 113.430,38.476 113.296 C 39.007 113.157,39.438 113.325,39.686 113.768 C 39.980 114.293,40.507 114.429,41.907 114.343 C 43.078 114.271,43.802 114.406,43.905 114.715 C 43.999 114.996,44.800 115.200,45.810 115.200 C 46.768 115.200,47.664 115.380,47.800 115.600 C 47.953 115.848,51.596 116.000,57.400 116.000 C 63.204 116.000,66.847 115.848,67.000 115.600 C 67.136 115.380,68.232 115.200,69.436 115.200 C 70.881 115.200,71.694 115.020,71.828 114.672 C 71.958 114.331,72.472 114.208,73.270 114.325 C 74.138 114.452,74.618 114.312,74.874 113.853 C 75.084 113.479,75.744 113.200,76.420 113.200 C 77.069 113.200,77.600 113.007,77.600 112.771 C 77.600 112.536,78.005 112.382,78.500 112.431 C 79.510 112.530,80.304 112.281,82.538 111.167 C 83.384 110.745,84.329 110.400,84.638 110.400 C 84.947 110.400,85.200 110.220,85.200 110.000 C 85.200 109.780,85.560 109.600,86.000 109.600 C 86.440 109.600,86.800 109.420,86.800 109.200 C 86.800 108.980,87.120 108.800,87.512 108.800 C 87.903 108.800,88.483 108.440,88.800 108.000 C 89.117 107.560,89.657 107.200,90.000 107.200 C 90.343 107.200,90.883 106.840,91.200 106.400 C 91.517 105.960,92.052 105.596,92.388 105.591 C 92.725 105.586,93.619 104.866,94.376 103.991 C 95.133 103.116,95.946 102.400,96.182 102.400 C 96.700 102.400,100.000 99.058,100.000 98.533 C 100.000 98.329,100.720 97.459,101.600 96.600 C 102.480 95.741,103.200 94.820,103.200 94.554 C 103.200 94.289,103.740 93.617,104.400 93.061 C 105.060 92.506,105.600 91.770,105.600 91.426 C 105.600 91.082,105.780 90.800,106.000 90.800 C 106.220 90.800,106.400 90.480,106.400 90.088 C 106.400 89.697,106.760 89.117,107.200 88.800 C 107.640 88.483,108.000 87.903,108.000 87.512 C 108.000 87.120,108.180 86.800,108.400 86.800 C 108.620 86.800,108.800 86.566,108.800 86.280 C 108.800 85.544,109.741 83.607,110.100 83.603 C 110.265 83.601,110.400 83.161,110.400 82.624 C 110.400 82.087,110.580 81.536,110.800 81.400 C 111.020 81.264,111.200 80.743,111.200 80.243 C 111.200 79.743,111.332 79.201,111.494 79.040 C 111.862 78.672,112.784 74.790,113.072 72.400 C 113.191 71.410,113.539 70.456,113.844 70.280 C 114.210 70.069,114.400 69.224,114.400 67.804 C 114.400 66.618,114.580 65.536,114.800 65.400 C 115.427 65.012,115.331 50.425,114.700 50.184 C 114.353 50.051,114.240 49.222,114.331 47.471 C 114.431 45.545,114.313 44.825,113.831 44.426 C 113.484 44.138,113.200 43.294,113.200 42.551 C 113.200 41.808,113.006 41.200,112.769 41.200 C 112.522 41.200,112.389 40.613,112.457 39.821 C 112.523 39.063,112.447 38.313,112.288 38.155 C 112.130 37.996,112.000 37.457,112.000 36.957 C 112.000 36.457,111.820 35.936,111.600 35.800 C 111.380 35.664,111.200 35.113,111.200 34.576 C 111.200 34.039,111.020 33.600,110.800 33.600 C 110.580 33.600,110.400 33.240,110.400 32.800 C 110.400 32.360,110.220 32.000,110.000 32.000 C 109.780 32.000,109.600 31.640,109.600 31.200 C 109.600 30.760,109.420 30.400,109.200 30.400 C 108.980 30.400,108.800 30.040,108.800 29.600 C 108.800 29.160,108.620 28.800,108.400 28.800 C 108.180 28.800,108.000 28.440,108.000 28.000 C 108.000 27.560,107.820 27.200,107.600 27.200 C 107.380 27.200,107.200 26.840,107.200 26.400 C 107.200 25.960,107.020 25.600,106.800 25.600 C 106.580 25.600,106.400 25.280,106.400 24.888 C 106.400 24.497,106.040 23.917,105.600 23.600 C 105.160 23.283,104.800 22.813,104.800 22.557 C 104.800 22.300,104.262 21.665,103.604 21.145 C 102.946 20.625,102.406 19.955,102.404 19.656 C 102.398 18.852,95.053 11.600,94.245 11.600 C 93.864 11.600,93.635 11.465,93.734 11.300 C 93.949 10.946,92.975 9.959,92.691 10.243 C 92.584 10.350,91.832 9.810,91.019 9.044 C 90.207 8.278,89.003 7.532,88.344 7.388 C 87.685 7.243,87.049 6.873,86.931 6.565 C 86.813 6.257,86.574 6.093,86.400 6.200 C 86.226 6.307,85.981 6.126,85.854 5.798 C 85.728 5.469,85.169 5.200,84.613 5.200 C 84.056 5.200,83.600 5.020,83.600 4.800 C 83.600 4.580,83.240 4.400,82.800 4.400 C 82.360 4.400,81.999 4.265,81.997 4.100 C 81.993 3.699,80.019 2.800,79.144 2.800 C 78.761 2.800,78.336 2.620,78.200 2.400 C 78.064 2.180,77.434 2.000,76.800 2.000 C 76.166 2.000,75.525 1.803,75.376 1.562 C 75.227 1.320,74.593 1.198,73.968 1.290 C 73.234 1.398,72.754 1.256,72.614 0.892 C 72.454 0.475,71.820 0.362,70.198 0.463 C 68.988 0.538,67.999 0.465,67.999 0.300 C 68.000 0.005,48.824 0.000,45.100 0.294 M58.000 25.600 C 58.000 25.835,59.400 26.000,61.400 26.000 C 63.400 26.000,64.800 26.165,64.800 26.400 C 64.800 26.620,65.419 26.800,66.176 26.800 C 66.933 26.800,67.664 26.980,67.800 27.200 C 67.936 27.420,68.406 27.600,68.843 27.600 C 69.281 27.600,70.216 27.907,70.920 28.281 C 71.624 28.656,72.427 28.918,72.705 28.863 C 72.983 28.807,73.318 29.041,73.448 29.381 C 73.579 29.722,73.938 30.000,74.247 30.000 C 74.555 30.000,75.116 30.360,75.493 30.800 C 75.870 31.240,76.406 31.600,76.686 31.600 C 77.367 31.600,83.200 37.576,83.200 38.275 C 83.200 38.577,83.459 38.924,83.775 39.046 C 84.091 39.167,84.256 39.510,84.141 39.809 C 84.027 40.107,84.308 40.586,84.767 40.872 C 85.225 41.158,85.600 41.673,85.600 42.016 C 85.600 42.359,85.749 42.811,85.930 43.020 C 86.112 43.229,86.490 44.210,86.769 45.200 C 87.049 46.190,87.440 47.313,87.639 47.695 C 87.838 48.077,88.000 48.912,88.000 49.552 C 88.000 50.216,88.257 50.813,88.600 50.945 C 89.099 51.136,89.200 52.256,89.200 57.587 C 89.200 63.021,89.108 64.000,88.600 64.000 C 88.147 64.000,88.000 64.489,88.000 66.000 C 88.000 67.100,87.820 68.000,87.600 68.000 C 87.380 68.000,87.200 68.350,87.200 68.778 C 87.200 69.206,86.527 70.871,85.704 72.478 C 84.881 74.085,84.206 75.580,84.204 75.800 C 84.202 76.020,83.705 76.645,83.100 77.189 C 82.495 77.733,82.000 78.399,82.000 78.670 C 82.000 79.353,78.090 83.200,77.395 83.200 C 77.083 83.200,76.635 83.560,76.400 84.000 C 76.165 84.440,75.661 84.800,75.282 84.800 C 74.903 84.800,74.368 85.160,74.093 85.600 C 73.818 86.040,73.245 86.400,72.820 86.400 C 72.395 86.400,71.936 86.580,71.800 86.800 C 71.664 87.020,71.113 87.200,70.576 87.200 C 70.039 87.200,69.600 87.380,69.600 87.600 C 69.600 87.820,69.079 88.000,68.443 88.000 C 67.749 88.000,67.187 88.257,67.039 88.643 C 66.859 89.111,66.415 89.243,65.407 89.125 C 64.517 89.021,63.952 89.148,63.824 89.482 C 63.533 90.240,51.263 90.230,50.972 89.472 C 50.845 89.140,50.333 89.007,49.599 89.115 C 48.865 89.223,48.190 89.047,47.786 88.643 C 47.432 88.289,46.904 88.000,46.612 88.000 C 46.320 88.000,45.055 87.460,43.801 86.801 C 42.547 86.141,41.378 85.690,41.203 85.798 C 41.027 85.907,40.773 85.708,40.639 85.356 C 40.504 85.005,40.142 84.813,39.835 84.931 C 39.516 85.054,38.893 84.644,38.379 83.973 C 37.885 83.328,37.192 82.797,36.840 82.793 C 36.204 82.786,33.600 79.978,33.600 79.299 C 33.600 79.104,33.150 78.553,32.600 78.075 C 32.050 77.597,31.600 76.974,31.600 76.692 C 31.600 76.409,31.240 75.870,30.800 75.493 C 30.360 75.116,30.000 74.555,30.000 74.247 C 30.000 73.938,29.717 73.577,29.371 73.444 C 29.001 73.302,28.789 72.833,28.856 72.301 C 28.918 71.806,28.661 70.787,28.285 70.039 C 27.908 69.290,27.600 68.345,27.600 67.939 C 27.600 67.532,27.420 67.200,27.200 67.200 C 26.980 67.200,26.800 66.300,26.800 65.200 C 26.800 64.100,26.620 63.200,26.400 63.200 C 26.152 63.200,26.000 61.000,26.000 57.400 C 26.000 53.800,26.152 51.600,26.400 51.600 C 26.620 51.600,26.803 51.105,26.806 50.500 C 26.812 49.365,27.642 46.625,28.126 46.141 C 28.277 45.990,28.400 45.457,28.400 44.957 C 28.400 44.457,28.572 43.941,28.783 43.811 C 28.993 43.681,29.073 43.333,28.960 43.039 C 28.847 42.744,29.034 42.396,29.377 42.264 C 29.720 42.133,30.000 41.659,30.000 41.213 C 30.000 40.766,30.195 40.400,30.433 40.400 C 30.672 40.400,30.795 40.184,30.707 39.920 C 30.619 39.656,31.144 38.893,31.873 38.223 C 32.603 37.553,33.200 36.788,33.200 36.522 C 33.200 35.877,37.082 32.016,37.406 32.339 C 37.545 32.478,38.252 31.925,38.977 31.111 C 39.702 30.296,40.411 29.744,40.552 29.885 C 40.693 30.026,41.062 29.795,41.371 29.371 C 41.681 28.948,42.057 28.723,42.206 28.872 C 42.355 29.021,43.095 28.796,43.850 28.372 C 44.606 27.947,45.568 27.600,45.989 27.600 C 46.409 27.600,46.864 27.420,47.000 27.200 C 47.136 26.980,47.867 26.800,48.624 26.800 C 49.381 26.800,50.000 26.620,50.000 26.400 C 50.000 26.163,51.467 26.000,53.600 26.000 C 55.733 26.000,57.200 25.837,57.200 25.600 C 57.200 25.380,57.380 25.200,57.600 25.200 C 57.820 25.200,58.000 25.380,58.000 25.600 M285.384 118.100 C 285.247 118.458,284.286 118.563,281.998 118.470 C 279.446 118.365,278.672 118.471,278.147 118.996 C 277.675 119.468,276.919 119.623,275.472 119.546 C 274.173 119.477,273.397 119.610,273.293 119.920 C 273.205 120.184,272.563 120.402,271.867 120.403 C 269.026 120.411,266.400 120.917,266.400 121.456 C 266.400 121.794,265.945 122.000,265.200 122.000 C 264.540 122.000,264.000 122.149,264.000 122.331 C 264.000 122.513,263.460 122.582,262.800 122.485 C 261.890 122.352,261.600 122.465,261.600 122.955 C 261.600 123.372,261.255 123.600,260.624 123.600 C 260.087 123.600,259.546 123.763,259.423 123.962 C 259.300 124.162,258.866 124.238,258.459 124.131 C 258.052 124.025,257.416 124.241,257.045 124.612 C 256.655 125.003,256.031 125.197,255.561 125.074 C 255.061 124.943,254.664 125.089,254.524 125.454 C 254.399 125.780,254.043 125.949,253.733 125.830 C 253.423 125.711,253.063 125.891,252.933 126.230 C 252.803 126.569,252.450 126.751,252.148 126.636 C 251.847 126.520,251.600 126.563,251.600 126.732 C 251.600 127.069,249.284 127.990,248.372 128.016 C 248.057 128.025,247.177 128.565,246.415 129.216 C 245.653 129.867,244.708 130.400,244.315 130.400 C 243.922 130.400,243.600 130.580,243.600 130.800 C 243.600 131.020,243.240 131.200,242.800 131.200 C 242.360 131.200,242.000 131.380,242.000 131.600 C 242.000 131.820,241.640 132.000,241.200 132.000 C 240.760 132.000,240.400 132.168,240.400 132.373 C 240.400 132.578,240.061 132.854,239.648 132.985 C 238.541 133.336,237.169 134.631,237.507 135.005 C 237.668 135.183,237.579 135.201,237.308 135.046 C 236.733 134.715,235.200 135.439,235.200 136.043 C 235.200 136.271,234.940 136.717,234.622 137.035 C 233.679 137.978,232.400 136.295,232.400 134.112 C 232.400 132.971,232.203 132.299,231.825 132.154 C 231.509 132.033,231.348 131.680,231.467 131.370 C 231.586 131.060,231.395 130.696,231.044 130.561 C 230.692 130.427,230.499 130.164,230.614 129.977 C 230.860 129.580,228.263 126.800,227.646 126.800 C 227.414 126.800,226.583 126.440,225.800 126.000 C 225.017 125.560,223.925 125.200,223.375 125.200 C 222.825 125.200,222.271 124.930,222.145 124.600 C 221.963 124.127,221.135 124.000,218.224 124.000 C 216.194 124.000,214.430 123.897,214.305 123.771 C 214.006 123.473,204.794 123.473,204.495 123.771 C 204.370 123.897,199.909 124.000,194.582 124.000 C 186.462 124.000,184.818 124.097,184.400 124.600 C 183.973 125.114,181.736 125.200,168.800 125.200 C 155.864 125.200,153.627 125.114,153.200 124.600 C 152.805 124.124,151.646 124.000,147.594 124.000 C 143.422 124.000,142.443 124.110,142.255 124.600 C 142.129 124.930,141.580 125.200,141.036 125.200 C 140.492 125.200,139.928 125.392,139.783 125.627 C 139.638 125.862,139.282 125.964,138.993 125.853 C 138.703 125.741,138.367 125.909,138.246 126.225 C 138.124 126.541,137.742 126.800,137.396 126.800 C 136.606 126.800,135.002 128.267,134.995 128.995 C 134.992 129.296,134.571 129.905,134.058 130.350 C 133.546 130.794,133.236 131.335,133.370 131.551 C 133.504 131.768,133.430 132.058,133.207 132.196 C 132.983 132.334,132.800 132.966,132.800 133.600 C 132.800 134.234,132.620 134.864,132.400 135.000 C 132.163 135.146,132.000 137.604,132.000 141.024 C 132.000 144.608,132.152 146.800,132.400 146.800 C 132.662 146.800,132.819 156.470,132.855 174.900 C 132.886 190.355,133.021 214.458,133.155 228.462 C 133.290 242.466,133.265 253.841,133.100 253.739 C 132.935 253.636,132.800 266.613,132.800 282.576 C 132.800 301.659,132.663 311.600,132.400 311.600 C 132.139 311.600,132.000 318.192,132.000 330.576 C 132.000 342.796,131.858 349.641,131.600 349.800 C 131.346 349.957,131.200 355.071,131.200 363.824 C 131.200 372.741,131.341 377.600,131.600 377.600 C 131.845 377.600,132.000 379.533,132.000 382.600 C 132.000 385.350,132.155 387.600,132.345 387.600 C 132.535 387.600,132.783 388.725,132.895 390.100 C 133.247 394.396,136.248 399.200,138.579 399.200 C 139.115 399.200,139.664 399.380,139.800 399.600 C 140.142 400.153,228.400 400.153,228.400 399.600 C 228.400 399.380,228.760 399.200,229.200 399.200 C 229.640 399.200,230.000 399.040,230.000 398.843 C 230.000 398.647,230.405 398.382,230.900 398.254 C 231.884 397.999,233.600 395.739,233.600 394.699 C 233.600 394.340,233.780 393.936,234.000 393.800 C 234.220 393.664,234.400 393.149,234.400 392.656 C 234.400 392.163,234.562 391.589,234.759 391.380 C 235.746 390.336,236.558 344.798,235.607 343.847 C 235.049 343.289,235.042 269.345,235.600 269.000 C 235.849 268.846,236.000 265.004,236.000 258.800 C 236.000 252.596,236.151 248.754,236.400 248.600 C 236.620 248.464,236.800 247.013,236.800 245.376 C 236.800 243.659,236.969 242.400,237.200 242.400 C 237.420 242.400,237.600 241.511,237.600 240.424 C 237.600 239.337,237.780 238.336,238.000 238.200 C 238.220 238.064,238.400 237.434,238.400 236.800 C 238.400 236.166,238.561 235.548,238.758 235.426 C 238.955 235.305,239.210 234.529,239.326 233.703 C 239.611 231.657,240.069 229.842,240.360 229.600 C 240.812 229.224,242.400 225.925,242.400 225.362 C 242.400 225.053,242.580 224.800,242.800 224.800 C 243.020 224.800,243.200 224.528,243.200 224.196 C 243.200 223.864,243.560 223.284,244.000 222.907 C 244.440 222.530,244.800 222.035,244.800 221.807 C 244.800 221.230,247.988 218.000,248.558 218.000 C 248.814 218.000,249.283 217.640,249.600 217.200 C 249.917 216.760,250.497 216.400,250.888 216.400 C 251.280 216.400,251.600 216.209,251.600 215.976 C 251.600 215.743,251.758 215.651,251.951 215.770 C 252.378 216.034,254.800 214.876,254.800 214.408 C 254.800 214.225,255.154 214.167,255.586 214.280 C 256.030 214.396,256.666 214.191,257.050 213.807 C 257.519 213.339,258.202 213.173,259.256 213.274 C 260.262 213.370,260.853 213.240,260.986 212.893 C 261.419 211.763,278.637 212.639,279.635 213.842 C 279.890 214.149,280.481 214.413,280.949 214.429 C 281.417 214.445,282.340 214.803,283.000 215.223 C 283.660 215.644,284.573 216.154,285.029 216.357 C 286.381 216.959,289.297 219.971,289.078 220.541 C 288.967 220.830,289.316 221.398,289.855 221.802 C 290.393 222.206,290.741 222.776,290.629 223.068 C 290.517 223.361,290.684 223.600,291.000 223.600 C 291.323 223.600,291.483 223.841,291.364 224.148 C 291.249 224.450,291.434 224.804,291.777 224.936 C 292.120 225.067,292.400 225.541,292.400 225.987 C 292.400 226.434,292.559 226.800,292.754 226.800 C 292.949 226.800,293.232 227.790,293.383 229.000 C 293.534 230.210,293.825 231.200,294.029 231.200 C 294.233 231.200,294.400 231.999,294.400 232.976 C 294.400 233.953,294.580 234.864,294.800 235.000 C 295.020 235.136,295.200 236.216,295.200 237.400 C 295.200 238.584,295.380 239.664,295.600 239.800 C 295.825 239.939,296.000 241.871,296.000 244.224 C 296.000 246.741,296.159 248.400,296.400 248.400 C 296.659 248.400,296.800 253.267,296.800 262.200 C 296.800 271.133,296.941 276.000,297.200 276.000 C 297.463 276.000,297.600 286.808,297.600 307.624 C 297.600 328.037,297.462 339.162,297.210 339.006 C 296.962 338.853,296.747 343.597,296.618 352.083 C 296.507 359.407,296.314 368.775,296.191 372.900 C 296.038 377.982,296.100 380.400,296.383 380.400 C 296.647 380.400,296.800 382.013,296.800 384.800 C 296.800 387.467,296.958 389.200,297.200 389.200 C 297.420 389.200,297.600 389.819,297.600 390.576 C 297.600 391.333,297.780 392.064,298.000 392.200 C 298.220 392.336,298.400 392.977,298.400 393.624 C 298.400 394.271,298.580 394.800,298.800 394.800 C 299.020 394.800,299.200 395.171,299.200 395.624 C 299.200 396.077,299.380 396.336,299.600 396.200 C 299.820 396.064,300.000 396.146,300.000 396.382 C 300.000 397.124,302.559 399.176,303.500 399.188 C 303.995 399.195,304.400 399.380,304.400 399.600 C 304.400 399.864,319.333 400.000,348.400 400.000 C 377.467 400.000,392.400 399.864,392.400 399.600 C 392.400 399.380,392.760 399.200,393.200 399.200 C 393.640 399.200,394.000 399.005,394.000 398.767 C 394.000 398.528,394.225 398.411,394.500 398.507 C 395.171 398.739,398.762 395.166,398.512 394.514 C 398.403 394.231,398.514 394.000,398.757 394.000 C 399.001 394.000,399.200 393.640,399.200 393.200 C 399.200 392.760,399.380 392.400,399.600 392.400 C 399.865 392.400,400.000 365.275,400.000 311.824 C 400.000 258.537,399.865 231.163,399.600 231.000 C 399.373 230.860,399.200 228.870,399.200 226.400 C 399.200 223.930,399.027 221.940,398.800 221.800 C 398.579 221.663,398.400 219.863,398.400 217.776 C 398.400 215.525,398.238 214.000,398.000 214.000 C 397.771 214.000,397.600 212.800,397.600 211.200 C 397.600 209.660,397.447 208.400,397.260 208.400 C 397.073 208.400,396.798 206.375,396.648 203.900 C 396.499 201.425,396.201 199.340,395.988 199.267 C 395.775 199.193,395.600 198.333,395.600 197.354 C 395.600 196.266,395.399 195.498,395.082 195.376 C 394.752 195.250,394.620 194.688,394.720 193.836 C 394.806 193.098,394.679 192.373,394.438 192.224 C 394.197 192.075,394.000 191.391,394.000 190.705 C 394.000 189.462,393.418 187.226,392.751 185.905 C 392.558 185.523,392.400 184.769,392.400 184.229 C 392.400 183.689,392.220 183.136,392.000 183.000 C 391.780 182.864,391.600 182.324,391.600 181.800 C 391.600 181.276,391.420 180.736,391.200 180.600 C 390.980 180.464,390.800 179.924,390.800 179.400 C 390.800 178.876,390.620 178.336,390.400 178.200 C 390.180 178.064,390.000 177.423,390.000 176.776 C 390.000 176.129,389.865 175.599,389.700 175.597 C 389.294 175.593,388.400 173.614,388.400 172.720 C 388.400 172.324,388.220 172.000,388.000 172.000 C 387.780 172.000,387.600 171.651,387.600 171.224 C 387.600 170.797,387.420 170.336,387.200 170.200 C 386.980 170.064,386.800 169.642,386.800 169.262 C 386.800 168.881,386.104 167.227,385.253 165.585 C 384.402 163.943,383.567 162.150,383.397 161.600 C 383.228 161.050,382.675 160.214,382.169 159.742 C 381.663 159.270,381.343 158.791,381.457 158.677 C 381.713 158.421,380.472 156.429,379.510 155.553 C 379.120 155.197,378.800 154.607,378.800 154.241 C 378.800 153.874,378.530 153.471,378.200 153.345 C 377.870 153.218,377.600 152.799,377.600 152.414 C 377.600 152.028,376.881 151.102,376.002 150.356 C 375.123 149.610,374.403 148.786,374.402 148.525 C 374.400 147.938,364.624 138.000,364.049 138.000 C 363.820 138.000,362.966 137.280,362.152 136.400 C 361.338 135.520,360.347 134.800,359.950 134.800 C 359.553 134.800,359.035 134.440,358.800 134.000 C 358.565 133.560,358.018 133.200,357.586 133.200 C 357.154 133.200,356.800 133.040,356.800 132.844 C 356.800 132.649,355.450 131.848,353.800 131.064 C 352.150 130.281,350.800 129.451,350.800 129.220 C 350.800 128.989,350.458 128.800,350.041 128.800 C 349.623 128.800,348.314 128.291,347.132 127.669 C 345.950 127.048,344.762 126.613,344.492 126.703 C 344.221 126.793,344.000 126.672,344.000 126.433 C 344.000 126.195,343.460 126.000,342.800 126.000 C 342.140 126.000,341.600 125.820,341.600 125.600 C 341.600 125.380,341.172 125.200,340.649 125.200 C 340.126 125.200,339.474 124.930,339.200 124.600 C 338.926 124.270,338.274 124.000,337.751 124.000 C 337.228 124.000,336.800 123.845,336.800 123.655 C 336.800 123.466,336.352 123.397,335.805 123.501 C 335.132 123.630,334.730 123.483,334.562 123.046 C 334.413 122.657,333.853 122.400,333.157 122.400 C 332.521 122.400,332.000 122.251,332.000 122.069 C 332.000 121.887,331.451 121.819,330.779 121.918 C 329.970 122.037,329.398 121.884,329.079 121.465 C 328.725 120.999,327.527 120.762,324.500 120.560 C 322.245 120.409,320.400 120.131,320.400 119.943 C 320.400 119.754,319.252 119.600,317.849 119.600 C 316.069 119.600,315.147 119.419,314.800 119.000 C 314.416 118.537,313.353 118.400,310.151 118.400 C 307.650 118.400,306.000 118.241,306.000 118.000 C 306.000 117.364,285.627 117.463,285.384 118.100 M84.138 123.700 C 84.036 123.865,78.855 124.000,72.625 124.000 C 63.045 124.000,61.221 124.093,60.800 124.600 C 60.372 125.116,57.907 125.200,43.138 125.200 C 28.251 125.200,25.944 125.120,25.745 124.600 C 25.396 123.692,15.529 123.721,14.773 124.632 C 14.473 124.994,13.863 125.191,13.344 125.091 C 12.795 124.986,12.353 125.147,12.217 125.501 C 12.094 125.821,11.734 125.984,11.417 125.862 C 11.070 125.729,10.742 125.951,10.594 126.420 C 10.457 126.849,10.165 127.200,9.944 127.200 C 9.311 127.200,8.519 128.157,8.701 128.703 C 8.792 128.976,8.582 129.309,8.233 129.443 C 7.885 129.576,7.600 130.026,7.600 130.443 C 7.600 130.859,7.445 131.200,7.255 131.200 C 7.066 131.200,6.997 131.648,7.101 132.195 C 7.230 132.868,7.083 133.270,6.646 133.438 C 6.163 133.623,6.000 134.225,6.000 135.819 C 6.000 136.993,5.820 138.064,5.600 138.200 C 5.359 138.349,5.200 141.130,5.200 145.200 C 5.200 149.270,5.041 152.051,4.800 152.200 C 4.556 152.351,4.400 155.471,4.400 160.224 C 4.400 165.141,4.547 168.000,4.800 168.000 C 5.061 168.000,5.200 174.733,5.200 187.400 C 5.200 200.067,5.339 206.800,5.600 206.800 C 5.862 206.800,6.000 215.404,6.000 231.813 C 6.000 253.677,6.076 256.854,6.600 257.055 C 7.511 257.405,7.511 329.906,6.600 330.255 C 6.075 330.457,6.000 333.847,6.000 357.419 C 6.000 374.943,5.860 384.439,5.600 384.600 C 5.079 384.922,5.079 388.678,5.600 389.000 C 5.820 389.136,6.000 389.872,6.000 390.636 C 6.000 391.525,6.225 392.111,6.623 392.264 C 6.966 392.396,7.151 392.750,7.036 393.052 C 6.920 393.353,6.999 393.600,7.213 393.600 C 7.426 393.600,7.600 393.853,7.600 394.163 C 7.600 395.020,10.795 398.086,12.745 399.100 L 14.476 400.000 58.438 400.000 C 87.479 400.000,102.400 399.864,102.400 399.600 C 102.400 399.380,102.723 399.200,103.117 399.200 C 104.023 399.200,107.200 395.999,107.200 395.085 C 107.200 394.708,107.380 394.400,107.600 394.400 C 107.820 394.400,108.000 393.961,108.000 393.424 C 108.000 392.887,108.180 392.336,108.400 392.200 C 108.620 392.064,108.800 391.153,108.800 390.176 C 108.800 389.199,108.980 388.400,109.200 388.400 C 109.440 388.400,109.600 386.800,109.600 384.400 C 109.600 382.000,109.760 380.400,110.000 380.400 C 110.641 380.400,110.541 342.429,109.900 342.183 C 109.508 342.033,109.423 337.903,109.508 322.996 C 109.580 310.291,109.480 304.000,109.208 304.000 C 108.646 304.000,108.639 158.147,109.200 157.800 C 109.452 157.644,109.600 153.204,109.600 145.800 C 109.600 138.396,109.452 133.956,109.200 133.800 C 108.980 133.664,108.800 133.023,108.800 132.376 C 108.800 131.729,108.620 131.200,108.400 131.200 C 108.180 131.200,108.000 130.925,108.000 130.589 C 108.000 129.776,104.697 126.501,104.083 126.706 C 103.818 126.794,103.495 126.593,103.367 126.259 C 103.239 125.924,102.880 125.748,102.570 125.867 C 102.260 125.986,101.908 125.827,101.788 125.513 C 101.641 125.129,101.165 125.002,100.330 125.125 C 99.462 125.252,98.982 125.112,98.726 124.653 C 98.416 124.099,97.542 124.000,92.980 124.000 C 90.021 124.000,87.600 123.865,87.600 123.700 C 87.600 123.535,86.863 123.400,85.962 123.400 C 85.061 123.400,84.240 123.535,84.138 123.700 M305.400 144.400 C 305.537 144.621,307.337 144.800,309.424 144.800 C 311.675 144.800,313.200 144.962,313.200 145.200 C 313.200 145.422,314.267 145.600,315.600 145.600 C 316.933 145.600,318.000 145.778,318.000 146.000 C 318.000 146.220,318.780 146.400,319.733 146.400 C 320.687 146.400,321.596 146.530,321.755 146.688 C 321.913 146.847,322.663 146.923,323.421 146.857 C 324.180 146.792,324.800 146.912,324.800 147.124 C 324.800 147.488,325.163 147.603,328.300 148.231 C 329.015 148.374,329.600 148.650,329.600 148.845 C 329.600 149.040,330.039 149.200,330.576 149.200 C 331.113 149.200,331.664 149.380,331.800 149.600 C 331.936 149.820,332.397 150.000,332.824 150.000 C 333.251 150.000,333.600 150.180,333.600 150.400 C 333.600 150.620,333.960 150.800,334.400 150.800 C 334.840 150.800,335.201 150.935,335.203 151.100 C 335.207 151.459,337.144 152.400,337.880 152.400 C 338.166 152.400,338.400 152.580,338.400 152.800 C 338.400 153.020,338.670 153.200,339.000 153.200 C 339.330 153.200,339.600 153.380,339.600 153.600 C 339.600 153.820,339.960 154.000,340.400 154.000 C 340.840 154.000,341.200 154.180,341.200 154.400 C 341.200 154.620,341.480 154.800,341.822 154.800 C 342.164 154.800,343.019 155.339,343.722 155.998 C 344.425 156.657,345.187 157.197,345.416 157.198 C 345.646 157.199,346.495 157.920,347.304 158.800 C 348.113 159.680,348.968 160.400,349.203 160.400 C 349.757 160.400,352.352 163.001,353.595 164.800 C 354.126 165.570,355.163 166.725,355.898 167.366 C 356.633 168.007,357.154 168.742,357.056 168.999 C 356.957 169.257,357.309 169.792,357.838 170.190 C 358.367 170.587,358.800 171.129,358.800 171.394 C 358.800 171.659,359.166 172.208,359.614 172.613 C 360.062 173.018,360.338 173.586,360.227 173.875 C 360.116 174.164,360.199 174.400,360.413 174.400 C 360.626 174.400,360.800 174.745,360.800 175.167 C 360.800 175.588,360.937 175.993,361.104 176.067 C 361.507 176.244,364.808 182.864,364.803 183.488 C 364.801 183.756,365.166 184.626,365.612 185.422 C 366.059 186.217,366.534 187.668,366.668 188.645 C 366.802 189.622,367.067 190.518,367.256 190.635 C 367.445 190.752,367.600 191.276,367.600 191.800 C 367.600 192.324,367.780 192.864,368.000 193.000 C 368.220 193.136,368.400 193.858,368.400 194.604 C 368.400 195.443,368.649 196.100,369.053 196.326 C 369.512 196.582,369.652 197.062,369.525 197.930 C 369.408 198.728,369.531 199.242,369.872 199.372 C 370.202 199.499,370.400 200.254,370.400 201.387 C 370.400 202.384,370.540 203.200,370.711 203.200 C 370.881 203.200,370.950 203.941,370.864 204.848 C 370.761 205.927,370.889 206.608,371.236 206.822 C 371.796 207.168,372.333 211.235,372.375 215.457 C 372.394 217.303,372.556 217.974,373.027 218.155 C 373.550 218.356,373.632 219.055,373.527 222.399 C 373.457 224.600,373.535 226.401,373.700 226.401 C 373.865 226.400,374.000 231.598,374.000 237.951 C 374.000 247.741,374.092 249.578,374.601 250.001 C 375.132 250.442,375.191 257.764,375.101 312.750 L 375.000 375.000 349.000 375.000 L 323.000 375.000 322.896 357.224 C 322.828 345.644,322.932 339.308,323.196 339.044 C 323.752 338.488,323.757 259.200,323.200 259.200 C 322.952 259.200,322.800 257.000,322.800 253.400 C 322.800 249.800,322.648 247.600,322.400 247.600 C 322.163 247.600,322.000 246.133,322.000 244.000 C 322.000 241.867,321.837 240.400,321.600 240.400 C 321.379 240.400,321.200 239.360,321.200 238.080 C 321.200 236.804,321.037 235.589,320.839 235.380 C 320.504 235.028,320.367 234.236,319.751 229.100 C 319.625 228.055,319.360 227.200,319.161 227.200 C 318.963 227.200,318.800 226.581,318.800 225.824 C 318.800 225.067,318.620 224.336,318.400 224.200 C 318.180 224.064,318.000 223.344,318.000 222.600 C 318.000 221.856,317.820 221.136,317.600 221.000 C 317.380 220.864,317.200 220.324,317.200 219.800 C 317.200 219.276,317.041 218.749,316.846 218.629 C 316.652 218.508,316.372 217.606,316.224 216.623 C 315.930 214.658,314.945 212.400,314.383 212.400 C 314.186 212.400,314.128 212.132,314.254 211.803 C 314.385 211.463,314.208 211.101,313.842 210.961 C 313.489 210.825,313.200 210.374,313.200 209.957 C 313.200 209.541,313.034 209.200,312.832 209.200 C 312.629 209.200,312.335 208.615,312.178 207.900 C 312.021 207.186,311.583 206.331,311.204 206.000 C 310.825 205.670,310.387 204.995,310.230 204.500 C 310.074 204.005,309.793 203.600,309.606 203.600 C 309.418 203.600,308.857 202.925,308.357 202.100 C 307.150 200.106,303.050 196.000,302.267 196.000 C 301.925 196.000,301.410 195.685,301.123 195.300 C 300.351 194.266,297.743 192.400,297.069 192.400 C 296.748 192.400,296.386 192.140,296.264 191.822 C 296.142 191.504,295.358 191.132,294.521 190.994 C 293.684 190.857,292.345 190.397,291.546 189.972 C 290.746 189.548,289.550 189.200,288.888 189.200 C 288.188 189.200,287.589 188.949,287.455 188.600 C 287.311 188.223,286.699 188.000,285.813 188.000 C 285.036 188.000,284.400 187.820,284.400 187.600 C 284.400 187.380,283.421 187.200,282.224 187.200 C 281.027 187.200,279.936 187.020,279.800 186.800 C 279.485 186.290,258.312 186.255,257.780 186.763 C 257.571 186.963,256.500 187.226,255.400 187.348 C 250.980 187.837,250.000 188.079,250.000 188.684 C 250.000 189.142,249.624 189.248,248.408 189.132 C 247.368 189.033,246.749 189.157,246.621 189.490 C 246.513 189.771,245.969 190.000,245.413 190.000 C 244.856 190.000,244.400 190.201,244.400 190.447 C 244.400 190.694,244.049 190.801,243.614 190.688 C 243.148 190.566,242.863 190.669,242.914 190.941 C 242.961 191.193,242.705 191.352,242.346 191.293 C 241.986 191.234,241.579 191.478,241.442 191.834 C 241.305 192.191,240.940 192.386,240.630 192.267 C 240.320 192.148,239.967 192.309,239.846 192.625 C 239.724 192.941,239.343 193.200,238.999 193.200 C 238.045 193.200,234.391 195.157,234.144 195.801 C 234.024 196.114,233.538 196.490,233.063 196.638 C 231.954 196.982,224.966 203.996,225.106 204.624 C 225.164 204.886,224.754 205.400,224.193 205.768 C 223.633 206.135,223.287 206.617,223.424 206.839 C 223.561 207.061,223.297 207.569,222.837 207.968 C 222.377 208.367,222.000 208.876,222.000 209.098 C 222.000 209.320,221.730 209.726,221.400 210.000 C 221.070 210.274,220.800 210.817,220.800 211.206 C 220.800 211.596,220.530 212.018,220.200 212.145 C 219.870 212.271,219.600 212.629,219.600 212.938 C 219.600 213.248,219.330 213.726,219.000 214.000 C 218.670 214.274,218.400 214.915,218.400 215.425 C 218.400 215.935,218.208 216.472,217.973 216.617 C 217.738 216.762,217.636 217.118,217.747 217.407 C 217.859 217.697,217.672 218.040,217.333 218.170 C 216.987 218.303,216.817 218.668,216.946 219.003 C 217.072 219.332,217.001 219.600,216.787 219.600 C 216.574 219.600,216.400 220.151,216.400 220.824 C 216.400 221.537,216.233 221.944,216.000 221.800 C 215.767 221.656,215.600 222.055,215.600 222.753 C 215.600 223.413,215.420 224.064,215.200 224.200 C 214.980 224.336,214.800 225.067,214.800 225.824 C 214.800 226.581,214.620 227.200,214.400 227.200 C 214.180 227.200,214.000 227.740,214.000 228.400 C 214.000 229.060,213.820 229.600,213.600 229.600 C 213.380 229.600,213.200 230.219,213.200 230.976 C 213.200 231.733,213.020 232.464,212.800 232.600 C 212.580 232.736,212.400 233.726,212.400 234.800 C 212.400 235.874,212.220 236.864,212.000 237.000 C 211.780 237.136,211.600 238.237,211.600 239.447 C 211.600 240.657,211.447 241.553,211.260 241.437 C 210.920 241.227,210.400 247.654,210.400 252.075 C 210.400 253.586,210.222 254.493,209.900 254.616 C 209.525 254.759,209.431 256.180,209.523 260.292 C 209.616 264.450,209.519 265.877,209.123 266.189 C 208.364 266.785,208.350 319.203,209.108 319.801 C 209.509 320.116,209.594 323.959,209.508 337.896 C 209.423 351.898,209.506 355.632,209.907 355.786 C 210.301 355.937,210.391 358.099,210.307 365.490 L 210.200 375.000 184.200 375.000 L 158.200 375.000 158.099 262.497 L 157.999 149.994 182.499 150.097 L 207.000 150.200 207.200 162.800 C 207.388 174.664,207.578 176.800,208.443 176.800 C 208.639 176.800,208.800 177.050,208.800 177.355 C 208.800 179.265,214.743 183.600,217.360 183.600 C 218.152 183.600,218.800 183.797,218.800 184.039 C 218.800 184.786,225.044 183.858,227.400 182.760 C 228.525 182.235,231.600 179.519,231.600 179.049 C 231.600 178.932,232.050 178.172,232.600 177.362 C 233.150 176.551,233.600 175.593,233.600 175.232 C 233.600 174.872,233.960 174.317,234.400 174.000 C 234.840 173.683,235.208 173.148,235.217 172.812 C 235.226 172.475,235.766 171.758,236.417 171.219 C 237.068 170.679,237.600 169.998,237.600 169.706 C 237.600 169.123,247.071 159.600,247.650 159.600 C 247.846 159.600,248.572 159.060,249.263 158.400 C 249.954 157.740,250.722 157.200,250.971 157.200 C 251.220 157.200,251.683 156.840,252.000 156.400 C 252.317 155.960,252.878 155.600,253.246 155.600 C 253.613 155.600,254.009 155.353,254.125 155.052 C 254.350 154.466,258.209 152.400,259.079 152.400 C 259.365 152.400,259.600 152.220,259.600 152.000 C 259.600 151.780,259.945 151.600,260.367 151.600 C 260.788 151.600,261.193 151.465,261.267 151.300 C 261.457 150.872,264.768 149.200,265.426 149.200 C 265.728 149.200,266.617 148.840,267.400 148.400 C 268.183 147.960,269.344 147.600,269.979 147.600 C 270.614 147.600,271.193 147.422,271.267 147.204 C 271.340 146.986,272.525 146.690,273.900 146.547 C 275.275 146.403,276.400 146.132,276.400 145.943 C 276.400 145.754,277.289 145.600,278.376 145.600 C 279.463 145.600,280.464 145.420,280.600 145.200 C 280.736 144.980,282.086 144.800,283.600 144.800 C 285.114 144.800,286.464 144.620,286.600 144.400 C 286.753 144.152,290.330 144.000,296.000 144.000 C 301.670 144.000,305.247 144.152,305.400 144.400 M83.299 262.600 L 83.197 375.200 57.399 375.200 L 31.600 375.200 31.600 262.600 L 31.600 150.000 57.500 150.000 L 83.400 150.000 83.299 262.600 " stroke="none" fill="#fcfcf4" fill-rule="evenodd"></path><path id="path1" d="" stroke="none" fill="#100fcf4" fill-rule="evenodd"></path><path id="path2" d="" stroke="none" fill="#100fcf4" fill-rule="evenodd"></path><path id="path3" d="" stroke="none" fill="#100fcf4" fill-rule="evenodd"></path><path id="path4" d="" stroke="none" fill="#100fcf4" fill-rule="evenodd"></path></g></svg>