<svg id="svg" version="1.1" xmlns="http://www.w3.org/2000/svg" xmlns:xlink="http://www.w3.org/1999/xlink" width="400" height="400" viewBox="0, 0, 400,400"><g id="svgg"><path id="path0" d="M74.200 0.273 C 73.072 0.419,71.920 0.825,70.305 1.647 C 69.923 1.841,69.248 2.000,68.805 2.000 C 68.362 2.000,68.000 2.253,68.000 2.563 C 68.000 2.928,67.720 3.052,67.200 2.916 C 66.659 2.774,66.400 2.904,66.400 3.316 C 66.400 3.728,66.141 3.857,65.600 3.716 C 65.035 3.568,64.800 3.704,64.800 4.177 C 64.800 4.546,64.620 4.736,64.400 4.600 C 64.180 4.464,64.000 4.644,64.000 5.000 C 64.000 5.372,63.811 5.531,63.556 5.373 C 63.312 5.222,62.688 5.593,62.169 6.197 C 61.572 6.891,60.992 7.206,60.592 7.052 C 60.243 6.919,60.050 6.958,60.163 7.140 C 60.275 7.321,59.654 8.166,58.783 9.016 C 57.913 9.867,57.200 10.429,57.200 10.265 C 57.200 10.102,56.949 10.201,56.642 10.484 C 56.335 10.768,56.154 11.115,56.239 11.256 C 56.324 11.397,55.931 11.816,55.365 12.186 C 54.800 12.556,54.424 13.086,54.531 13.363 C 54.637 13.641,54.291 14.192,53.762 14.590 C 53.233 14.987,52.800 15.550,52.800 15.840 C 52.800 16.131,52.421 16.722,51.957 17.154 C 51.494 17.586,51.223 18.114,51.355 18.327 C 51.487 18.541,51.308 18.827,50.956 18.961 C 50.580 19.106,50.415 19.461,50.554 19.824 C 50.689 20.177,50.622 20.337,50.395 20.197 C 50.163 20.053,50.000 20.548,50.000 21.400 C 50.000 22.263,49.839 22.747,49.600 22.600 C 49.380 22.464,49.200 22.723,49.200 23.176 C 49.200 23.629,49.020 24.000,48.800 24.000 C 48.580 24.000,48.400 24.720,48.400 25.600 C 48.400 26.480,48.220 27.200,48.000 27.200 C 47.734 27.200,47.600 85.067,47.600 200.000 C 47.600 314.933,47.734 372.800,48.000 372.800 C 48.220 372.800,48.400 373.419,48.400 374.176 C 48.400 374.933,48.580 375.664,48.800 375.800 C 49.020 375.936,49.200 376.397,49.200 376.824 C 49.200 377.251,49.357 377.600,49.549 377.600 C 49.741 377.600,50.014 378.327,50.156 379.215 C 50.298 380.104,50.670 380.929,50.982 381.048 C 51.294 381.168,51.460 381.500,51.350 381.785 C 51.241 382.070,51.582 382.642,52.108 383.056 C 52.634 383.470,52.996 384.012,52.913 384.260 C 52.830 384.509,53.215 385.068,53.768 385.503 C 54.321 385.938,54.657 386.410,54.516 386.551 C 54.374 386.693,54.605 387.142,55.029 387.551 C 55.453 387.959,56.065 388.677,56.388 389.146 C 56.712 389.616,57.237 390.000,57.555 390.000 C 57.873 390.000,58.022 390.111,57.886 390.248 C 57.613 390.520,58.209 391.149,59.417 391.863 C 59.848 392.117,60.155 392.522,60.100 392.763 C 60.045 393.003,60.360 393.200,60.800 393.200 C 61.240 393.200,61.600 393.391,61.600 393.624 C 61.600 393.857,61.780 393.936,62.000 393.800 C 62.220 393.664,62.400 393.833,62.400 394.176 C 62.400 394.527,62.740 394.800,63.177 394.800 C 63.605 394.800,64.223 395.184,64.552 395.653 C 64.916 396.173,65.393 396.412,65.774 396.265 C 66.163 396.116,66.400 396.243,66.400 396.600 C 66.400 396.928,66.640 397.083,66.960 396.960 C 67.267 396.842,67.638 396.938,67.783 397.173 C 67.928 397.408,68.476 397.600,69.000 397.600 C 69.524 397.600,70.064 397.780,70.200 398.000 C 70.336 398.220,70.867 398.400,71.381 398.400 C 71.894 398.400,72.409 398.648,72.526 398.951 C 72.656 399.291,73.112 399.429,73.722 399.313 C 74.263 399.209,74.828 399.322,74.977 399.562 C 75.341 400.151,324.636 400.189,325.000 399.600 C 325.136 399.380,325.856 399.200,326.600 399.200 C 327.344 399.200,328.072 399.008,328.217 398.773 C 328.362 398.538,328.728 398.440,329.030 398.556 C 329.332 398.672,329.741 398.477,329.939 398.124 C 330.164 397.721,330.607 397.561,331.124 397.696 C 331.603 397.821,332.032 397.695,332.147 397.394 C 332.256 397.109,332.874 396.760,333.519 396.618 C 334.164 396.476,335.069 396.009,335.529 395.580 C 335.990 395.151,336.604 394.800,336.895 394.800 C 337.186 394.800,337.683 394.440,338.000 394.000 C 338.317 393.560,338.798 393.200,339.069 393.200 C 339.666 393.200,345.135 387.724,345.660 386.600 C 346.270 385.296,347.031 384.052,347.677 383.303 C 348.011 382.916,348.534 382.015,348.839 381.300 C 349.145 380.585,349.531 380.000,349.698 380.000 C 349.864 380.000,350.000 379.460,350.000 378.800 C 350.000 378.140,350.180 377.600,350.400 377.600 C 350.620 377.600,350.800 377.240,350.800 376.800 C 350.800 376.360,350.980 376.000,351.200 376.000 C 351.420 376.000,351.600 375.280,351.600 374.400 C 351.600 373.520,351.780 372.800,352.000 372.800 C 352.266 372.800,352.400 327.287,352.400 237.061 C 352.400 91.504,352.511 99.986,350.592 98.393 C 350.266 98.123,350.000 97.738,350.000 97.537 C 350.000 97.095,255.004 2.000,254.562 2.000 C 254.391 2.000,253.820 1.595,253.294 1.100 L 252.336 0.200 163.868 0.159 C 115.211 0.136,74.860 0.187,74.200 0.273 M234.800 56.600 C 234.800 78.333,234.937 89.600,235.200 89.600 C 235.420 89.600,235.600 90.225,235.600 90.988 C 235.600 91.751,235.960 93.017,236.400 93.800 C 236.840 94.583,237.200 95.461,237.200 95.751 C 237.200 96.574,238.414 98.800,238.863 98.800 C 239.085 98.800,239.190 99.025,239.096 99.300 C 239.002 99.575,239.384 100.198,239.945 100.684 C 240.507 101.170,240.842 101.692,240.690 101.843 C 240.538 101.995,240.898 102.535,241.490 103.043 C 242.082 103.552,242.459 104.074,242.329 104.204 C 242.030 104.504,247.975 110.400,248.577 110.400 C 248.822 110.400,249.283 110.760,249.600 111.200 C 249.917 111.640,250.503 112.000,250.901 112.000 C 251.299 112.000,251.729 112.270,251.855 112.600 C 251.982 112.930,252.417 113.200,252.823 113.200 C 253.228 113.200,253.704 113.436,253.880 113.723 C 254.056 114.011,254.830 114.480,255.600 114.764 C 256.370 115.048,257.360 115.432,257.800 115.617 C 260.809 116.882,262.887 116.968,295.600 117.183 L 328.600 117.400 328.701 240.779 C 328.768 322.765,328.667 364.293,328.401 364.559 C 328.180 364.780,328.000 365.636,328.000 366.461 C 328.000 368.181,327.335 369.911,326.317 370.841 C 325.930 371.193,325.719 371.586,325.847 371.714 C 326.209 372.076,324.512 373.716,324.063 373.439 C 323.843 373.303,323.309 373.644,322.874 374.196 C 322.440 374.748,321.796 375.200,321.442 375.200 C 321.089 375.200,320.800 375.398,320.800 375.640 C 320.800 375.916,320.131 376.027,319.005 375.938 C 317.821 375.844,317.145 375.966,317.018 376.298 C 316.740 377.022,83.346 377.039,83.105 376.315 C 83.002 376.007,82.281 375.871,81.125 375.942 C 79.777 376.025,79.245 375.893,79.068 375.434 C 78.937 375.093,78.584 374.908,78.284 375.023 C 77.983 375.139,77.406 374.793,77.002 374.255 C 76.598 373.716,76.072 373.348,75.834 373.436 C 75.414 373.591,74.376 372.206,72.774 369.354 C 72.348 368.596,72.000 367.261,72.000 366.388 C 72.000 365.515,71.820 364.800,71.600 364.800 C 71.334 364.800,71.200 309.600,71.200 200.000 C 71.200 90.400,71.334 35.200,71.600 35.200 C 71.820 35.200,72.000 34.300,72.000 33.200 C 72.000 32.100,72.180 31.200,72.400 31.200 C 72.620 31.200,72.800 30.930,72.800 30.600 C 72.800 30.270,73.142 29.658,73.561 29.239 C 73.979 28.821,74.441 28.101,74.587 27.639 C 74.734 27.178,75.181 26.800,75.581 26.800 C 75.981 26.800,76.612 26.336,76.984 25.769 C 77.381 25.163,77.895 24.828,78.230 24.956 C 78.543 25.076,78.800 25.001,78.800 24.787 C 78.800 24.574,79.599 24.400,80.576 24.400 C 81.553 24.400,82.464 24.220,82.600 24.000 C 82.763 23.736,108.604 23.600,158.824 23.600 L 234.800 23.600 234.800 56.600 M260.000 42.200 C 260.274 42.530,260.379 42.800,260.233 42.800 C 260.088 42.800,260.201 43.052,260.484 43.360 C 260.768 43.667,261.045 43.878,261.099 43.827 C 261.247 43.690,272.648 54.976,272.535 55.148 C 272.357 55.418,273.536 56.400,274.038 56.400 C 274.310 56.400,274.417 56.517,274.274 56.659 C 274.000 56.934,275.493 58.400,276.047 58.400 C 276.225 58.400,276.828 59.072,277.386 59.893 C 277.944 60.714,278.400 61.285,278.400 61.163 C 278.400 60.924,287.871 70.395,289.137 71.900 C 289.553 72.395,290.108 72.800,290.371 72.800 C 290.633 72.800,290.736 72.980,290.600 73.200 C 290.464 73.420,290.644 73.600,291.000 73.600 C 291.356 73.600,291.544 73.767,291.418 73.971 C 291.292 74.175,291.546 74.456,291.984 74.595 C 292.421 74.734,293.180 75.422,293.670 76.124 C 294.160 76.826,294.746 77.526,294.972 77.680 C 295.751 78.211,305.801 88.315,306.388 89.156 C 306.712 89.620,307.237 90.000,307.555 90.000 C 307.873 90.000,308.022 90.111,307.886 90.248 C 307.613 90.520,308.233 91.174,309.371 91.815 C 309.776 92.043,310.068 92.382,310.020 92.570 C 309.971 92.757,310.172 93.070,310.466 93.265 C 310.779 93.473,301.923 93.575,289.072 93.510 C 268.570 93.407,267.118 93.354,266.747 92.692 C 266.529 92.302,266.162 92.100,265.932 92.242 C 265.701 92.385,265.109 92.032,264.616 91.458 C 264.123 90.884,263.611 90.522,263.479 90.655 C 263.140 90.993,262.000 89.777,262.000 89.078 C 262.000 88.759,261.718 88.264,261.374 87.978 C 260.370 87.145,259.600 85.351,259.600 83.843 C 259.600 83.076,259.420 82.336,259.200 82.200 C 258.694 81.887,258.646 41.600,259.151 41.600 C 259.344 41.600,259.726 41.870,260.000 42.200 M124.800 166.000 C 124.800 166.220,124.440 166.400,124.000 166.400 C 123.560 166.400,123.200 166.568,123.200 166.773 C 123.200 166.978,122.795 167.270,122.300 167.420 C 121.064 167.797,119.966 168.821,120.271 169.314 C 120.409 169.538,120.263 169.919,119.946 170.161 C 117.687 171.885,116.305 181.128,118.198 181.854 C 118.526 181.981,118.690 182.254,118.562 182.461 C 118.434 182.668,118.795 183.304,119.365 183.874 C 119.934 184.443,120.400 185.077,120.400 185.283 C 120.400 185.898,121.493 186.800,122.238 186.800 C 122.620 186.800,122.822 186.911,122.686 187.048 C 122.331 187.403,123.426 188.400,124.171 188.400 C 124.517 188.400,124.800 188.580,124.800 188.800 C 124.800 189.065,150.133 189.200,200.000 189.200 C 249.867 189.200,275.200 189.065,275.200 188.800 C 275.200 188.580,275.494 188.400,275.853 188.400 C 276.212 188.400,276.800 188.085,277.159 187.700 C 277.518 187.315,278.169 186.802,278.606 186.561 C 279.043 186.319,279.596 185.735,279.836 185.263 C 280.075 184.792,280.525 184.089,280.836 183.703 C 282.174 182.036,282.400 181.105,282.400 177.251 C 282.400 173.477,281.942 171.533,280.888 170.840 C 280.688 170.708,280.269 170.062,279.958 169.404 C 279.647 168.746,278.854 167.953,278.196 167.642 C 277.538 167.330,276.940 166.924,276.867 166.738 C 276.793 166.552,276.399 166.400,275.990 166.400 C 275.582 166.400,275.136 166.220,275.000 166.000 C 274.837 165.736,249.329 165.600,199.776 165.600 C 150.059 165.600,124.800 165.735,124.800 166.000 M124.800 212.800 C 124.800 213.020,124.452 213.200,124.027 213.200 C 123.602 213.200,123.140 213.560,123.000 214.000 C 122.836 214.518,122.395 214.800,121.749 214.800 C 121.187 214.800,120.860 214.974,121.000 215.200 C 121.136 215.420,120.972 215.600,120.636 215.600 C 120.252 215.600,120.112 215.827,120.260 216.213 C 120.404 216.587,120.069 217.191,119.397 217.769 C 118.703 218.365,118.414 218.898,118.611 219.218 C 118.803 219.529,118.762 219.624,118.504 219.464 C 117.818 219.040,117.600 220.238,117.600 224.438 C 117.600 228.583,117.859 229.472,119.545 231.121 C 120.064 231.629,120.388 232.146,120.264 232.270 C 119.926 232.608,121.051 233.600,121.771 233.600 C 122.117 233.600,122.400 233.747,122.400 233.926 C 122.400 234.105,123.137 234.645,124.038 235.126 L 125.676 236.000 200.438 236.000 C 250.013 236.000,275.200 235.865,275.200 235.600 C 275.200 235.380,275.436 235.200,275.725 235.200 C 276.013 235.200,276.636 234.840,277.108 234.400 C 277.580 233.960,278.214 233.600,278.516 233.600 C 278.818 233.600,279.320 233.110,279.632 232.512 C 279.945 231.914,280.515 231.104,280.900 230.712 C 281.285 230.320,281.600 229.730,281.600 229.400 C 281.600 229.070,281.780 228.800,282.000 228.800 C 282.871 228.800,282.478 220.447,281.526 218.754 C 281.046 217.900,280.506 217.200,280.326 217.200 C 280.147 217.200,280.000 216.870,280.000 216.468 C 280.000 216.065,279.505 215.481,278.900 215.170 C 278.295 214.860,277.509 214.289,277.153 213.903 C 276.797 213.516,276.212 213.200,275.853 213.200 C 275.494 213.200,275.200 213.020,275.200 212.800 C 275.200 212.535,249.867 212.400,200.000 212.400 C 150.133 212.400,124.800 212.535,124.800 212.800 M124.933 259.765 C 124.970 259.965,124.640 260.239,124.200 260.372 C 122.846 260.783,120.400 262.452,120.400 262.964 C 120.400 263.231,119.995 263.883,119.500 264.412 C 117.877 266.149,117.600 267.148,117.600 271.254 C 117.600 275.264,118.674 278.400,120.048 278.400 C 120.289 278.400,120.388 278.653,120.270 278.962 C 120.016 279.624,121.186 280.800,122.098 280.800 C 122.448 280.800,122.793 280.942,122.867 281.114 C 122.940 281.287,123.568 281.827,124.262 282.314 L 125.523 283.200 199.967 283.200 C 278.178 283.200,275.200 283.266,276.843 281.500 C 277.201 281.115,277.705 280.800,277.964 280.800 C 278.624 280.800,279.751 279.600,280.310 278.300 C 280.570 277.695,280.967 277.200,281.191 277.200 C 281.416 277.200,281.600 276.851,281.600 276.424 C 281.600 275.997,281.780 275.536,282.000 275.400 C 283.435 274.513,282.237 265.994,280.462 264.454 C 279.996 264.049,279.733 263.600,279.878 263.455 C 280.228 263.105,278.591 261.600,277.860 261.600 C 277.544 261.600,277.187 261.344,277.067 261.031 C 276.947 260.718,276.433 260.399,275.924 260.322 C 275.416 260.244,275.030 260.005,275.067 259.791 C 275.110 259.538,248.650 259.400,200.000 259.400 C 154.994 259.400,124.893 259.546,124.933 259.765 M124.945 306.600 C 124.818 306.930,124.380 307.200,123.971 307.200 C 123.563 307.200,123.047 307.539,122.825 307.954 C 122.603 308.369,121.966 308.822,121.411 308.962 C 120.855 309.101,120.400 309.450,120.400 309.738 C 120.400 310.025,119.950 310.683,119.400 311.200 C 118.850 311.717,118.400 312.468,118.400 312.870 C 118.400 313.271,118.220 313.600,118.000 313.600 C 117.313 313.600,117.483 322.380,118.175 322.646 C 118.491 322.767,118.660 323.100,118.550 323.385 C 118.441 323.670,118.812 324.266,119.376 324.709 C 119.939 325.153,120.400 325.813,120.400 326.178 C 120.400 326.557,120.999 327.091,121.800 327.426 C 122.570 327.748,123.200 328.188,123.200 328.405 C 123.200 328.622,123.566 328.800,124.013 328.800 C 124.459 328.800,124.929 329.070,125.055 329.400 C 125.414 330.334,227.234 330.308,228.168 329.374 C 228.512 329.030,228.942 328.841,229.124 328.953 C 229.306 329.065,229.707 328.807,230.015 328.379 C 230.324 327.950,230.852 327.599,231.188 327.597 C 231.525 327.596,232.248 326.921,232.796 326.097 C 233.344 325.274,233.888 324.510,234.005 324.400 C 235.976 322.538,235.483 311.744,233.390 310.941 C 233.068 310.817,232.899 310.563,233.014 310.377 C 233.295 309.923,231.952 308.383,231.513 308.654 C 231.323 308.771,230.808 308.410,230.369 307.852 C 229.930 307.293,229.330 306.929,229.037 307.041 C 228.743 307.154,228.396 306.966,228.264 306.623 C 227.906 305.690,125.302 305.668,124.945 306.600 " stroke="none" fill="#fcfcf4" fill-rule="evenodd"></path><path id="path1" d="" stroke="none" fill="#100fcf4" fill-rule="evenodd"></path><path id="path2" d="" stroke="none" fill="#100fcf4" fill-rule="evenodd"></path><path id="path3" d="" stroke="none" fill="#100fcf4" fill-rule="evenodd"></path><path id="path4" d="" stroke="none" fill="#100fcf4" fill-rule="evenodd"></path></g></svg>