<?xml version="1.0" encoding="utf-8"?>
<!-- Generator: Adobe Illustrator 23.0.3, SVG Export Plug-In . SVG Version: 6.00 Build 0)  -->
<svg version="1.1" id="Capa_1" xmlns="http://www.w3.org/2000/svg" xmlns:xlink="http://www.w3.org/1999/xlink" x="0px" y="0px"
	 viewBox="0 0 512 512" style="enable-background:new 0 0 512 512;" xml:space="preserve">
<g>
	<path fill="#EDC963" d="M154.89,84.33v-2.16c0-8.55-6.93-15.48-15.48-15.48h-29.19c-8.55,0-15.48,6.93-15.48,15.48v1.07L154.89,84.33z
		"/>
	<path fill="#EDC963" d="M417.28,83.24v-1.07c0-8.55-6.93-15.48-15.48-15.48h-29.2c-8.55,0-15.48,6.93-15.48,15.48v2.16L417.28,83.24z"
		/>
	<path fill="#E7B93E" d="M417.28,101.82V83.24c-8.96-3.06-18.57-4.73-28.57-4.73c-11.13,0-21.78,2.06-31.59,5.82v18.58L417.28,101.82z"
		/>
	<path fill="#EDC963" d="M123.29,97.09c11.13,0,21.78,2.06,31.59,5.82V82.18c0-8.55-6.93-15.48-15.48-15.48h-29.19
		c-8.55,0-15.48,6.93-15.48,15.48v19.65C103.69,98.76,113.29,97.09,123.29,97.09z"/>
	<path fill="#E7B93E" d="M154.89,102.92V84.33c-9.81-3.76-20.46-5.82-31.59-5.82c-10,0-19.61,1.67-28.57,4.73v18.58L154.89,102.92z"/>
	<path fill="#555A66" d="M33.81,429.74c46.38,20.56,69.07-10.26,79.21-40.35l24.53-73.04c0,0,0,0,0,0l0,0l5.35-6.63
		c0,0,15.13,8.19,27.98,8.19c15.33,0,29.23-6.1,39.42-15.99c0.95-0.92,2.22-1.41,3.54-1.41h84.3c1.32,0,2.59,0.49,3.54,1.41
		c10.2,9.89,24.1,15.99,39.42,15.99c12.85,0,27.99-8.19,27.99-8.19l5.35,6.63l24.52,73c10.13,30.11,49.88,54.32,79.23,42.14
		c17.75-7.37,33.02-29.54,33.02-50.31l-34.87-207.64l-0.02,0.02c-5.85-43.17-42.83-76.46-87.61-76.46
		c-25.28,0-48.05,10.62-64.17,27.62H187.46c-16.11-17-38.89-27.62-64.17-27.62c-44.78,0-81.76,33.29-87.61,76.46l-0.02-0.02
		L0.76,381.38l0.04-0.21C0,406.76,16.07,422.37,33.81,429.74L33.81,429.74z"/>
	<g>
		<path fill="#3C434C" d="M33.81,422.52c-17.75-7.37-29.9-23.22-33.02-41.34l-0.04,0.21c-4.23,25.17,9.48,49.93,33.05,59.72
			c29.35,12.18,62.87-3.06,72.99-33.18l6.22-18.53C102.88,419.48,63.14,434.69,33.81,422.52z"/>
		<path fill="#3C434C" d="M511.2,381.18c-3.12,18.13-15.27,33.98-33.02,41.34c-29.34,12.18-69.1-3.05-79.23-33.17l6.23,18.56
			c10.12,30.12,43.64,45.36,72.99,33.18c23.58-9.79,37.28-34.54,33.05-59.72L511.2,381.18z"/>
		<path fill="#3C434C" d="M370.43,304.39c-1.09-3.24-4.98-4.55-7.8-2.62c-6.38,4.37-11.73,6.86-21.51,6.86
			c-15.33,0-29.23-6.1-39.42-15.99c-0.95-0.92-2.22-1.41-3.54-1.41h-84.3c-1.32,0-2.59,0.49-3.54,1.41
			c-10.2,9.89-24.1,15.99-39.43,15.99c-9.79,0-15.14-2.49-21.51-6.86c-2.82-1.93-6.71-0.62-7.8,2.62l-4.02,11.96
			c9.35,6.82,20.87,10.85,33.33,10.85c16.04,0,30.52-6.68,40.83-17.39h88.57c10.31,10.72,24.78,17.39,40.83,17.39
			c12.46,0,23.98-4.03,33.33-10.85L370.43,304.39z"/>
	</g>
	<path fill="#DAD8DB" d="M150.42,261.91c0,9.21,12.31,24.26,22.41,24.26s22.41-15.12,22.41-24.26c-3.65-8.79-12.31-14.97-22.41-14.97
		S154.07,253.12,150.42,261.91z"/>
	<path fill="#B3E59F" d="M149.84,171.13h-9.49v-9.49c0-9.07-7.35-16.43-16.43-16.43s-16.43,7.35-16.43,16.43v9.49H98
		c-9.07,0-16.43,7.35-16.43,16.43c0,9.07,7.35,16.43,16.43,16.43h9.49v9.49c0,9.07,7.35,16.43,16.43,16.43s16.43-7.35,16.43-16.43
		v-9.49h9.49c9.07,0,16.43-7.35,16.43-16.43C166.26,178.48,158.91,171.13,149.84,171.13z"/>
	<path fill="#DAD8DB" d="M149.84,171.13h-9.49v-9.49c0-9.07-7.35-16.43-16.43-16.43s-16.43,7.35-16.43,16.43v9.49H98
		c-9.07,0-16.43,7.35-16.43,16.43c0,9.07,7.35,16.43,16.43,16.43h9.49v9.49c0,9.07,7.35,16.43,16.43,16.43s16.43-7.35,16.43-16.43
		v-9.49h9.49c9.07,0,16.43-7.35,16.43-16.43C166.26,178.48,158.91,171.13,149.84,171.13z"/>
	<path fill="#C4DBF9" d="M393.39,134.63c-8.18,0-14.87,6.69-14.87,14.87s6.69,14.87,14.87,14.87s14.87-6.69,14.87-14.87
		S401.56,134.63,393.39,134.63z"/>
	<path fill="#B3E59F" d="M393.39,134.63c-8.18,0-14.87,6.69-14.87,14.87s6.69,14.87,14.87,14.87s14.87-6.69,14.87-14.87
		S401.56,134.63,393.39,134.63z"/>
	<path fill="#BED8FB" d="M393.39,210.74c-8.18,0-14.87,6.69-14.87,14.87s6.69,14.87,14.87,14.87s14.87-6.69,14.87-14.87
		S401.56,210.74,393.39,210.74z"/>
	<path fill="#EDC963" d="M446.3,187.55c0-8.18-6.69-14.87-14.87-14.87s-14.87,6.69-14.87,14.87s6.69,14.87,14.87,14.87
		C439.61,202.42,446.3,195.73,446.3,187.55z"/>
	<path fill="#DF667C" d="M370.2,187.55c0-8.18-6.69-14.87-14.87-14.87s-14.87,6.69-14.87,14.87s6.69,14.87,14.87,14.87
		C363.51,202.42,370.2,195.73,370.2,187.55z"/>
	<path fill="#A6AEC4" d="M208.1,149.84h95.79c9.74,0,20.06-16.03,20.06-25.12H188.05C188.75,133.81,198.36,149.84,208.1,149.84
		L208.1,149.84z"/>
	<path fill="#C8C5C9" d="M172.84,276.88c-10.11,0-18.77-6.18-22.41-14.97c-1.19,2.86-1.85,6-1.85,9.29c0,13.4,10.86,24.26,24.26,24.26
		s24.26-10.86,24.26-24.26c0-3.29-0.66-6.43-1.85-9.29C191.6,270.7,182.94,276.88,172.84,276.88L172.84,276.88z"/>
	<path fill="#DAD8DB" d="M316.75,261.91c0,9.21,12.31,24.26,22.42,24.26c10.11,0,22.41-15.12,22.41-24.26
		c-3.65-8.79-12.31-14.97-22.41-14.97C329.06,246.94,320.4,253.12,316.75,261.91z"/>
	<path fill="#C8C5C9" d="M339.16,276.88c-10.11,0-18.77-6.18-22.42-14.97c-1.19,2.86-1.85,6-1.85,9.29c0,13.4,10.86,24.26,24.26,24.26
		s24.26-10.86,24.26-24.26c0-3.29-0.66-6.43-1.85-9.29C357.93,270.7,349.27,276.88,339.16,276.88L339.16,276.88z"/>
	<path fill="#959DB0" d="M303.9,140.55H208.1c-9.74,0-17.89-6.76-20.06-15.83h-0.59v13.77c0,11.4,9.24,20.65,20.65,20.65h95.79
		c11.4,0,20.64-9.24,20.64-20.65v-13.77h-0.59C321.78,133.79,313.64,140.55,303.9,140.55L303.9,140.55z"/>
</g>
</svg>
