<svg version="1.1" id="Layer_1" xmlns="http://www.w3.org/2000/svg" xmlns:xlink="http://www.w3.org/1999/xlink" x="0px" y="0px"
	 viewBox="0 0 1122 1122" style="enable-background:new 0 0 1122 1122;" xml:space="preserve">
<g id="Bg">
</g>
<g id="Object">
	<g>
		<path fill="#555A66" d="M165.5,372.3c-12.9,0-23.4,11.4-23.4,25.5v0.7h837.9v-0.7c0-14-10.5-25.5-23.4-25.5H165.5z"/>
		<rect x="142.1" y="398.4" fill="#7E8596" width="837.9" height="10.7"/>
		<path fill="#555A66" d="M142.1,724.3c0,14,10.5,25.5,23.4,25.5h791.1c12.9,0,23.4-11.4,23.4-25.5V409.1H142.1L142.1,724.3
			L142.1,724.3z M301.6,709.9h-47.3v-49.2h47.3L301.6,709.9L301.6,709.9z M293.5,630.6v-49.2h47.3v49.2H293.5z M372.4,709.9h-47.3
			v-49.2h47.3V709.9z M363.1,630.6v-49.2h47.3v49.2H363.1z M726.2,709.9h-70.8h-47.3h-23.5h-47.3h-146v-49.2h146h47.3h23.5h47.3
			h70.8V709.9z M432.7,630.6v-49.2H480v49.2H432.7z M502.4,630.6v-49.2h47.3v49.2H502.4z M572,630.6v-49.2h47.3v49.2H572z
			 M641.7,630.6v-49.2H689v49.2H641.7z M711.3,630.6v-49.2h47.3v49.2H711.3z M797,709.9h-47.3v-49.2H797V709.9z M780.9,630.6v-49.2
			h47.3v49.2H780.9z M867.7,709.9h-47.3v-49.2h47.3V709.9z M844,630.6v-49.2h94.4v49.2H844z M938.5,709.9h-47.3v-49.2h47.3V709.9z
			 M891.2,422.8h47.3V472h-47.3V422.8z M891.2,502.1h47.3v49.2h-47.3V502.1z M820.4,422.8h47.3V472h-47.3V422.8z M820.4,502.1h47.3
			v49.2h-47.3V502.1z M749.6,422.8h47.3V472h-47.3V422.8z M749.6,502.1h47.3v49.2h-47.3V502.1z M678.9,422.8h47.3V472h-47.3V422.8z
			 M678.9,502.1h47.3v49.2h-47.3V502.1z M608.1,422.8h47.3V472h-47.3V422.8z M608.1,502.1h47.3v49.2h-47.3V502.1z M537.3,422.8h47.3
			V472h-47.3V422.8z M537.3,502.1h47.3v49.2h-47.3V502.1z M466.6,422.8h47.3V472h-47.3V422.8z M466.6,502.1h47.3v49.2h-47.3V502.1z
			 M395.8,422.8h47.3V472h-47.3V422.8z M395.8,502.1h47.3v49.2h-47.3V502.1z M325.1,422.8h47.3V472h-47.3V422.8z M325.1,502.1h47.3
			v49.2h-47.3V502.1z M254.3,422.8h47.3V472h-47.3V422.8z M254.3,502.1h47.3v49.2h-47.3V502.1z M183.5,422.8h47.3V472h-47.3V422.8z
			 M183.5,502.1h47.3v49.2h-47.3V502.1z M183.5,581.4h94.4v49.2h-94.4V581.4z M183.5,660.7h47.3v49.2h-47.3V660.7z"/>
		<rect x="183.5" y="422.8" fill="#7E8596" width="47.3" height="49.2"/>
		<rect x="254.3" y="422.8" fill="#7E8596" width="47.3" height="49.2"/>
		<rect x="325.1" y="422.8" fill="#7E8596" width="47.3" height="49.2"/>
		<rect x="395.8" y="422.8" fill="#7E8596" width="47.3" height="49.2"/>
		<rect x="466.6" y="422.8" fill="#7E8596" width="47.3" height="49.2"/>
		<rect x="537.3" y="422.8" fill="#7E8596" width="47.3" height="49.2"/>
		<rect x="608.1" y="422.8" fill="#7E8596" width="47.3" height="49.2"/>
		<rect x="678.9" y="422.8" fill="#7E8596" width="47.3" height="49.2"/>
		<rect x="749.6" y="422.8" fill="#7E8596" width="47.3" height="49.2"/>
		<rect x="820.4" y="422.8" fill="#7E8596" width="47.3" height="49.2"/>
		<rect x="891.2" y="422.8" fill="#7E8596" width="47.3" height="49.2"/>
		<rect x="183.5" y="502.1" fill="#7E8596" width="47.3" height="49.2"/>
		<rect x="254.3" y="502.1" fill="#7E8596" width="47.3" height="49.2"/>
		<rect x="325.1" y="502.1" fill="#7E8596" width="47.3" height="49.2"/>
		<rect x="395.8" y="502.1" fill="#7E8596" width="47.3" height="49.2"/>
		<rect x="466.6" y="502.1" fill="#7E8596" width="47.3" height="49.2"/>
		<rect x="537.3" y="502.1" fill="#7E8596" width="47.3" height="49.2"/>
		<rect x="608.1" y="502.1" fill="#7E8596" width="47.3" height="49.2"/>
		<rect x="678.9" y="502.1" fill="#7E8596" width="47.3" height="49.2"/>
		<rect x="749.6" y="502.1" fill="#7E8596" width="47.3" height="49.2"/>
		<rect x="820.4" y="502.1" fill="#7E8596" width="47.3" height="49.2"/>
		<rect x="891.2" y="502.1" fill="#7E8596" width="47.3" height="49.2"/>
		<rect x="183.5" y="581.4" fill="#7E8596" width="94.4" height="49.2"/>
		<rect x="844" y="581.4" fill="#7E8596" width="94.4" height="49.2"/>
		<rect x="293.5" y="581.4" fill="#7E8596" width="47.3" height="49.2"/>
		<rect x="363.1" y="581.4" fill="#7E8596" width="47.3" height="49.2"/>
		<rect x="432.7" y="581.4" fill="#7E8596" width="47.3" height="49.2"/>
		<rect x="502.4" y="581.4" fill="#7E8596" width="47.3" height="49.2"/>
		<rect x="572" y="581.4" fill="#7E8596" width="47.3" height="49.2"/>
		<rect x="641.7" y="581.4" fill="#7E8596" width="47.3" height="49.2"/>
		<rect x="711.3" y="581.4" fill="#7E8596" width="47.3" height="49.2"/>
		<rect x="780.9" y="581.4" fill="#7E8596" width="47.3" height="49.2"/>
		<rect x="183.5" y="660.7" fill="#7E8596" width="47.3" height="49.2"/>
		<rect x="254.3" y="660.7" fill="#7E8596" width="47.3" height="49.2"/>
		<rect x="325.1" y="660.7" fill="#7E8596" width="47.3" height="49.2"/>
		<polygon fill="#7E8596" points="608.1,660.7 584.7,660.7 537.3,660.7 391.3,660.7 391.3,709.9 537.3,709.9 584.7,709.9 608.1,709.9 
			655.4,709.9 726.2,709.9 726.2,660.7 655.4,660.7 		"/>
		<rect x="749.6" y="660.7" fill="#7E8596" width="47.3" height="49.2"/>
		<rect x="820.4" y="660.7" fill="#7E8596" width="47.3" height="49.2"/>
		<rect x="891.2" y="660.7" fill="#7E8596" width="47.3" height="49.2"/>
	</g>
</g>
</svg>
