<?xml version="1.0" encoding="utf-8"?>
<!-- Generator: Adobe Illustrator 23.0.3, SVG Export Plug-In . SVG Version: 6.00 Build 0)  -->
<svg version="1.1" id="Capa_1" xmlns="http://www.w3.org/2000/svg" xmlns:xlink="http://www.w3.org/1999/xlink" x="0px" y="0px"
	 viewBox="0 0 512 512" style="enable-background:new 0 0 512 512;" xml:space="preserve">
<g>
	<g>
		<g>
			<g>
				<g>
				</g>
			</g>
		</g>
	</g>
	<g>
		<path fill="#707789" d="M256,458.91c-77.3,0-139.97-62.67-139.97-139.97V140.99c0-41.52,33.66-75.18,75.18-75.18h129.57
			c41.52,0,75.18,33.66,75.18,75.18v177.95C395.97,396.24,333.3,458.91,256,458.91L256,458.91z"/>
	</g>
	<g>
		<path fill="#555A66" d="M320.79,65.81h-65.03v393.1c0.08,0,0.16,0,0.24,0c77.3,0,139.97-62.67,139.97-139.97V140.99
			C395.97,99.47,362.31,65.8,320.79,65.81L320.79,65.81z"/>
	</g>
	<g>
		<path fill="#7E8596" d="M395.97,140.99c0-41.52-33.66-75.18-75.18-75.18H191.21c-41.52,0-75.18,33.66-75.18,75.18v71.55h279.94
			V140.99z"/>
	</g>
	<g>
		<path fill="#636978" d="M395.97,140.99c0-41.52-33.66-75.18-75.18-75.18h-65.03v146.73h140.22V140.99z"/>
	</g>
	<g>
		<path fill="#414952" d="M256,190.87c-14.39,0-26.06-11.67-26.06-26.06v-44.79c0-14.39,11.67-26.06,26.06-26.06
			c14.39,0,26.06,11.67,26.06,26.06v44.79C282.06,179.2,270.39,190.87,256,190.87L256,190.87z"/>
	</g>
	<g>
		<path fill="#23272B" d="M256,93.95c-0.08,0-0.16,0-0.24,0.01v96.91c0.08,0,0.16,0.01,0.24,0.01c14.39,0,26.06-11.67,26.06-26.06
			v-44.79C282.06,105.62,270.39,93.95,256,93.95L256,93.95z"/>
	</g>
</g>
</svg>
