<?xml version="1.0" encoding="utf-8"?>
<!-- Generator: Adobe Illustrator 23.0.3, SVG Export Plug-In . SVG Version: 6.00 Build 0)  -->
<svg version="1.1" id="Capa_1" xmlns="http://www.w3.org/2000/svg" xmlns:xlink="http://www.w3.org/1999/xlink" x="0px" y="0px"
	 viewBox="0 0 512 512" style="enable-background:new 0 0 512 512;" xml:space="preserve">
<g>
	<g>
		<path fill="#707789" d="M356.7,428.52H129.48V83.48H356.7c14.26,0,25.82,11.56,25.82,25.82V402.7
			C382.52,416.96,370.96,428.52,356.7,428.52z"/>
	</g>
	<g>
		<path fill="#555A66" d="M356.7,83.48H245.62v345.04H356.7c14.26,0,25.82-11.56,25.82-25.82V109.3
			C382.52,95.04,370.96,83.48,356.7,83.48z"/>
	</g>
	<g>
		<path fill="#333940" d="M306.51,77h31.64v358h-31.64V77z"/>
	</g>
	<g>
		<g>
			<path fill="#555A66" d="M109.44,112.76h48.87v30.62h-48.87L109.44,112.76z"/>
		</g>
		<g>
			<path fill="#555A66" d="M109.44,176.72h48.87v30.62h-48.87L109.44,176.72z"/>
		</g>
		<g>
			<path fill="#555A66" d="M109.44,240.69h48.87v30.62h-48.87L109.44,240.69z"/>
		</g>
		<g>
			<path fill="#555A66" d="M109.44,304.65h48.87v30.62h-48.87L109.44,304.65z"/>
		</g>
		<g>
			<path fill="#555A66" d="M109.44,368.61h48.87v30.62h-48.87L109.44,368.61z"/>
		</g>
	</g>
</g>
</svg>
