<?xml version="1.0" encoding="utf-8"?>
<!-- Generator: Adobe Illustrator 23.0.3, SVG Export Plug-In . SVG Version: 6.00 Build 0)  -->
<svg version="1.1" id="color" xmlns="http://www.w3.org/2000/svg" xmlns:xlink="http://www.w3.org/1999/xlink" x="0px" y="0px"
	 viewBox="0 0 512 512" style="enable-background:new 0 0 512 512;" xml:space="preserve">
<style type="text/css">
	.st0{fill:#414952;}
	.st1{fill:#23272B;}
	.st2{fill:#7E8596;}
	.st3{fill:#636978;}
	.st4{fill:#707789;}
	.st5{fill:#555A66;}
</style>
<path fill="#414952" d="M148.69,187.48c-4.1,0-8.19-1.56-11.31-4.69c-6.25-6.25-6.25-16.38,0-22.63l103.3-103.3
	c22.51-22.51,59.16-22.51,81.66,0l14.74,14.74c6.25,6.25,6.25,16.38,0,22.63s-16.38,6.25-22.63,0l-14.74-14.74
	c-10.05-10.03-26.37-10.03-36.42,0L160,182.78C156.89,185.9,152.79,187.48,148.69,187.48L148.69,187.48z"/>
<path fill="#23272B" d="M281.49,55.96c-10.69,0-21.35,4.07-29.53,12.22l-114.6,114.6c3.11,3.11,7.21,4.69,11.31,4.69
	s8.19-1.56,11.31-4.69l103.3-103.3c5.01-5.01,11.61-7.51,18.22-7.51c6.59,0,13.18,2.5,18.22,7.51l14.74,14.74
	c3.11,3.11,7.21,4.69,11.31,4.69c4.1,0,8.19-1.56,11.31-4.69L311,68.16C302.87,60.03,292.18,55.96,281.49,55.96L281.49,55.96z"/>
<path fill="#414952" d="M443.73,157.87c-4.1,0-8.19-1.56-11.31-4.69l-73.6-73.6c-3.01-2.99-4.69-7.06-4.69-11.31s1.69-8.32,4.69-11.31
	l36.91-36.91c25.56-25.81,70.66-25.86,96.3,0.04C504.83,32.68,512,49.83,512,68.27c0,18.03-7.13,35.07-20.03,48l-36.91,36.91
	C451.93,156.31,447.83,157.87,443.73,157.87z"/>
<path fill="#7E8596" d="M16,512c-4.18,0-8.28-1.64-11.31-4.69c-4.2-4.2-5.74-10.41-3.97-16.09l47.15-150.4
	c1.69-5.35,6.02-9.43,11.46-10.75c5.46-1.3,11.16,0.28,15.13,4.22l103.25,103.25c3.97,3.97,5.57,9.71,4.22,15.13
	c-1.34,5.44-5.42,9.77-10.75,11.46l-150.4,47.15L16,512z"/>
<path fill="#636978" d="M51.84,334.29L343.85,42.07c3.01-3.03,7.08-4.71,11.33-4.74h0.02c4.25,0,8.32,1.69,11.31,4.69l103.47,103.47
	c3.01,3.01,4.69,7.08,4.69,11.31c0,4.25-1.69,8.32-4.69,11.33L177.71,460.18L51.84,334.29z"/>
<path fill="#23272B" d="M491.97,20.03l-73.73,73.73l48.11,48.11l25.6-25.6c12.93-12.93,20.05-29.97,20.05-48
	c0-18.43-7.17-35.58-19.99-48.17C492.01,20.07,491.99,20.05,491.97,20.03z"/>
<path fill="#707789" d="M114.77,397.23L4.69,507.31C7.72,510.36,11.82,512,16,512l4.8-0.73l150.4-47.15c2.5-0.79,4.71-2.15,6.53-3.95
	L114.77,397.23z"/>
<path fill="#555A66" d="M418.24,93.76L114.77,397.23l62.93,62.95l292.27-292.05c3.01-3.01,4.69-7.08,4.69-11.33s-1.69-8.32-4.69-11.31
	l-3.63-3.63L418.24,93.76z"/>
</svg>
