<svg version="1.1" xmlns="http://www.w3.org/2000/svg" xmlns:xlink="http://www.w3.org/1999/xlink" x="0px" y="0px"
	 viewBox="0 0 1600 1200" style="enable-background:new 0 0 1600 1200;" xml:space="preserve" fill="black">
<path fill="black" d="M1567.5,480.4c-60.7-95.2-187-123.2-282.2-62.6c-17.2,10.9-32.6,24.4-45.8,39.9l-73.3-55.1
	c18.3-7.5,56.4-24.4,59-34.6c1.6-6.2-18-10.5-47.9-13l137-125c1-0.9,1.2-2.3,0.7-3.5l-34.9-65.8c-0.9-1.1-2.5-1.4-3.6-0.5
	c-0.2,0.1-0.4,0.3-0.5,0.5l-142.7,129.7c-42.7,0-118.4,5.7-140.2-8c-34.9-21.9-38.9-54.2-51.9-65.8s-27.4-13-30.5-22.8
	c-0.4-0.4-0.4-0.9,0-1.3l0,0c6.7-1.7,44.2-12.2,52.8-38.9s-9-61.3-11.8-66.9c-0.3-0.4-0.3-0.9,0-1.3l39.8-34.8
	c0.4-0.5,0.4-1.2-0.1-1.7c-0.2-0.2-0.5-0.3-0.8-0.3l-58.4,7.1c-0.3,0.1-0.7,0.1-1,0c-3-4.2-25.9-32-73.9-13
	c-55.8,22.8-45.5,70.4-45.5,70.4c7.4,49.7,24.6,59.5,52.8,75.8c0.7,0,1,1.3,0,1.8c-18.2,15.2-200.1,164.6-368.4,223
	c-1.7,0.6-2.5,2.5-1.9,4.1c0.3,0.9,1,1.6,1.9,1.9c48.9,21,194.6,9.9,237.9-15.3c0.5-0.3,1.1-0.2,1.4,0.3c0.2,0.3,0.2,0.6,0.1,0.9
	c-4.7,18-30.1,123.6,10.3,156.4l2.2,1.6l-54.1,38.9c-6.2,4.4-7.7,13-3.3,19.2c2.9,4,7.7,6.3,12.6,5.7l27.9-2.8
	c18-1.9,34.9-9.9,47.9-22.6l9.2-9.1l78.6,58.6l-10.4,83.1c-112.7-6.1-209,80.2-215.1,192.9s80.2,209,192.9,215.1
	s208.9-80.2,215.1-192.9c2.1-37.6-6.3-75.1-24.3-108.2l20-13c20.5,18.1,51.7,16.1,69.8-4.3c11-12.4,15-29.6,10.7-45.6l83.1-24.4
	c7-1.7,11.2-8.7,9.5-15.7c0,0,0-0.1,0-0.1v-2.8c-1.1-6.2-6.6-10.7-13-10.6h-70.7c-0.4,0-0.8-0.3-1-0.7l-21.3-48.1l43.1-247.7
	l68,50.6c-60.7,95.1-32.8,221.4,62.3,282.1s221.4,32.8,282.1-62.3c42.8-67,42.8-152.8,0-219.9L1567.5,480.4L1567.5,480.4z
	 M1001.2,332.8l96.4-1.7l13,23.7c-22.2,0.9-45.7,2.6-68.1,5.5c-16.3,2-35.9-18.9-41.8-25.9C1000.4,333.8,1000.6,333.1,1001.2,332.8
	L1001.2,332.8z M855.5,476.9c8.2-13,54.7-90.8,60.7-117.9c0.3-0.5,0.9-0.7,1.4-0.4c0.2,0.1,0.3,0.2,0.4,0.4
	c31.3,36.2,96.9,57.1,102,58.6h0.7l84.3-25.9l18.9,14.1l-88.3,81.1c-9.5-8.8-21.5-14.2-34.4-15.6c-51-6.5-129.7,4.9-144.8,7.1
	c-0.6,0-1-0.5-1-1C855.4,477.2,855.4,477.1,855.5,476.9L855.5,476.9z M1073.8,742.7c-5.7,0.6-11.3,2.3-16.5,4.9L997,700.9
	c-0.3-0.4-0.3-0.9,0-1.3l30.1-62.5c0.4-0.5,1.1-0.7,1.6-0.3c0.1,0.1,0.2,0.2,0.3,0.3l49.7,77.8L1073.8,742.7z M945.8,675l-41.4-30.9
	l79.1-72.6L945.8,675z M945.8,568.3l-64.2,59l-64.8-48c43.4,0.1,86.7-3.5,129.4-10.9L945.8,568.3z M893.9,670.3l42.3,31.7l-5.1,13.9
	c-3.6,9.8,1.4,20.7,11.2,24.3c0,0,0.1,0,0.1,0l88.3,32.2l2.6,2c-3.7,10-4.1,21-1.2,31.3l-19.8,13c-30.5-42-76-70.7-127-80.3
	L893.9,670.3z M880.2,779.9c38.5,8,72.8,29.7,96.5,61.1l-113.2,72.1L880.2,779.9z M934.4,1075.5c-75.2,48.7-175.7,27.2-224.4-48
	c-48.7-75.2-27.2-175.7,48-224.4c28.2-18.2,61.3-27.3,94.8-25.9l-20.2,161.6c-0.7,7.6,4.8,14.3,12.3,15c3,0.3,6.1-0.4,8.7-2
	l137.7-87.8c38.6,74.7,13.8,166.5-57.2,211.7L934.4,1075.5z M1054.6,545.3c1-11.6-0.4-23.2-4-34.2l74.6-68.5l-32.3,189.6
	L1054.6,545.3z M1482.6,726.8c-75.7,48-175.9,25.6-223.9-50c-33.2-52.3-33.7-119-1.3-171.8l128.5,95.8c4.7,3.2,11,3.2,15.7,0
	c1.4-0.9,2.7-2,3.6-3.4c4.5-6.1,3.2-14.7-2.8-19.2l-128.5-96c59.7-66.8,162.2-72.5,228.9-12.9s72.5,162.1,12.9,228.9
	c-9.8,11-21,20.5-33.4,28.5H1482.6z"/>
<path fill="black" d="M1051.7,248.9l47.5,2.7c2.3,0.1,4.4-0.7,6.1-2.2l117.4-110.1c0.9-0.8,0.9-2.1,0.2-2.9c-0.4-0.5-1-0.7-1.6-0.7
	l-46-2.7c-3.4-0.2-6.8,1-9.2,3.4l-115.8,108.6c-0.9,0.9-1,2.4-0.1,3.3C1050.5,248.6,1051.1,248.9,1051.7,248.9L1051.7,248.9z
	 M430.3,939.3L355.2,985L284,926.9l22.6,89.1l-73.1,48.8l89.1,9.5l25.9,88.2l32.6-83.3l89.1,5.8l-68.9-61L430.3,939.3z M517.8,618.4
	L442.7,664l-71.3-58.1L394,695l-73,48.8l89.1,9.5l25.9,88.3l32.6-83.3l89.1,5.7l-68.9-60.8L517.8,618.4z M167.8,790.6l29.1-84.7
	l-75.1,45.7l-71.2-58.1l22.6,89.1l-73,48.8l89,9.5l26.1,88.3l32.4-83.3l89.2,5.7L167.8,790.6z"/>
</svg>
