<?xml version="1.0" encoding="utf-8"?>
<svg x="0px" y="0px" viewBox="0 0 200 200" style="enable-background:new 0 0 200 200;" xml:space="preserve">
<g transform="translate(0.000000,200.000000) scale(0.100000,-0.100000)">
	<g>
		<path d="M1522.5,1299.9c-233.1,9.5-309-9.5-485.1-113.8c-184.3-109.8-245.3-136.9-338.8-159.9
			c-101.6-24.4-260.2-25.7-344.2-5.4l-59.6,14.9v70.5v71.8l92.1-20.3c73.2-14.9,113.8-16.3,210-4.1c149.1,19,218.2,46.1,395.7,150.4
			c200.6,119.2,257.5,138.2,428.2,146.3c214.1,9.5,398.4-31.2,520.3-112.5l48.8-33.9l-4.1,192.4l-4.1,191.1l-81.3,44.7
			c-136.9,74.5-333.3,109.8-494.6,88.1c-124.7-17.6-230.4-54.2-365.9-126c-290-155.8-345.5-173.4-543.4-173.4
			c-154.5,0-309,35.2-414.7,94.9l-71.8,40.7L13,1228L17,798.5l85.4-43.4c124.7-63.7,281.9-93.5,445.8-84
			c162.6,9.5,253.4,39.3,421.4,139.6c174.8,104.3,258.8,139.6,378.1,155.8c107.1,14.9,261.5,0,327.9-32.5
			c29.8-13.6,36.6-27.1,39.3-81.3c2.7-35.2-1.4-63.7-9.5-63.7c-6.8,0-54.2,9.5-105.7,21.7c-116.5,27.1-279.1,19-390.3-20.3
			c-44.7-16.3-138.2-62.3-207.3-104.3c-155.8-94.9-253.4-135.5-375.4-154.5c-178.9-29.8-443.1,19-566.4,101.6L8.9,668.4l4.1-187
			L17,295.8l54.2-31.2C275.8,148.1,565.8,123.7,784,206.3c40.7,14.9,138.2,65,215.5,109.8c188.4,112.5,261.5,136.9,428.2,145
			c199.2,9.5,405.2-32.5,505.4-104.3c21.7-16.3,43.4-28.5,47.4-28.5s8.1,188.4,8.1,420.1v420.1l-70.5,40.7
			C1800.3,1276.8,1727.1,1293.1,1522.5,1299.9z" fill="#0197B5"/>
	</g>
</g>
</svg>
