<svg version="1.1" id="Layer_1" xmlns="http://www.w3.org/2000/svg" xmlns:xlink="http://www.w3.org/1999/xlink" x="0px" y="0px"
	 viewBox="0 0 1000 1000" style="enable-background:new 0 0 1000 1000;" xml:space="preserve">
<style type="text/css">
	.st0{fill:#676869;}
	.st1{fill:#7DC577;}
	.st2{fill:#FFFFFF;}
</style>
<path class="st0" d="M508.3,144.42c33.19,0,65.26,3.94,96.2,11.81c7.88,2.25,16.32-2.81,19.69-10.13
	c3.94-9.56-1.69-20.25-11.81-22.5c-33.19-8.44-68.07-12.38-104.08-12.38c-35.44,0-69.2,4.5-102.39,12.38
	c-10.13,2.25-15.19,12.94-11.81,22.5c2.81,7.88,11.25,12.38,19.69,10.13C444.16,148.35,475.67,144.42,508.3,144.42"/>
<path class="st0" d="M715.9,189.99L715.9,189.99c-1.13,6.75,2.25,13.5,7.88,16.88C839.67,280,915.62,411.09,911.68,559.05
	c-5.63,214.91-182.28,389.32-397.2,392.7c-225.6,3.38-409.57-178.91-409.57-403.39c0-144.03,75.95-270.61,189.6-342.06
	c5.63-3.38,9-10.13,7.88-16.88l0,0c-1.69-11.81-15.19-18-25.32-11.81C148.23,258.62,63.84,404.34,71.72,569.18
	C81.84,793.09,263.56,974.81,487.48,985.5C737.84,997.32,946,796.47,946,548.36c0-155.28-81.58-291.99-204.22-369.63
	C731.65,171.42,718.15,178.17,715.9,189.99"/>
<path class="st1" d="M598.88,304.76c-21.38-4.5-43.32-7.31-64.7-8.44c-8.44-0.56-17.44-0.56-25.88-0.56
	c-26.44,0-52.88,2.25-78.2,6.75c-54.01,9.56-107.46,28.69-154.72,56.82c-30.94,18-60.2,39.94-86.08,65.26
	c-6.75,6.19-10.13,15.19-9,24.19l41.63,334.19c68.07,82.7,171.03,135.59,285.8,135.59c115.33,0,218.29-52.88,285.8-135.59
	l6.19-50.63c39.38-20.82,63.57-63.01,63.57-110.83c0-36.01-14.07-69.76-38.26-92.83l10.13-79.89c1.13-9-1.69-17.44-8.44-23.63
	c-37.13-36.01-81.01-65.26-127.71-87.2C668.64,322.76,633.76,311.51,598.88,304.76 M468.35,710.39
	c-12.38,6.75-26.44,10.13-42.2,10.13c-52.88,0-92.83-42.76-92.83-99.58s39.94-99.58,92.83-99.58c23.63,0,44.45,8.44,60.2,22.5
	c20.25,18,32.63,45.57,32.63,77.08C518.99,660.88,498.73,694.08,468.35,710.39 M789.03,710.39c-12.38,6.75-26.44,10.13-42.2,10.13
	c-52.88,0-92.83-42.76-92.83-99.58s39.94-99.58,92.83-99.58c23.63,0,44.45,8.44,60.2,22.5c20.25,18,32.63,45.57,32.63,77.08
	C840.23,660.88,819.98,694.08,789.03,710.39"/>
<path class="st0" d="M356.96,321.07c-10.13-65.82-20.82-134.46-29.82-189.03c-25.88,1.13-50.07-15.75-57.39-41.63
	c-8.44-30.38,10.69-61.89,41.63-69.76c29.26-6.75,60.2,11.25,67.51,40.51c6.75,25.88-5.63,52.32-28.69,64.14l68.64,178.34l0,0
	C398.59,308.13,377.77,313.76,356.96,321.07L356.96,321.07z"/>
<path class="st0" d="M598.88,304.19l68.64-178.34c-23.07-11.81-35.44-38.82-28.69-64.7c8.44-30.38,39.94-48.38,70.89-39.38
	c27,7.88,44.45,36.57,39.38,64.14c-5.63,28.69-30.94,47.26-58.51,46.13c-8.44,55.13-19.13,123.21-29.82,189.6l0,0
	C641.07,314.88,620.25,308.69,598.88,304.19L598.88,304.19z"/>
<path class="st2" d="M468.35,710.39c-12.38,6.75-26.44,10.13-42.2,10.13c-52.88,0-92.83-42.76-92.83-99.58s39.94-99.58,92.83-99.58
	c23.63,0,44.45,8.44,60.2,22.5c20.25,18,32.63,45.57,32.63,77.08C518.99,660.88,498.73,694.08,468.35,710.39"/>
<path class="st2" d="M789.03,710.39c-12.38,6.75-26.44,10.13-42.2,10.13c-52.88,0-92.83-42.76-92.83-99.58s39.94-99.58,92.83-99.58
	c23.63,0,44.45,8.44,60.2,22.5c20.25,18,32.63,45.57,32.63,77.08C840.23,660.88,819.98,694.08,789.03,710.39"/>
<path class="st0" d="M754.72,583.81c-6.19-9-14.63-14.07-24.19-14.07c-9.56-0.56-17.44,3.94-24.19,12.94c0,0,0,0,0,0.56
	c-6.19,9.56-10.13,20.82-10.13,34.32c-0.56,13.5,3.38,25.32,9.56,34.88c6.75,9.56,14.07,14.07,23.63,14.63
	c9.56,0,18-4.5,24.75-14.07c6.75-9,10.69-20.25,10.69-34.32C763.72,604.62,761.47,593.93,754.72,583.81 M736.15,614.19
	c-6.19,0-11.81-5.06-11.81-11.81c0-6.19,5.06-11.81,11.81-11.81c6.19,0,11.81,5.06,11.81,11.81S742.9,614.19,736.15,614.19"/>
<path class="st0" d="M433.47,583.81c-6.19-9-14.63-14.07-24.19-14.07c-9.56-0.56-17.44,3.94-24.19,12.94c0,0,0,0,0,0.56
	c-6.19,9.56-10.13,20.82-10.13,34.32c-0.56,13.5,3.38,25.32,9.56,34.88c6.75,9.56,14.07,14.07,23.63,14.63
	c9.56,0,18-4.5,24.75-14.07c6.75-9,10.69-20.25,10.69-34.32C442.47,604.62,440.22,593.93,433.47,583.81 M414.9,614.19
	c-6.19,0-11.81-5.06-11.81-11.81c0-6.19,5.06-11.81,11.81-11.81c6.19,0,11.81,5.06,11.81,11.81S421.66,614.19,414.9,614.19"/>
</svg>
